<?xml version="1.0" encoding="UTF-8"?><svg id="ingenie" xmlns="http://www.w3.org/2000/svg" viewBox="0 0 1920 1080"><defs><style>.cls-1{fill:#e84e1b;}.cls-2{fill:#656bae;}.cls-3{fill:#5259a3;}.cls-4{fill:#686eaf;}.cls-5{fill:#6a70b0;}.cls-6{fill:#555ba5;}.cls-7{fill:#5259a4;}.cls-8{fill:#5b61a8;}.cls-9{fill:#535aa4;}.cls-10{fill:#e95525;}</style></defs><path class="cls-3" d="M217.72,598.46l91.49-315.98c16.38-40.31,90.04-41.42,105.34-1.31,20.64,98.41,68.25,209.36,83,307.16,3.77,25.02,10.06,54.8-24.98,54.79-47.64-.03-27.93-82.64-52.19-101.19-14.32-10.95-105.85-11.6-120.52-2.21-33.32,21.32-7.83,145.89-82.14,88.37v-29.62ZM324.11,494.8c16.72,3.48,54.33,0,74.23,0,22.41,0,8.61-40.81,5.87-55.21-3.84-20.17-25.17-118.84-32.55-129.47-4.51-6.5-16.96-5.73-21.75,3.22-7.41,13.88-45.55,164.02-40.92,171.57,1.2,1.96,12.91,9.43,15.12,9.89Z"/><path class="cls-10" d="M905.57,114.7c6.91,12.03,18.8,18.67,25.78,31.05,5.58,9.9,12.15,40.05,14.82,42.04,13.5,10.02,110.75,5.42,90.63,45.4-10.22,20.3-60.02-2.35-79.87-4.35-16.13-1.63-37.63-1.9-53.75-.52-26.59,2.28-87.55,36.31-90.51,1.59-2.62-30.81,71.03-37.26,92.91-41.2,1.79-29.59-43.81-43.62-14.85-74.01h14.85Z"/><path class="cls-7" d="M1702.28,615.74c-6.88,32.46-65.27,33.56-86.39,12.14l-115.34-294.59c1.53-7.7-9.49-8.2-11.03-6.29-9.35,11.66,14.24,262.09,4.93,298.63-3.85,20.78-50.63,33.25-54.64-14.6-6.76-80.66-7.35-236.18-.03-316.36,4.55-49.84,60-47.29,89.4-19.62,40.89,87.35,65.98,187.16,106.59,273.86,4.17,8.9,4.51,23.43,17,19.92l-4.78-293.55c5.65-29.82,54.29-16.82,54.29-5.08v345.54Z"/><path class="cls-6" d="M1187.63,489.86v135.75c0,20.81-54.55,28.28-59.63-9.63-12.89-96.22,9.89-221.42.53-320.83,6.14-27.83,25.66-35.11,51.49-37.49,50.99-4.69,141.16-1.72,170.18,47.82,16.3,27.84,15.8,87.91-1.97,115.03-11.69,17.85-53.42,40.02-51.87,56.65,1.61,17.31,70.97,98.23,83.47,124.52,11.08,23.31-.64,42.77-26.06,41.15-54.16-3.44-84.99-191.34-166.13-152.98ZM1187.63,445.44c75.33,24.99,145.95-36.35,110.8-112.99-19.9-43.38-110.8-32.73-110.8-22.76v135.75Z"/><path class="cls-9" d="M904.47,254.3c153.66-18.21,173.75,111.14,164.33,233.04-8.67,112.3-55.53,171.46-175.18,155.12-100.01-13.66-111.88-139.93-107.03-219.44,4.79-78.57,28.45-158.12,117.87-168.72ZM988.01,581.98c31.22-30.5,26.91-205.85,10.57-246.6-19.23-47.93-117.02-48.13-138.52-6.92-20.42,39.14-19.75,186.08-2.96,227.04,19.22,46.91,98,58.65,130.92,26.48Z"/><path class="cls-9" d="M741.02,301.05c-14.88,14.96-91.97-20.24-129.5,16.44-36.84,35.99-34.54,191.96-16.7,238,10.04,25.9,33.79,40.12,60.81,42.97,26.47,2.79,64.13-9.8,83.33-5.11,9.67,2.37,12.2,32.81-2.99,41.16-28.22,15.51-108.8,11.03-138.35-2.83-80.35-37.66-80.78-181.78-66.86-256.55,16.04-86.17,64.64-129.1,154.53-122.13,19.29,1.5,87.68,15.92,55.73,48.04Z"/><path class="cls-1" d="M252.36,771.23c-.69-.71-.99-19.75,0-19.75h1432.6c8.52,0,8.53,19.75,0,19.75H252.36Z"/><path class="cls-8" d="M910.51,951.41c-4.78,15.69-56.66,18.6-68.77-.51-6.66-10.5-15.53-86.57,9.36-85.85,3.18,36.09-16.26,93.75,39.61,83.89v-76.51c0-8.5,19.79-8.51,19.79,0,0,17.28,3.57,67.26,0,78.98Z"/><path class="cls-2" d="M1320.66,913.85c-4.11,4.86-44.59,6.21-53.88,5.45-7.98,36.77,21.85,29.1,49.49,29.67,15.32,13.23-47,27.46-63.27-3.53-21.4-40.77,7.82-104.51,56.18-75.77,11.52,6.84,17.62,36.94,11.49,44.19ZM1306.41,904.49c6.61-37.02-38.97-38.37-44.63-7.44-2.74,14.96,35.19,4.53,44.63,7.44Z"/><path class="cls-2" d="M1054.02,956.35c-3.06,9.9-64.72,20.07-64.85-19.75-.13-40.13,47.51-25.79,50.28-34.92,12.11-39.94-40.17-17.75-44.79-21.87-3.18-25.19,59.36-16.31,59.36-2.44,0,17.12,3.54,67.51,0,78.98ZM1043.47,919.98c-64.64-23.71-40.32,57.37-6.31,29.46,8-6.57,8.7-19.91,6.31-29.46Z"/><path class="cls-5" d="M1152.99,958.81h-14.85v-71.58c0-12.17-39.59-12.48-39.59-7.4v78.98h-14.85v-86.39c0-11.82,69.28-11.72,69.28,4.94v81.45Z"/><path class="cls-4" d="M672.99,872.43c3.95-12.79,69.28-12.41,69.28,9.87v76.51h-14.85v-71.58c0-12.17-39.59-12.48-39.59-7.4v78.98h-14.85c4.24-22.27-5.78-67.68,0-86.39Z"/><path class="cls-4" d="M816.47,865.05c1.76,27.06-34.9-2.1-34.79,22.22.07,16.07,52.18,37.08,32.51,66.81-6.24,9.44-55.82,18.67-52.1-5.11,86.8-.42,12.39-30.19,3.56-50.77-14.89-34.69,25.87-35.65,50.82-33.15Z"/><path class="cls-4" d="M1232.13,870.02c-3.79,9.98-19.77,2.99-29.6,12.34-12.29,11.7-13.22,55.71-.24,64.29,10.78,7.13,34.75-5.97,34.78,9.61-17.7,17.95-50.71,3.69-57.12-16.94-12.65-40.77,3.17-88.17,52.18-69.31Z"/><path class="cls-5" d="M950.1,963.75c-22.36,3.14-17.17-81.43-14.15-90.63,4.46-13.61,48.9-8.67,48.84-5.58-2.24,17.51-22.83,11.84-34.69,12.29v83.92Z"/><rect class="cls-2" x="628.45" y="865.02" width="14.85" height="93.79"/></svg>