<?xml version="1.0" encoding="UTF-8"?><svg id="by-miles" xmlns="http://www.w3.org/2000/svg" viewBox="0 0 1920 1080"><defs><style>.cls-1{fill:#eb6853;}.cls-2{fill:#461c60;}.cls-3{fill:#491f62;}.cls-4{fill:#471c60;}.cls-5{fill:#4a2163;}.cls-6{fill:#43185d;}.cls-7{fill:#461c5f;}.cls-8{fill:#4a2063;}.cls-9{fill:#4b2264;}</style></defs><path class="cls-8" d="M1765.4,601.09v26.66c-15.19,32.54-67.71,29.33-70.29-7.93-3.01-43.42,45.72-49.54,70.29-18.72Z"/><path class="cls-7" d="M718.38,339.86c12.53,2.62,50.9-4.06,58.33.72,10.65,6.85,76.79,207.71,94.69,233.9,20.31-25.62,84.04-227.05,94.69-233.9,7.43-4.78,45.8,1.9,58.33-.72v303.87h-53.69v-170.59l-73.42,170.79-54.71-.92-65.16-159.21v159.93h-59.06v-303.87Z"/><path class="cls-1" d="M716.89,698.24l933.32-1.44c39.59-4.65,50.94,43.21,10.73,48.48h-940.12c-30.43-1.06-34.46-41.21-3.93-47.04Z"/><path class="cls-2" d="M307.63,339.86c74.75,12.31,95.07,115.81,29.55,151.91,52.75,26.6,59.9,105.53,9.15,137.08-4.13,2.57-31.51,14.88-33.34,14.88h-158.39v-303.87c46.41,5.39,108.76-7.29,153.03,0ZM208.3,387.84v77.3c0,10.85,128.04,27.8,111.7-46.77-2.18-9.95-19.74-30.54-28.47-30.54h-83.22ZM296.89,515.79c-23.82-5.08-62.73,3.71-88.59,0v79.97h88.59c1.2,0,18.34-13.12,19.09-14.35,11.71-19.37,5.74-60.32-19.09-65.61Z"/><path class="cls-9" d="M1319.74,563.77c-.69,33.9,44.16,44.25,71.4,36.2,25.96-7.67,11.95-41.6,66.78-10.76,4.08,2.29,9.76-1.02,6.25,8.6-29.8,81.63-199.6,73.58-201.42-53.57-2.09-145.87,201.69-155.27,212.17-9.01.5,6.97,1.69,28.54-7.53,28.54h-147.66ZM1416.39,521.12c-5.52-59.41-94.32-58.62-96.65,0h96.65Z"/><path class="cls-3" d="M459.9,436.57c6.2,3.94,41.8,130.83,49.15,137.85,7.95,7.58,9.23-2.01,11.9-6.8,10.64-19.13,41.92-127.29,47.84-131.05,3.25-2.06,42.77-1.72,50.36-.76,6.24.79,10.77-2.16,7.78,7.79-26.12,86.94-77.65,182.95-110.25,269.08-23.44,34.07-66.71,33.65-104.37,32.37,1.43-8.46-1.96-46.08,0-48.03,4.46-4.44,67.48,15.01,74.16-35.85,4.42-33.63-78.29-178.09-84.96-222.6-.05-3.79,54.44-4.51,58.39-2Z"/><path class="cls-3" d="M1658.04,489.1c-13.25-1.82-27.58,7.25-40.06,5.56-6.34-.86-59.41-39.29-62.36-2.77-2.78,34.38,81.47,25.72,101.71,64.56,42.75,82.05-93.34,124.31-146.54,70.86-28.8-28.94-11.93-49.14,26.21-42.22,18.05,3.28,32.84,36.11,63.71,16.4,44.65-28.51-77.63-47.16-92.45-72.96-54.53-94.93,135.54-144.27,149.78-39.43Z"/><rect class="cls-6" x="1174.77" y="334.53" width="53.69" height="309.2"/><rect class="cls-4" x="1072.76" y="435.82" width="53.69" height="207.91"/><path class="cls-5" d="M1087.37,340.95c53.97-12.04,60.09,60.1,18.99,67.39-42.37,7.51-63.4-57.48-18.99-67.39Z"/></svg>