<?xml version="1.0" encoding="utf-8"?>
<!-- Generator: Adobe Illustrator 19.2.1, SVG Export Plug-In . SVG Version: 6.00 Build 0)  -->
<svg version="1.1" id="layer" xmlns="http://www.w3.org/2000/svg" xmlns:xlink="http://www.w3.org/1999/xlink" x="0px" y="0px"
	 viewBox="0 0 652 652" style="enable-background:new 0 0 652 652;" xml:space="preserve">
<style type="text/css">
	.st0{fill:#02ABCA;}
</style>
<path d="M66.5,262.9c11.2,0,24.6,0.9,30.7,1.6h1.1c1.4,0,3-0.3,3-2.8v-2.1c-0.2-2.1-1.9-3.6-4-3.7l-0.8-0.1c-9.9-1.2-20-1.8-30-1.7
	c-16.5,0-44.1,7.2-44.1,55.8v23.4c0,48.5,27.6,55.8,44.1,55.8c10,0.1,20-0.5,30-1.7h0.8c2.1,0,3.8-1.7,4-3.8v-2.1
	c0-2.5-1.6-2.8-3-2.8h-1.1c-6,0.7-19.4,1.6-30.6,1.6c-22.6,0-35-16.7-35-47.1v-23.4C31.5,279.6,43.9,262.9,66.5,262.9 M150.9,290.7
	c-8.4-0.1-16.9,0.5-25.3,1.6c-2,0.3-4.6,0.9-4.6,3.8v1.1c0,2.3,2,3.3,4,3.3l3.3-0.1c7.5-0.9,15-1.4,22.6-1.3
	c16.2,0,21.7,6.3,21.7,25.1v5.6h-13c-31.2,0-44.5,8.3-44.5,28v2.3c0,8.8,2.7,29.2,27.8,29.2c9.1,0,18.8-2.8,29.5-8.6v3.3
	c0,2.3,1.9,4.2,4.2,4.2c0,0,0.1,0,0.1,0h0.9c2.3,0,4.2-1.9,4.2-4.2l0,0v-59.9C181.8,308.4,178.3,290.7,150.9,290.7 M124.3,357.6
	c0-14.8,8.9-19.7,35.3-19.7h13v34.2c-11.8,6.3-20.2,8.8-29.7,8.8c-12.4,0-18.7-7.1-18.7-21L124.3,357.6z M212.1,255h-1.9
	c-2.1,0-3.8,1.7-3.8,3.8c0,0.1,0,0.2,0,0.3v125c-0.1,2.1,1.4,3.9,3.5,4c0.1,0,0.2,0,0.3,0h1.9c2.1,0,3.8-1.7,3.8-3.8
	c0-0.1,0-0.2,0-0.3V259c0.1-2.1-1.4-3.9-3.5-4C212.3,255,212.2,255,212.1,255 M381,383.3l-36.3-120.2c-1.4-5.4-6.4-9.2-12-9
	c-5.7-0.2-10.8,3.6-12.2,9.2l-36.3,120c-0.2,0.6-0.2,1.2-0.2,1.9c-0.2,1.8,1.1,3.3,2.9,3.5c0.1,0,0.3,0,0.4,0h2.4
	c1.6-0.2,2.9-1.3,3.5-2.8l14.4-47.6h50.1l14.7,47.6c0.4,1.6,1.8,2.8,3.5,2.8h2.1c1.7,0.2,3.3-1,3.5-2.7c0-0.2,0-0.4,0-0.6
	c0-0.6-0.2-1.3-0.4-1.9 M332.7,262.5c1.7,0,2.8,1,3.4,3.1l19.1,63.5H310l19.1-63.7C329.7,263.5,330.4,262.5,332.7,262.5
	 M479.6,290.7c-9.9,0.3-19.5,2.7-28.4,7.1c-8.4-9.6-23.5-9.4-43.3,0.1v-2.1c0.2-2.1-1.4-4-3.6-4.2c-0.1,0-0.1,0-0.2,0h-1.6
	c-2.2,0.1-3.8,1.9-3.8,4c0,0.1,0,0.1,0,0.2V384c0,2.4,1.4,4,3.3,4h2.5c1.9,0,3.3-1.7,3.3-4v-77.9c10.1-4.8,18.4-7.2,24.7-7.2
	c10.8,0,16,6.9,16,21V384c0,2.5,1.2,4,3.1,4h2.7c2.1,0,3.3-1.5,3.3-4v-64.2c0.1-5.2-0.7-10.4-2.5-15.3c7.2-3.5,15.1-5.4,23.1-5.6
	c13.9,0,20.1,6.7,20.1,21.7V384c-0.1,2.1,1.4,3.9,3.5,4c0.1,0,0.2,0,0.3,0h1.8c2.1,0,3.7-1.8,3.7-3.8c0-0.1,0-0.1,0-0.2v-63.5
	c0-19-10.2-29.9-28-29.9 M563.4,290.7c-10.1,0.2-20.1,1.3-29.9,3.4c-1.9,0.1-3.3,1.8-3.2,3.7c0,0.1,0,0.2,0,0.3v120.6
	c-0.1,2.1,1.4,3.9,3.5,4c0.1,0,0.1,0,0.2,0h1.8c2.1,0,3.7-1.8,3.7-3.8c0-0.1,0-0.1,0-0.2v-32c7.9,1.6,15.9,2.4,24,2.5
	c23.5,0,35.4-14.5,35.4-43v-11.7C598.8,306.2,586.3,290.7,563.4,290.7 M563.4,380.9c-8-0.1-16.1-0.8-24-2.2v-77.6
	c7.9-1.3,15.9-2.1,24-2.2c18.2,0,26.4,11,26.4,35.5v11.7C589.8,370.2,581.7,380.9,563.4,380.9"/>
<polygon class="st0" points="287.5,219.4 233,422.6 242.5,422.6 297,219.4 "/>
<path d="M613,308.4c-5.2,0-9.4-4.2-9.4-9.4s4.2-9.4,9.4-9.4s9.4,4.2,9.4,9.4S618.2,308.4,613,308.4 M613,291.1
	c-4.3,0-7.8,3.5-7.8,7.8c0,4.3,3.5,7.8,7.8,7.8c4.3,0,7.8-3.5,7.8-7.8C620.8,294.7,617.3,291.1,613,291.1L613,291.1 M617.2,304.6
	h-1.8c-0.2,0-0.3-0.1-0.4-0.3l-2.4-4.1c-0.1-0.1-0.2-0.2-0.3-0.2h-1.1v4c0,0.2-0.2,0.4-0.4,0.5h-1.6c-0.2,0-0.4-0.2-0.4-0.5V294
	c0-0.6,0.2-0.9,0.8-0.9c0.5-0.1,2-0.1,2.9-0.1c2.9,0,4.6,0.9,4.6,3.6v0.2c0.1,1.4-0.8,2.7-2.1,3l2.5,4.3c0,0.1,0,0.2,0,0.3
	C617.5,304.5,617.3,304.7,617.2,304.6C617.1,304.7,617.1,304.7,617.2,304.6 M614.8,296.5c0-1.1-0.6-1.5-2.2-1.5h-1.5v3.3h1.5
	c1.6,0,2.2-0.5,2.2-1.6V296.5z"/>
</svg>
