<?xml version="1.0" encoding="UTF-8"?>
<svg id="Capa_1" data-name="Capa 1" xmlns="http://www.w3.org/2000/svg" viewBox="0 0 1082.43 1089.43">
  <defs>
    <style>

      .cls-1, .cls-2 {
        stroke-width: 0px;
      }

      .cls-2 {
        fill: #000000;
      }
    </style>
  </defs>
  <g>
    <path class="cls-2" d="M198.78,625.23c-14.37,0-27.58.21-40.78-.09-6.94-.16-13.86-1.3-20.8-1.79-4.57-.32-7.82-2.55-9.74-6.45-2.79-5.68-5.91-11.33-7.67-17.36-5.26-18.05-10.17-36.22-14.74-54.45-2.78-11.09-4.72-22.4-6.95-33.63-2.05-10.31,1.97-18.63,8.88-25.87,8.11-8.49,18.46-13.03,29.47-16.33,16.89-5.06,34.26-5.82,51.72-5.62,17.38.2,34.57,1.92,51.22,7.22,11.07,3.52,21.34,8.48,29.03,17.57,6.01,7.11,8.24,14.97,6.48,24.47-4.32,23.22-9.17,46.3-15.85,68.96-3,10.18-6.73,20.14-10.21,30.17-.53,1.53-1.43,2.94-2.23,4.36-2.21,3.89-5.35,6.37-10.01,6.64-12.98.73-25.95,1.5-37.8,2.19ZM187.24,611.07c12.57-.61,25.05-1.3,37.54-1.77,4.33-.16,7.3-2.15,8.95-5.86,2.25-5.03,4.49-10.12,6.06-15.38,7.85-26.35,11.97-53.48,16.37-80.54,1.06-6.5-1.85-11.76-6.73-15.96-5.39-4.63-11.99-6.74-18.73-8.04-29.42-5.7-58.9-5.24-88.32.01-7.09,1.27-13.92,3.59-19.75,8.06-5.85,4.48-8.64,10.39-7.27,17.74,4.25,22.72,8.47,45.44,13.05,68.09,1.78,8.82,4.71,17.36,9.02,25.36,2.11,3.92,4.9,6.13,9.64,6.29,13.41.47,26.81,1.3,40.17,1.99Z"/>
    <path class="cls-2" d="M660.56,555.86c1.12-4.82,2.12-9.17,3.16-13.51,4.33-18.19,8.71-36.37,12.97-54.58.49-2.11,1.36-2.85,3.5-2.82,8.71.11,17.42.14,26.13.05,2.48-.03,3.08.98,3.17,3.27.48,11.65,1.11,23.29,1.7,34.93.06,1.09.17,2.17,1.01,3.51.52-.87,1.09-1.72,1.56-2.62,6.3-12.04,12.63-24.07,18.82-36.17,1.09-2.13,2.38-2.94,4.76-2.9,8.4.13,16.8.05,25.21.08.99,0,1.97.15,3.32.26-1.26,5.4-2.42,10.45-3.61,15.5-3.95,16.71-7.94,33.4-11.84,50.12-1.13,4.86-1.03,4.88-6.13,4.89-4.68,0-9.37,0-14.78,0,4.07-17.22,8.02-33.92,11.97-50.62-.26-.13-.51-.27-.77-.4-.51.74-1.1,1.43-1.5,2.22-7.92,15.23-15.85,30.45-23.66,45.73-1.19,2.32-2.62,3.29-5.25,3.14-3.57-.21-7.18-.2-10.75,0-2.79.16-3.73-.8-3.84-3.61-.58-14.72-1.33-29.42-2.04-44.13-.05-1.09-.21-2.17-.32-3.25-.26-.03-.52-.07-.79-.1-.75,2.98-1.54,5.96-2.24,8.95-3.13,13.23-6.2,26.46-9.4,39.67-.22.9-1.23,2.26-1.9,2.28-6,.18-12.01.1-18.45.1Z"/>
    <path class="cls-2" d="M835.91,517.94c.91.6,1.34,1.06,1.87,1.22,10.43,3.22,11.72,11.34,8.23,19.83-3.46,8.4-10.18,13.42-19.19,15.07-15.34,2.8-30.85,1.5-46.3,1.78-3.35.06-6.71,0-10.81,0,1.26-5.14,2.31-9.77,3.65-14.31.15-.51,1.96-.76,3.01-.76,11.06-.04,22.13.04,33.19-.03,2.44-.02,4.92-.27,7.3-.81,3.73-.84,5.97-3.42,6.93-7.06.7-2.65-1.07-5.72-4.22-6.06-5.58-.6-11.22-.66-16.84-.65-.77,0-1.51,1.76-2.32,2.65-.79.86-1.65,2.35-2.51,2.37-6.96.18-13.93.08-20.89.04-.27,0-.54-.24-1.19-.56.81-3.69,1.62-7.45,2.48-11.2.64-2.79,1.17-5.62,2.08-8.32.34-.99,1.61-2.35,2.49-2.37,6.96-.18,13.93-.07,20.9-.04.27,0,.55.23.99.43-1.03,3.59.99,4.07,3.92,3.86,3.37-.24,6.76-.13,10.12-.38,1.39-.11,2.82-.6,4.08-1.23,2.98-1.49,4.93-5.37,4.3-8.16-.54-2.4-3-3.98-6.89-4.01-10.96-.08-21.92-.02-32.89-.02-1.21,0-2.41,0-4.23,0,1.15-4.69,2.12-8.91,3.31-13.07.15-.52,1.48-.99,2.26-.99,15.67.01,31.35.04,47.02.23,2.3.03,4.67.67,6.88,1.43,7.64,2.63,10.91,9.6,8.28,17.21-1.99,5.76-5.94,9.67-11.38,12.21-1.08.5-2.15,1.01-3.6,1.7Z"/>
    <path class="cls-2" d="M606.63,483.87c-1.67,7.16-3.19,13.71-4.74,20.26-1.81,7.66-3.72,15.29-5.46,22.97-1.59,7.02,1.58,11.35,8.72,12.14,9.49,1.05,16.56-4.12,18.68-13.39,3.03-13.25,6.19-26.46,9.4-39.67.21-.87,1.31-2.16,2.01-2.18,7.34-.16,14.69-.1,22.55-.1-.51,2.47-.87,4.43-1.33,6.37-2.94,12.43-5.54,24.95-8.97,37.25-4.39,15.76-15.4,24.66-31.33,27.47-9.57,1.69-19.21,1.17-28.71-.77-9.49-1.94-16.13-9.54-15.7-19.13.3-6.77,1.81-13.52,3.24-20.18,2.05-9.59,4.49-19.1,6.87-28.61.22-.89,1.15-2.29,1.78-2.3,7.45-.16,14.9-.1,22.97-.1Z"/>
    <path class="cls-2" d="M381.74,531.42c-6.78,12.95-16.51,21.06-30.36,23.58-8.84,1.61-17.75,1.48-26.53-.7-11.16-2.77-18.6-11.78-18.58-23.29.05-25.06,15.8-47.94,47.87-48.49,6.37-.11,12.7.11,18.78,2.37,7.95,2.96,12.17,8.93,13.94,16.96.44,2.02-.14,3.02-2.28,3.38-5.65.97-11.28,2.06-16.9,3.19-1.99.4-3.05.26-3.67-2.17-1.14-4.46-4.59-6.68-9.04-7.08-8.52-.75-15.01,2.74-19.13,10.14-3.38,6.08-4.84,12.8-4.88,19.74-.03,5.81,3.01,9.18,8.71,9.98,8.82,1.23,15.48-2.15,19.71-9.87,1.62-2.96,3.21-3.72,6.47-2.53,5.05,1.84,10.3,3.13,15.89,4.77Z"/>
    <path class="cls-2" d="M950.88,504.02c-.6.72-1.3,1.37-1.75,2.16-8.86,15.41-17.73,30.81-26.47,46.29-1.38,2.44-2.98,3.44-5.83,3.32-5.52-.22-11.06-.05-16.59-.06-.99,0-1.98-.1-3.59-.18,2.01-3.14,3.71-5.85,5.47-8.53,12.96-19.73,25.96-39.45,38.86-59.22,1.21-1.86,2.54-2.6,4.74-2.56,6.55.12,13.11.15,19.66.01,2.32-.05,3.53.51,3.94,2.98,1.4,8.35,2.97,16.67,4.51,24.99,2.32,12.54,4.62,25.08,7.01,37.61.81,4.25.47,4.81-3.89,4.82-5.33.01-10.66-.14-15.98.08-2.88.12-4.52-.58-4.52-3.73,0-1.42-.36-2.83-.44-4.26-.23-3.89-.35-4.03-4.4-4.04-3.74-.01-7.48,0-12.04,0,3.01-5.06,5.49-9.49,8.29-13.7.51-.77,2.34-.83,3.58-.92,1.49-.11,2.76-.31,2.57-2.18-.76-7.41-1.56-14.81-2.37-22.21-.02-.14-.28-.26-.78-.68Z"/>
    <path class="cls-2" d="M531.76,485.15c-3.29,13.91-6.44,27.23-9.59,40.55-.75,3.18-1.44,6.38-2.32,9.53-.68,2.42-.06,3.31,2.56,3.29,10.25-.09,20.49-.03,30.74,0,1.2,0,2.39.13,4.03.23-1.32,5.47-2.45,10.63-3.91,15.69-.22.75-2.01,1.47-3.09,1.48-10.86.12-21.72.08-32.59.09-7.69,0-15.37.01-23.06,0-1.1,0-2.2-.11-3.91-.2.99-4.39,1.88-8.42,2.83-12.45,4.32-18.3,8.71-36.58,12.96-54.9.6-2.59,1.57-3.76,4.46-3.64,5.73.24,11.47.06,17.21.09,1.08,0,2.16.14,3.67.25Z"/>
    <path class="cls-2" d="M459.36,550.3c-1.03-6.1-1.85-11.63-2.94-17.11-.76-3.81-.68-7.4.95-11,.75-1.65,1.08-3.52,1.41-5.32.99-5.33,1.84-10.86-3.07-14.75-5.17-4.1-11.06-3.59-16.91-1.37-1.21.46-2.36,1.09-4.01,1.86-.7-4.12-1.41-7.9-1.98-11.7-.9-6.01-.9-6.21,5.17-7.22,10.83-1.8,21.67-2.13,32.04,2.27,8.32,3.53,13.53,9.91,13.93,18.98.76,17.54-5.12,32.29-19.99,42.68-1.24.87-2.62,1.54-4.6,2.69Z"/>
    <path class="cls-2" d="M899.23,485.2c-2.48,10.54-4.8,20.47-7.15,30.39-2.94,12.42-5.95,24.83-8.79,37.27-.48,2.1-1.3,2.94-3.45,2.91-6.15-.09-12.3-.06-18.44,0-2.09.02-2.68-.63-2.17-2.76,5.09-21.25,10.14-42.52,15.1-63.8.67-2.86,1.69-4.29,5.04-4.12,6.42.32,12.87.09,19.86.09Z"/>
    <path class="cls-2" d="M422.46,489.37c1.11,6.65,1.97,12.7,3.18,18.68.89,4.41.72,8.63-.58,12.93-.61,2.01-.64,4.24-.66,6.38-.08,7.47,3.79,11.72,11.34,11.88,3.6.08,7.22-.8,11.44-1.32.76,4.74,1.64,9.82,2.31,14.93.06.44-1.13,1.39-1.85,1.54-11.75,2.43-23.49,2.69-34.66-2.24-8.91-3.93-13.45-11.55-13.45-21.01,0-16.45,6.08-30.27,19.95-40.02.73-.51,1.54-.91,2.99-1.76Z"/>
    <path class="cls-2" d="M226.77,536.76c-1.54-4.99-5.08-4.51-8.63-4.49-20.7.15-41.4.2-62.11.22-1.48,0-3.11-.25-4.41-.89-9.73-4.82-19.34-9.85-29.1-14.61-2.79-1.36-4.09-3.05-4.43-6.21-.8-7.44-1.12-6.4,5.73-6.41,24.29-.04,48.58-.07,72.87-.08,8.09,0,11.37,2.28,14.64,9.66.42.94,2.06,1.75,3.22,1.87,4.57.47,9.2.43,13.75,1.01,3.33.42,4.85,2.41,4.88,5.69.05,5.44-2.96,9.52-6.41,14.26Z"/>
    <path class="cls-2" d="M120.34,525.18c5.47,2.68,10.13,4.95,14.77,7.24,33.1,16.38,66.19,32.8,99.34,49.08,2.87,1.41,3.83,2.75,2.42,5.81-1.49,3.24-2.6,6.66-3.75,10.05-.74,2.19-1.73,2.45-3.84,1.42-25.3-12.34-50.65-24.58-75.99-36.85-8.47-4.1-16.91-8.29-25.42-12.31-2.22-1.05-3.49-2.34-3.89-4.91-.97-6.23-2.28-12.42-3.64-19.54Z"/>
    <path class="cls-2" d="M223.87,606.47c-.97.09-1.94.24-2.91.28-9.11.34-18.22.72-27.34.95-1.36.03-2.85-.4-4.09-1.01-18.5-9.01-36.98-18.07-55.43-27.18-1.1-.55-2.51-1.49-2.79-2.52-1.67-6.07-3.05-12.22-4.53-18.35.22-.19.44-.38.65-.57,32.19,15.84,64.38,31.68,96.57,47.52-.05.29-.09.59-.14.88Z"/>
    <path class="cls-2" d="M172.28,607.93c-9.26-.64-18.53-1.21-27.78-2.02-1.2-.11-2.79-1.2-3.35-2.28-2.42-4.65-4.53-9.47-6.75-14.22.29-.25.58-.49.87-.74,12.44,6.12,24.87,12.25,37.31,18.37-.1.3-.2.6-.3.9Z"/>
    <g>
      <path class="cls-2" d="M828.06,588.7c-.4,0-.7.15-.91.46s-.31,1.21-.31,2.71v13.62c0,1.69.07,2.74.21,3.13.14.4.46.59.96.59s.85-.23.99-.69c.14-.46.22-1.54.22-3.26v-13.41c0-1.36-.08-2.22-.23-2.6s-.46-.57-.93-.57Z"/>
      <path class="cls-2" d="M872.82,589.37v6.49c.85,0,1.45-.12,1.79-.35.34-.23.51-.99.51-2.28v-1.6c0-.92-.17-1.53-.5-1.82s-.93-.43-1.81-.43Z"/>
      <path class="cls-2" d="M648.23,588.45c-.4,0-.7.15-.91.46-.21.31-.31,1.21-.31,2.71v13.62c0,1.69.07,2.74.21,3.13s.46.59.96.59.85-.23.99-.69c.14-.45.22-1.54.22-3.26v-13.41c0-1.36-.08-2.23-.23-2.6-.15-.38-.46-.57-.93-.57Z"/>
      <path class="cls-2" d="M693,589.11v6.49c.85,0,1.45-.12,1.79-.35.34-.23.51-.99.51-2.28v-1.6c0-.93-.17-1.53-.5-1.82s-.93-.43-1.81-.43Z"/>
      <path class="cls-2" d="M977.48,577.58H316.74c-4.08,0-7.39,3.31-7.39,7.39v28.75c0,4.08,3.31,7.39,7.39,7.39h660.74c4.08,0,7.39-3.31,7.39-7.39v-28.75c0-4.08-3.31-7.39-7.39-7.39ZM374.27,606.77c0,1.97-.22,3.43-.68,4.38s-1.17,1.6-2.15,1.95c-.98.35-3,.52-6.05.52h-8.78v-29.17h7.57c2.39,0,4.2.19,5.43.56,1.23.37,2.22,1.13,2.98,2.26.76,1.13,1.13,2.96,1.13,5.48,0,1.7-.27,2.89-.8,3.57-.53.67-1.59,1.19-3.16,1.55,1.75.4,2.94,1.05,3.57,1.97.63.92.94,2.33.94,4.23v2.7ZM419.85,603.94c0,2.21-.07,3.76-.22,4.66s-.57,1.81-1.28,2.76c-.71.94-1.64,1.66-2.8,2.14-1.16.49-2.53.73-4.1.73-1.74,0-3.28-.29-4.61-.87-1.33-.58-2.33-1.33-2.99-2.25-.66-.92-1.05-1.9-1.17-2.93-.12-1.03-.18-3.19-.18-6.48v-17.26h7.59v21.87c0,1.27.07,2.09.21,2.44s.42.53.84.53c.48,0,.79-.19.93-.59s.21-1.31.21-2.77v-21.5h7.59v19.5ZM455.98,613.62h-7.59v-29.17h7.59v29.17ZM496.84,613.62h-12.2v-29.17h7.59v23.33h4.61v5.84ZM536.92,590.28h-4.5v23.33h-7.59v-23.33h-4.49v-5.84h16.58v5.84ZM612.19,589.96h-5.26v5.53h4.69v5.55h-4.69v12.25h-7.59v-29.17h12.85v5.84ZM656.97,601.21c0,2.93-.07,5-.21,6.22-.14,1.22-.57,2.33-1.3,3.34-.73,1.01-1.71,1.78-2.95,2.32s-2.68.81-4.32.81-2.96-.25-4.21-.76c-1.24-.51-2.24-1.28-3-2.3-.76-1.02-1.21-2.13-1.35-3.33s-.22-3.3-.22-6.31v-4.99c0-2.93.07-5,.21-6.23.14-1.22.57-2.33,1.3-3.34.73-1.01,1.71-1.78,2.95-2.32,1.24-.54,2.68-.81,4.32-.81s2.96.25,4.21.76c1.24.51,2.24,1.28,3,2.3.76,1.02,1.21,2.13,1.35,3.33s.22,3.3.22,6.31v4.99ZM701.2,599.56c.52.63.84,1.2.96,1.72.13.52.19,1.96.19,4.32v7.69h-7.04v-9.69c0-1.56-.12-2.53-.37-2.9s-.89-.56-1.94-.56v13.15h-7.59v-29.17h5.37c3.58,0,6,.14,7.27.41,1.27.28,2.3.98,3.1,2.12.8,1.13,1.2,2.94,1.2,5.43,0,2.27-.28,3.8-.85,4.58-.56.78-1.68,1.25-3.33,1.4,1.5.37,2.51.87,3.03,1.5ZM788.98,613.55h-9.47c-.87-4.48-1.63-9.58-2.3-15.3-.3,2.45-1.01,7.55-2.12,15.3h-9.42l-3.4-29.17h7.37l.8,10.18.78,9.84c.28-5.09.98-11.76,2.1-20.02h7.88c.1.85.38,4.06.83,9.62l.84,11.1c.43-7.06,1.14-13.97,2.12-20.72h7.37l-3.38,29.17ZM836.8,601.46c0,2.93-.07,5.01-.21,6.22-.14,1.22-.57,2.33-1.3,3.34-.73,1.01-1.71,1.78-2.95,2.32s-2.68.81-4.32.81-2.96-.26-4.21-.77c-1.24-.51-2.24-1.28-3-2.3-.76-1.02-1.21-2.13-1.35-3.33-.14-1.2-.22-3.3-.22-6.31v-4.99c0-2.93.07-5.01.21-6.23.14-1.22.57-2.33,1.3-3.34.73-1.01,1.71-1.78,2.95-2.32,1.24-.54,2.68-.81,4.32-.81s2.96.26,4.21.77c1.24.51,2.24,1.28,3,2.3.76,1.02,1.21,2.13,1.35,3.33.14,1.2.22,3.3.22,6.31v4.99ZM881.02,599.82c.52.63.84,1.2.96,1.72s.19,1.96.19,4.32v7.69h-7.04v-9.69c0-1.56-.12-2.53-.37-2.9s-.89-.56-1.94-.56v13.15h-7.59v-29.17h5.37c3.58,0,6,.14,7.27.41,1.27.28,2.3.98,3.1,2.12.8,1.14,1.2,2.95,1.2,5.43,0,2.27-.28,3.8-.85,4.58-.56.78-1.68,1.25-3.33,1.41,1.5.37,2.51.87,3.03,1.5ZM921.38,613.55l-3.07-12.51v12.51h-7.59v-29.17h7.59v11.33l3.38-11.33h7.12l-4.35,13.17,4.77,16h-7.84Z"/>
      <path class="cls-2" d="M364.2,600.46v8.16c1.07-.04,1.75-.2,2.04-.5s.44-1.04.44-2.22v-2.72c0-1.25-.13-2.01-.4-2.27-.26-.26-.96-.41-2.09-.45Z"/>
      <path class="cls-2" d="M365.77,589.6c-.27-.1-.8-.15-1.58-.16v6.49c.32-.01.58-.02.76-.02.75,0,1.22-.18,1.42-.55s.31-1.41.31-3.14c0-.91-.09-1.55-.25-1.92-.17-.37-.39-.6-.66-.69Z"/>
    </g>
  </g>
</svg>