<?xml version="1.0" encoding="UTF-8"?><svg id="concirrus" xmlns="http://www.w3.org/2000/svg" viewBox="0 0 1920 1080"><defs><style>.cls-1{fill:#4ed5f9;}.cls-2{fill:#3bd1f9;}.cls-3{fill:#46d3f9;}.cls-4{fill:#42d2f9;}.cls-5{fill:#43d3f9;}.cls-6{fill:#44d3f9;}.cls-7{fill:#41d2f9;}.cls-8{fill:#4ad4f9;}.cls-9{fill:#45d3f9;}</style></defs><path class="cls-6" d="M1684.52,408.32c25.8,17.86,50.41,29.8,58,62.59,1.89,8.17.07,28.66,1.68,30.38,1.78,1.9,38.64,4.62,51.44,10.68,91.92,43.53,38.01,191.51-72.81,153.05-13.81-4.79-53.26-27.18-38.7-44.26,19.42-22.77,37.18,12.49,62.59,15.2,84.1,8.98,77.39-103.89,6.84-99.22-52.03,3.44-111.11,118.99-169.62,131.21-107.49,22.45-160.7-121.09-40.74-162.39,7.9-2.72,27.28-3.21,28.25-4.24,1.65-1.74-.61-21.99,1.59-30.48,8.33-32.16,35.3-49.73,63.98-62.54h47.5ZM1641.23,444.57c-47.74,10.77-42.37,78.46-4.33,100.71-30.72,44.22-36.33-7.3-74.72-8.5-83.65-2.62-60.07,137.53,29.56,92.27,7.78-3.93,110.16-102.96,113.45-110.1,21-45.5-13.42-85.78-63.95-74.38Z"/><path class="cls-3" d="M175.08,450.48c34.79-3.71,78.67,10.06,101.91,37.16-16.96,43.71-44.46,2.96-69.3-2.21-117.12-24.34-129.49,170.14.98,149.77,17.47-2.73,62.25-41.84,68.32-7.65,2.9,16.32-52.87,40.44-68.46,42.48-161.68,21.1-174.46-204.52-33.45-219.55Z"/><path class="cls-9" d="M370.83,502.99c90.08-5,126.7,127.62,38.82,160.53-132.22,49.51-170.37-153.23-38.82-160.53ZM358.73,537.79c-55.27,12.44-39.41,104.74,15.64,101.92,76.29-3.91,61.73-119.33-15.64-101.92Z"/><path class="cls-5" d="M1132.32,507.4v96.16c0,50.57,77.19,35.27,77.19,11.66v-107.82h35.63v157.35c-14.22,3.81-31.85-5.3-43.79-4.11-17.54,1.75-22.22,13.71-52.76,8.58-14.96-2.51-45.96-22.27-45.96-36.52v-125.3h29.69Z"/><path class="cls-4" d="M621.69,664.75h-29.69v-90.33c0-54.22-77.19-40.01-77.19-17.48v107.82h-35.63v-157.35c32.78,10.02,79.75-7.14,108.63,1.23,8.12,2.35,33.87,30.8,33.87,36.65v119.47Z"/><path class="cls-9" d="M1386.78,519.78c4.38,7.06.82,25.51-8.62,28.19-8.08,2.3-56.93-22.18-67.73-11.41-2.44,2.44-.69,20.9,5.89,26.26,25.4,20.72,82.27,2.09,77.6,63.95-5.01,66.35-125.26,44.1-125.25,11.79,0-36.46,82.44,24.85,89.64-6.46,10.27-44.66-86.08-17.22-84.06-81.1,1.87-59.14,101.45-49.08,112.53-31.23Z"/><path class="cls-3" d="M688.9,550.03c-30.37,32.61-6.11,94.95,41.26,90.21,16.7-1.67,57.28-39.62,63.33-6.79,5.47,29.65-106.97,69.96-143.18-11.33-41.27-92.66,83.3-164.07,143.25-83.36-27.61,39.47-63.77-32.64-104.66,11.26Z"/><path class="cls-8" d="M871.07,507.4c8.3,1.57,31.43-2.81,35.3.61,3.24,2.87-5.68,21.73,9.14,16.81,12.31-4.09,56.97-47,57.03-2.86.04,27.43-18.75,16.1-35.93,23.54-45.52,19.72-24.11,119.59-29.92,125.1-3.11,2.95-35.62-.27-35.62-8.77v-154.44Z"/><path class="cls-7" d="M989.82,507.4c23.34.12,29.84-7.19,32.72,17.55,21.21-11.71,35.85-22.19,62.31-17.55,5.74,43.46-12.18,28.06-35.42,38.1-37.19,16.08-29.72,86.61-29.89,119.28l-29.72-.03v-157.35Z"/><rect class="cls-2" x="817.63" y="507.4" width="29.69" height="157.35"/><path class="cls-1" d="M853.28,466.63c15.34,15.46-23.78,45.38-38.98,23.63-22.36-31.99,36.68-25.94,38.98-23.63Z"/></svg>