<?xml version="1.0" encoding="UTF-8"?><svg id="ingenie" xmlns="http://www.w3.org/2000/svg" viewBox="0 0 1920 1080"><defs><style>.cls-1{fill:#17416d;}.cls-2{fill:#c1ccd8;}.cls-3{fill:#133e6a;}.cls-4{fill:#083563;}.cls-5{fill:#073463;}.cls-6{fill:#0c3866;}.cls-7{fill:#fcfdfd;}</style></defs><path class="cls-7" d="M1448.63,349.42c27.98-26.29-5.21-77.69-42.89-55.34-46.61,27.65,7.6,88.5,42.89,55.34ZM547.13,683.81v-207.51c0-5.25-14.02-41.87-18.32-48.42-33.15-50.58-140.14-44.95-175.17,4.84-7.84-6.55-5.26-28.46-12.57-33.57-7.82-5.47-46.74-3.8-46.74,5.42v279.25h61.91v-176.77c0-6.46,14.78-40.23,20.52-46.23,31.44-32.92,108.45-20.93,108.45,30.86v192.14h61.91ZM887.62,555.71h172.82c15.27,0,13.75-43.57,13.05-54.01-9.17-137.2-207.95-148.11-245.3-17.82-40.41,140.97,62.06,238.3,202.9,196.39,36.86-10.97,26.04-24.38,26.74-57.94-70.71,21.96-173.92,37.17-170.22-66.62ZM1351.92,683.81v-212.64c0-7.93-14.5-38.16-20.67-46.08-38.69-49.69-134.79-39.99-172.82,7.63-6.64-8.89-3.86-30.99-16.14-35.12-8.23-2.77-43.16-2.32-43.16,6.96v279.25h61.91v-171.65c0-7.88,12.15-41.09,18.46-48.27,20.02-22.8,67.89-29.07,91.76-9.96,6.41,5.13,18.75,26.88,18.75,32.62v197.27h61.91ZM1542.8,555.71h177.98c22.66,0,10.46-70.94,5.01-86.96-33.42-98.2-181.51-102.32-227.03-10.59-57.49,115.84,7.79,239.86,144.58,230.66,46.66-3.14,88.22-10.29,74.84-66.49-75,22.43-168.45,37.62-175.38-66.62ZM1455.1,683.81v-279.25c0-11.39-61.91-11.39-61.91,0v279.25h61.91Z"/><path class="cls-5" d="M619.36,791.41c-7.32-11.89-60.14-67.89-51.61-76.83,32.61-5.81,70.65-9.48,102.05-19.11,98.32-30.14-19.28-51.96-50.35-65.56-50.4-22.06-46.46-30.02-5.26-63.89-55.33-22.86-55.6-117.53-9.97-150.89,42.49-31.06,75.27-19.7,120.68-18.06,15.52.56,76.86-4.51,83.07,4.57,12.63,18.45-.45,40.28-23.54,36.26,31.72,75.22-6.71,144.29-90.47,148.64-10.73.56-88.37-15.03-69.1,14.87,17.96,27.86,371.66,32.89,115.84,159.36l-100.72,30.63h-20.64ZM631.42,449.85c-63.87,63.5,55.53,145.93,108.85,74.8,49.91-66.59-57.39-125.96-108.85-74.8Z"/><path class="cls-4" d="M186.01,335.39v-25.62c18.06-31.55,67.75-26.5,67.64,12.83-.11,40.76-50.08,46.04-67.64,12.79Z"/><rect class="cls-2" x="186.01" y="407.12" width="5.16" height="276.69"/><path class="cls-5" d="M887.62,555.71c-3.7,103.8,99.51,88.59,170.22,66.62-.7,33.56,10.12,46.97-26.74,57.94-140.84,41.91-243.3-55.43-202.9-196.39,37.35-130.29,236.13-119.38,245.3,17.82.7,10.44,2.21,54.01-13.05,54.01h-172.82ZM1011.43,509.6c7.41-96.85-126.15-92.21-123.81,0h123.81Z"/><path class="cls-4" d="M1542.8,555.71c6.93,104.24,100.37,89.06,175.38,66.62,13.38,56.2-28.18,63.35-74.84,66.49-136.79,9.2-202.07-114.82-144.58-230.66,45.53-91.73,193.61-87.61,227.03,10.59,5.45,16.02,17.65,86.96-5.01,86.96h-177.98ZM1671.77,509.6c8.15-96.77-127.9-92.09-123.81,0h123.81Z"/><path class="cls-4" d="M1351.92,683.81h-61.91v-197.27c0-5.74-12.34-27.48-18.75-32.62-23.87-19.11-71.74-12.84-91.76,9.96-6.31,7.18-18.46,40.4-18.46,48.27v171.65h-61.91v-279.25c0-9.28,34.93-9.73,43.16-6.96,12.28,4.13,9.5,26.23,16.14,35.12,38.02-47.62,134.13-57.32,172.82-7.63,6.17,7.92,20.67,38.15,20.67,46.08v212.64Z"/><path class="cls-5" d="M547.13,683.81h-61.91v-192.14c0-51.79-77.01-63.78-108.45-30.86-5.73,6-20.52,39.77-20.52,46.23v176.77h-61.91v-279.25c0-9.22,38.92-10.89,46.74-5.42,7.31,5.12,4.73,27.02,12.57,33.57,35.02-49.79,142.01-55.42,175.17-4.84,4.29,6.55,18.32,43.17,18.32,48.42v207.51Z"/><path class="cls-6" d="M191.17,407.12c-6.01-18.98,61.91-11.39,61.91-2.56v279.25h-61.91v-276.69Z"/><path class="cls-4" d="M1455.1,683.81h-61.91v-279.25c0-11.39,61.91-11.39,61.91,0v279.25Z"/><path class="cls-4" d="M1448.63,349.42c-35.29,33.16-89.5-27.69-42.89-55.34,37.68-22.35,70.87,29.05,42.89,55.34Z"/><path class="cls-1" d="M670.92,478.83c-3.35,3.32-28.6-.14-25.74-12.71,4.47-19.65,37.54,1.01,25.74,12.71Z"/><path class="cls-3" d="M717.35,458.38c10.7,10.64-9.72,31.13-20.58,20.44-8.35-8.21,12.24-28.75,20.58-20.44Z"/></svg>