<?xml version="1.0" encoding="UTF-8"?><svg id="ingenie" xmlns="http://www.w3.org/2000/svg" viewBox="0 0 1920 1080"><defs><style>.cls-1{fill:#f8fdfa;}.cls-2{fill:#f9fdfa;}.cls-3{fill:#01dd3b;}.cls-4{fill:#f1fcf4;}.cls-5{fill:#fefefe;}.cls-6{fill:#00dd3b;}</style></defs><path class="cls-6" d="M526.82,647.1c-80.47-79.26-46.38-220.02,63.66-250.68,53.59-14.93,296.38-13.81,357.44-5.5,163.45,22.24,181.47,246.14,27.5,290.95-57.18,16.64-277.81,15.18-343.8,8.73-35.19-3.44-79.6-18.68-104.8-43.5Z"/><path class="cls-3" d="M1126.07,683.81v-284.38c0-.73,9.64-10.28,10.37-10.28h172.91c33.64,0,73.13,48.66,76.77,82.14,3.52,32.37-17.07,45.25-18.08,65.83-.79,16.03,19.57,37.25,19.54,61.06-.13,121.01-181.9,95.61-261.52,85.64Z"/><path class="cls-3" d="M233.86,389.15c95.67-14.54,65.26,33.59,69.23,102.79,31.93-15.38,77.62-87.47,103.81-99.24,13.71-6.16,79.54-8.57,82.84,6.84,2.82,13.2-116.26,116.99-131.25,136.94,17,23.27,131.42,119.4,131.59,137.03.11,12-7.35,15.23-17.6,17.09-86.16,15.63-109.45-61.84-169.37-102.73-3.94,24.05,8.09,75.16-6.32,93.17-13.18,16.48-62.92,11.59-62.92-.66v-291.23Z"/><path class="cls-3" d="M1686.14,683.58c-68.66,21.41-73.75,2.31-94.32-54.89-23,4.45-96.98-8.17-109.68,7.04-21.27,25.47-3.74,80.45-83.42,48.45l107.66-291.68c21.31-4.23,62.14-11.09,75.58,7.53l104.17,283.57Z"/><path class="cls-5" d="M619.38,452.47c46.82-7.8,291.11-8.57,334.27,1.3,96.95,22.17,85.05,160.04-11.3,174.78-49.22,7.53-281.8,7.12-328.47-2.6-94.31-19.65-92.05-157.22,5.5-173.48Z"/><path class="cls-2" d="M1195.24,512.5v-61.67h107.2c24.44,0,28.94,61.67,6.92,61.67h-114.12Z"/><path class="cls-1" d="M1195.24,628.99v-61.67h114.12c22.02,0,17.53,61.67-6.92,61.67h-107.2Z"/><path class="cls-4" d="M1575.61,567.28h-69.11s27.71-109.6,27.71-109.6c25.8,25.69,27.04,75.45,41.4,109.6Z"/></svg>