<?xml version="1.0" encoding="UTF-8"?>
<svg id="Layer_1" xmlns="http://www.w3.org/2000/svg" version="1.1" viewBox="0 0 360 94">
  <!-- Generator: Adobe Illustrator 29.0.1, SVG Export Plug-In . SVG Version: 2.1.0 Build 192)  -->
  <defs>
    <style>
      .st0 {
        fill: #fc5336;
      }

      .st1 {
        fill: #333e48;
      }
    </style>
  </defs>
  <g id="_3c_rgb_tag">
    <g>
      <g id="logo_mark">
        <path class="st0" d="M51.7,47.5c0,10.3-8.3,18.6-18.6,18.6s-18.6-8.3-18.6-18.6c0-10.3,8.3-18.6,18.6-18.6h0c10.3,0,18.6,8.3,18.6,18.6ZM33,36.6c-6,0-10.8,4.9-10.8,10.8s4.9,10.8,10.8,10.8,10.8-4.9,10.8-10.8h0c0-6-4.9-10.8-10.8-10.8Z"/>
        <g>
          <path class="st1" d="M67,13.4h-23.7l-7.6,7.6h23.4s0,0,0,0v26c0,12.4-5.2,25.7-19.7,26l-7.6,7.6h7.5c8.9,0,16.2-3.6,21.1-10.5,4.1-5.8,6.4-13.7,6.5-22.5h0V13.4s0,0,0,0c0,0,0,0,0,0Z"/>
          <path class="st1" d="M7.9,73v-26c0-12.4,5.2-25.7,19.7-26l7.6-7.6h-7.5c-8.9,0-16.2,3.6-21.1,10.5C2.4,29.7,0,37.6,0,46.4H0v34.3s0,0,0,0h23.7l7.6-7.6H7.9s0,0,0,0Z"/>
        </g>
      </g>
      <g id="wordmark">
        <g>
          <path class="st1" d="M90.1,14.8h14.2v52.1h25.4v12.4h-39.6V14.8Z"/>
          <path class="st1" d="M154.7,34.5c-13.3,0-23.2,10-23.2,22.9s9.9,22.9,23.2,22.9,23.2-10,23.2-22.9-9.9-22.9-23.2-22.9ZM154.6,68.7c-6.3,0-11.3-5.2-11.2-11.5s5.2-11.3,11.5-11.2c6.2,0,11.2,5.1,11.2,11.3,0,6.2-4.8,11.2-11,11.3-.2,0-.3,0-.5,0Z"/>
        </g>
        <g>
          <path class="st1" d="M327.2,79.3h-14.2V14.8h14.2v64.5Z"/>
          <polygon class="st1" points="343.6 35.4 328.2 56.7 344.5 79.2 360 79.2 343.7 56.7 359.1 35.4 343.6 35.4"/>
        </g>
        <g>
          <path class="st1" d="M195.4,40.5v17.9c0,6.8-1.2,9.2-6.6,9.2-2.8-.1-5.6-.7-8.2-1.7v12.7c3,1.1,6.3,1.7,9.5,1.7,5.8,0,11.6-1.5,15.1-5.9,2.7-3.3,4.3-8,4.3-16.3V26l-14.2,14.5Z"/>
          <polygon class="st0" points="195.4 14.8 195.4 29.3 209.5 14.8 195.4 14.8"/>
        </g>
        <path class="st1" d="M250.9,36h12.1v42.9h-12.1v-5.5c-2.9,4.4-7.9,7-13.2,6.9-13.2,0-21.9-10.3-21.9-22.9s8.6-22.8,21.3-22.8,9.7.6,13.8,6.9v-5.5ZM228.3,57.4c0,6.8,4.9,12.2,11.9,12.2s11.9-5.3,11.9-12.2-4.9-12.1-11.9-12.1-11.9,5.2-11.9,12.1Z"/>
        <path class="st1" d="M307.4,76.8c-4.4,2.3-9.3,3.5-14.3,3.4-14.1,0-24.4-9.6-24.4-22.8s11.4-23,25.1-23c4.5,0,8.9,1,13,2.9v12.6c-3.7-2.5-7.9-3.9-12.4-4.1-7.2,0-12.2,4.9-12.2,11.5s5.1,11.4,12.4,11.4c4.6,0,9.1-1.6,12.8-4.4v12.5Z"/>
      </g>
    </g>
  </g>
</svg>