<svg xmlns="http://www.w3.org/2000/svg" viewBox="0 0 231.5 64.44"><path d="M87.3,33.12l.67-.76-.17-.19c-1.84,0-2.42-.06-2.42-2.2V17.91h1.77c2.53,0,2.74,2.34,2.86,3.89l.43.26.89-.95a25.17,25.17,0,0,1-.53-4.42V16.6c-1.24,0-5.66.12-7.28.12-4.37,0-5.61-.08-7-.12a27.59,27.59,0,0,1-.64,5.2l.26.26,1-.84c.31-1.57.69-3.31,2.86-3.31H81.8V30.09c0,1.79-.15,1.84-1.65,2.07l-.72.72.2.24c1.6-.09,2.86-.12,3.92-.12C84.31,33,85.06,33,87.3,33.12Z" fill="#000000"/><path d="M100.93,16.3a8.67,8.67,0,0,0-8.74,8.6v.36c0,4.68,3.92,8.14,9.15,8.14a8.47,8.47,0,0,0,8.81-8.13c0-.2,0-.41,0-.61,0-4.66-3.67-8.36-9.22-8.36Zm.6,15.9c-2.77,0-5.51-2.48-5.51-8.26,0-3.05,1.38-6.45,4.61-6.45,3.94,0,5.71,4,5.71,8.24,0,4-1.65,6.47-4.8,6.47Z" fill="#000000"/><path d="M132.81,33.07l1.27,0,.67-.76-.14-.19c-1,0-1.73,0-2-.5a3.88,3.88,0,0,1-.35-1.6l-.75-9.56c-.05-.48-.12-1.36-.12-1.55,0-.81.17-1.36,1.46-1.39l.66-.78-.14-.2c-2,.1-2.65.12-3.2.12s-1.24,0-3-.12l-4.36,12.53h0L118.27,16.6c-.9.07-1.94.12-3,.12-.67,0-1.5,0-2.82-.12l-.72.72.2.26c1,0,1.91.07,1.91.93,0,.43-.1,1.64-.15,2.51l-.51,8.43c-.11,1.88-.64,2.36-1.62,2.72l-.72.71.2.24c.81-.07,1.5-.12,2.22-.12.48,0,1,0,2.91.12l.67-.76-.14-.19c-2,0-2.17-.41-2.17-1.62,0-.32,0-.67,0-1L115,18.1h0L119.67,31c.21.6.38,1.19.6,2.06.75-.06,1-.1,1.19-.1s.7,0,1.36.1c.29-1.05.46-1.65.58-2l4.44-12.83h0l.6,10c0,.79.12,1.55.12,2.34,0,1.24-.31,1.33-1.67,1.53l-.72.72.19.23C128,33,129.3,33,130.33,33c.76,0,1.48,0,2.46.07Z" fill="#000000"/><path d="M151.75,28.6c0-3.46-3.2-3.94-5.71-4.1v-.05c2.27-.29,4.68-.93,4.68-3.84,0-3.2-2.68-4-6.47-4-1.44,0-2.92.07-4.39.07-.6,0-1.82,0-3.7-.11l-.7.76.17.19c1.89,0,2.42.07,2.42,2.2V30.06c0,1.84-.15,1.89-1.65,2.1l-.72.72.2.24c1.55-.08,2.83-.12,3.92-.12,1.81,0,3.65.07,5.47.07,4.35,0,6.5-1.79,6.5-4.47ZM141.62,17.78c.31,0,.74-.05,1.24-.05,2.28,0,4.28.43,4.28,3,0,2-1.5,3.25-4.07,3.25h-1.45ZM144.05,32c-2.22,0-2.43-.4-2.43-1.88v-5h1.5c3.35,0,5,1.26,5,3.43S146.73,32,144.06,32Z" fill="#000000"/><path d="M166.81,27.93c-.41,2.75-.86,4-4.51,4-2.37,0-3.06-.31-3.06-2V25h1.6c2.94,0,3.13.62,3.13,2.72l.21.22.86-.48c-.12-2.24-.12-2.83-.12-3,0-.89.05-2,.12-3.23l-.24-.17-.83.55c0,2-.5,2.29-3,2.29h-1.74V17.8h1c4.56.05,5.54.5,6.23,3.27l.32.23.76-.55a29.18,29.18,0,0,1-.44-4.18c-1.24,0-6.73.12-9,.12-2.63,0-3.47-.05-4.38-.12l-.69.76.14.2c1.89,0,2.42.07,2.42,2.2V30.05c0,1.84-.2,1.9-1.65,2.1l-.72.71.2.24c1.33-.08,2.74-.12,3.72-.12,4.3,0,7.86.07,10.15.12a43.3,43.3,0,0,1,.76-5.68l-.28-.21-1,.72Z" fill="#000000"/><path d="M186.46,33.12l.67-.76-.14-.19c-1.24,0-1.6-.06-2.49-2.32-.78-2.05-1.7-4-4.58-5.2v0c2.25-.34,4.56-1.1,4.56-4s-2.2-4-5.06-4c-1.7,0-3.46.12-5.66.12-.6,0-2.55,0-3.72-.12l-.67.76.14.2c1.84,0,2.42,0,2.42,2.2V30.09c0,1.81-.17,1.86-1.67,2.08l-.72.71.19.24c1.6-.09,2.87-.12,3.92-.12.67,0,1.41,0,3.73.12l.69-.76-.17-.19c-1.82,0-2.39,0-2.39-2.2V25h.76c3.73,0,5,6,5.4,8h2c.77,0,2,.07,2.8.12Zm-10.07-9.2h-.89V17.69h1.87c2.6,0,3.54,1.19,3.54,3.15,0,1.62-.65,3.08-4.51,3.08Z" fill="#000000"/><path d="M202.54,27.43l-.26-.21-1.05.71c-.36,2.7-.81,4-4.23,4-2.39,0-3.06-.31-3.06-2V19.66c0-1.86.24-1.88,2.2-2.1l.72-.74-.2-.24c-1.76.07-3.17.12-4.44.12-.57,0-1.91,0-3.75-.12l-.67.76.15.2c1.91,0,2.41.07,2.41,2.2V30.05c0,1.84-.21,1.89-1.64,2.1l-.72.72.19.24c1.34-.08,2.75-.12,3.73-.12,4.78,0,8.11.12,9.89.12a43.63,43.63,0,0,1,.74-5.69Z" fill="#000000"/><path d="M211.15,33.12l.67-.76-.14-.19c-1.89,0-2.42-.05-2.42-2.2V19.65c0-1.82.21-1.87,1.65-2.08l.72-.74-.2-.24c-1.5.07-2.8.12-3.94.12-.58,0-1.82,0-3.7-.12l-.7.76.17.2c1.94,0,2.42.06,2.42,2.2V30.06c0,1.84-.22,1.89-1.65,2.1l-.72.72.2.24c1.62-.1,2.89-.12,3.92-.12C208.24,33,209,33,211.15,33.12Z" fill="#000000"/><path d="M231.28,16.59c-.89.07-1.55.12-2.22.12-1,0-1.94-.05-2.89-.12l-.67.76.15.19c2,0,2.2.62,2.22,2.87l.07,9-.05.05-8.6-12.87c-.93.06-1.84.11-2.77.11-.76,0-1.67-.05-2.82-.11l-.72.71.2.24c1.79,0,2.34.12,2.34,2V29.58c0,2.2-.64,2.46-1.56,2.58l-.71.72.21.23c.83-.07,1.55-.12,2.22-.12s1.38,0,2.89.12l.66-.76-.14-.19c-2.05,0-2.2-.6-2.22-2.8l-.15-10.51.06-.05L226.43,33c.52,0,1-.05,1.58-.05s.81,0,1.21.05V20.11c0-1.93.49-2.41,1.56-2.56l.72-.74-.21-.24Z" fill="#000000"/><path d="M58.2,58.13c0-.36-.22-.51-.63-.51H57v1.74h.31v-.75h.18l.44.75h.33l-.46-.76a.44.44,0,0,0,.44-.41v-.06Zm-.93.23v-.5h.28c.16,0,.33,0,.33.23s-.16.27-.34.27h-.27Z" fill="#000000"/><path d="M59,58.49A1.49,1.49,0,1,0,57.52,60,1.51,1.51,0,0,0,59,58.49Zm-1.49,1.23a1.24,1.24,0,1,1,1.12-1.35v.12a1.15,1.15,0,0,1-1.08,1.23Z" fill="#000000"/><path d="M35,61.65l-1.12,2.16h.28l.35-.68h.74l.09.68h.27l-.3-2.16H35Zm-.4,1.27.32-.63a3.7,3.7,0,0,0,.18-.4h0c0,.13,0,.29,0,.4l.08.63h-.62Z" fill="#000000"/><path d="M37.82,62.8a5.06,5.06,0,0,0-.1.68h0a3.8,3.8,0,0,0-.18-.6L37,61.65h-.29l-.41,2.16h.25l.21-1.13c.05-.3.09-.5.11-.71h0a3.55,3.55,0,0,0,.2.63l.49,1.22h.26l.42-2.16H38l-.22,1.15Z" fill="#000000"/><path d="M39.18,62.23a.92.92,0,0,0-.86,1,.61.61,0,0,0,.55.64h.06a.93.93,0,0,0,.86-1,.59.59,0,0,0-.53-.64ZM39,63.64a.39.39,0,0,1-.37-.41v0c0-.36.22-.77.56-.77a.38.38,0,0,1,.36.4v0c0,.36-.24.77-.55.77Z" fill="#000000"/><path d="M41,62.23h-.08a.58.58,0,0,0-.47.38h0a2.09,2.09,0,0,0,0-.34H40.2c0,.14,0,.34-.08.55l-.18,1h.26l.12-.69c.07-.36.27-.64.51-.64h.08l.05-.26Z" fill="#000000"/><path d="M42.27,61.53l-.14.75a.5.5,0,0,0-.27-.05,1,1,0,0,0-1,1.06c0,.32.16.56.46.56a.64.64,0,0,0,.56-.34h0l0,.3h.24a3.85,3.85,0,0,1,.07-.49l.34-1.8h-.26ZM42,63.05c-.07.34-.31.58-.52.58s-.3-.2-.3-.38a.76.76,0,0,1,.66-.81.41.41,0,0,1,.26.07l-.1.54Z" fill="#000000"/><path d="M42.51,63.81h.27l.3-1.55h-.26Z" fill="#000000"/><path d="M43,61.65a.18.18,0,0,0-.17.18A.15.15,0,0,0,43,62h0a.19.19,0,0,0,.18-.17h0a.16.16,0,0,0-.15-.17Z" fill="#000000"/><path d="M43.22,63.25a.57.57,0,0,0,.51.6h.09a1.17,1.17,0,0,0,.45-.09l0-.22a.73.73,0,0,1-.35.09.37.37,0,0,1-.39-.34v-.08a.73.73,0,0,1,.66-.76.58.58,0,0,1,.26.06l.08-.21a.92.92,0,0,0-.32-.07,1,1,0,0,0-1,1Z" fill="#000000"/><path d="M45.53,62a1.34,1.34,0,0,0-.42,1,.85.85,0,0,0,.93.9,1.58,1.58,0,0,0,.61-.12l.19-1h-.7l0,.22h.44l-.13.64a.87.87,0,0,1-.32.06.62.62,0,0,1-.7-.54v-.15a1.15,1.15,0,0,1,.32-.79A1,1,0,0,1,46.84,62l.08-.23a1,1,0,0,0-.51-.1,1.3,1.3,0,0,0-.89.32Z" fill="#000000"/><path d="M47.94,62.23a.55.55,0,0,0-.47.37h0a2.09,2.09,0,0,0,0-.34h-.23c0,.14,0,.35-.08.55l-.18,1h.26l.12-.69c.07-.36.27-.64.51-.64H48l.05-.26h-.09Z" fill="#000000"/><path d="M48.83,62.23a.91.91,0,0,0-.86,1,.59.59,0,0,0,.55.64h.06a.94.94,0,0,0,.86-1,.59.59,0,0,0-.53-.64Zm-.22,1.41a.4.4,0,0,1-.38-.41v0c0-.36.22-.77.55-.77a.38.38,0,0,1,.37.4v0c0,.36-.24.77-.55.77Z" fill="#000000"/><path d="M50.82,62.26l-.15.79c-.07.34-.31.57-.51.57s-.24-.11-.24-.27a1.64,1.64,0,0,1,0-.23l.16-.86h-.26l-.17.87a1.24,1.24,0,0,0,0,.27c0,.35.21.44.41.44a.68.68,0,0,0,.55-.32h0l0,.3h.24q0-.2.06-.45l.21-1.1h-.25Z" fill="#000000"/><path d="M52.23,62.23a.67.67,0,0,0-.55.33h0l0-.3h-.25c0,.16,0,.36-.08.55l-.31,1.63h.26l.13-.66h0a.75.75,0,0,0,.33.07,1,1,0,0,0,.92-1.07.5.5,0,0,0-.49-.56Zm-.42,1.41a.5.5,0,0,1-.3-.08l.07-.43c.08-.44.34-.68.55-.68s.3.19.3.35c0,.41-.29.84-.63.84Z" fill="#000000"/><path d="M54.92,62.12a.45.45,0,0,0-.15-.33.76.76,0,0,0-.5-.15,3.73,3.73,0,0,0-.47,0l-.4,2.12a2.28,2.28,0,0,0,.45,0,1.22,1.22,0,0,0,.7-.18.61.61,0,0,0,.26-.5.48.48,0,0,0-.35-.48h0a.61.61,0,0,0,.46-.55Zm-.39,1c0,.34-.3.48-.61.47a.82.82,0,0,1-.22,0l.16-.82h.22c.25,0,.46.11.46.36Zm-.43-.57h-.2l.13-.7h.22c.24,0,.39.09.39.3s-.23.42-.55.42Z" fill="#000000"/><path d="M56,62.23h-.08a.56.56,0,0,0-.47.38h0c0-.12,0-.23,0-.34h-.23l-.08.55-.19,1h.27l.12-.69c.07-.36.27-.64.51-.64H56l.05-.26Z" fill="#000000"/><path d="M55.93,63.33a.46.46,0,0,0,.4.51h.05a.67.67,0,0,0,.6-.44h0a3.43,3.43,0,0,0,0,.4h.24a4.39,4.39,0,0,1,.07-.72l.16-.81a1.52,1.52,0,0,0-.42-.06,1.08,1.08,0,0,0-1.08,1.08v0Zm1.1-.4c-.07.41-.34.7-.55.7s-.27-.17-.27-.35a.84.84,0,0,1,.74-.85.37.37,0,0,1,.18,0l-.09.47Z" fill="#000000"/><path d="M58.61,62.23a.68.68,0,0,0-.57.33h0l0-.3h-.24c0,.13,0,.28-.07.45l-.21,1.1h.25l.15-.75a.68.68,0,0,1,.53-.61c.19,0,.24.12.24.27a.65.65,0,0,1,0,.2l-.17.9h.26l.17-.9a1.07,1.07,0,0,0,0-.25.4.4,0,0,0-.33-.43h-.06Z" fill="#000000"/><path d="M60.46,62.28a.52.52,0,0,0-.27-.05,1,1,0,0,0-1,1.06c0,.32.16.56.46.56a.64.64,0,0,0,.56-.34h0l0,.3h.24a2.63,2.63,0,0,1,.07-.49l.34-1.8h-.27l-.13.75Zm-.15.77c-.06.34-.31.58-.51.58s-.3-.19-.3-.38a.76.76,0,0,1,.66-.81.37.37,0,0,1,.25.07l-.1.54Z" fill="#000000"/><path d="M6.73,57.23c1.25.63,2.53,1.19,3.83,1.7A64.11,64.11,0,0,0,20,61.73,72.56,72.56,0,0,0,28.4,63c1.17.11,2.45.2,3.7.3v-1A83.19,83.19,0,0,1,6,56.81a8.1,8.1,0,0,0,.7.42Z" fill="#000000"/><path d="M89.68,51.74l-1.46-9.56-1,0L82.6,51.74l-1.44-9.56H80l1.82,10.68h1.09l4.56-9.32,1.44,9.32H90l5.35-10.68H94.26Z" fill="#000000"/><path d="M96.47,52.86h7.34l.17-1H97.7l.79-4h5.45l.2-1H98.69l.77-3.8h6.1l.18-1H98.61Z" fill="#000000"/><path d="M123.64,43.55A4.75,4.75,0,0,0,122,42.49a5.43,5.43,0,0,0-2.07-.38,6.24,6.24,0,0,0-5.3,3,5.61,5.61,0,0,0-.84,3,5,5,0,0,0,.65,2.5,4.66,4.66,0,0,0,1.8,1.78,5,5,0,0,0,2.57.66,6.3,6.3,0,0,0,3.86-1.4l.78-3.9h-1l-.66,3.4a5.11,5.11,0,0,1-2.88.95,4.25,4.25,0,0,1-2.09-.53A3.89,3.89,0,0,1,115.37,50a4,4,0,0,1-.54-2,4.73,4.73,0,0,1,.69-2.46,5,5,0,0,1,1.84-1.79,4.91,4.91,0,0,1,2.48-.67,4.67,4.67,0,0,1,1.73.33,4.06,4.06,0,0,1,1.4.92l.68-.75Z" fill="#000000"/><path d="M135.83,42.79a5.17,5.17,0,0,0-2.66-.68,6.06,6.06,0,0,0-3,.79,6.21,6.21,0,0,0-2.25,2.16,5.48,5.48,0,0,0-.83,2.95,4.86,4.86,0,0,0,.65,2.5,4.76,4.76,0,0,0,1.81,1.78,5,5,0,0,0,2.59.66,6,6,0,0,0,2.95-.76,6.21,6.21,0,0,0,2.25-2.07,5.44,5.44,0,0,0,.92-2.84,4.76,4.76,0,0,0-2.39-4.49Zm.62,6.73a5.09,5.09,0,0,1-1.83,1.8,4.76,4.76,0,0,1-2.43.67,4.17,4.17,0,0,1-2.07-.53A4,4,0,0,1,128.65,50a4.07,4.07,0,0,1-.53-2,4.45,4.45,0,0,1,.69-2.43,5.23,5.23,0,0,1,1.84-1.78,4.8,4.8,0,0,1,2.45-.67,4.12,4.12,0,0,1,2.05.53,4,4,0,0,1,2,3.48,4.65,4.65,0,0,1-.68,2.44Z" fill="#000000"/><path d="M149.78,43.15h5.62l.2-1h-6.69l-2.13,10.68h1.06l.93-4.66h5l.18-1h-5Z" fill="#000000"/><path d="M161.48,42.18l-6.56,10.69H156L157.75,50h5.94l.8,2.84h1.12l-3-10.69Zm-3.16,6.9,3.5-5.78,1.61,5.78Z" fill="#000000"/><path d="M175,42.18h-4l-2.13,10.69H170l.69-3.45h2.93l.75,0L176,52.87h1.23l-1.82-3.67a4,4,0,0,0,3.24-4.15,2.62,2.62,0,0,0-.92-2.12,4.17,4.17,0,0,0-2.65-.75Zm1.53,5.43a4.19,4.19,0,0,1-2.78.84h-2.91l1.06-5.3h2.93a3.26,3.26,0,0,1,2,.53,1.89,1.89,0,0,1,.7,1.56,2.93,2.93,0,0,1-1,2.35Z" fill="#000000"/><path d="M182,43.15h3.5l-2,9.7h1.06l2-9.7h3.52l.19-1h-8.1Z" fill="#000000"/><path d="M201.12,47.08h-6.67l1-4.9h-1l-2.14,10.68h1l1-4.81h6.67l-1,4.81H201l2.12-10.68h-1Z" fill="#000000"/><path d="M206.63,52.86H214l.18-1h-6.28l.79-4h5.45l.19-1h-5.45l.76-3.8h6.11l.19-1h-7.15Z" fill="#000000"/><path d="M224.2,42.18h-4L218.1,52.87h1.05l.69-3.45h2.93l.75,0,1.61,3.48h1.23l-1.82-3.67a4,4,0,0,0,3.24-4.15,2.62,2.62,0,0,0-.92-2.12,4.17,4.17,0,0,0-2.65-.75Zm1.53,5.43a4.19,4.19,0,0,1-2.78.84H220l1.05-5.3H224a3.26,3.26,0,0,1,2,.53,1.89,1.89,0,0,1,.7,1.56,2.93,2.93,0,0,1-1,2.35Z" fill="#000000"/><path d="M30.75,57c1.08,0,2.33-.7,2.34-3,0-1.4-1.5-3-1.5-3.06a6.07,6.07,0,0,0,1.2-2.44c0-2.41-1.2-3.25-2.33-3.26H27.92c.29.5.43.75.71,1.25,0,3.06.07,6.11.11,9.17-.26.48-.38.72-.65,1.18,1.07.09,1.6.13,2.66.18Zm1-3c0,1.3-.43,1.83-1,1.8-.27,0-.41,0-.68,0,0-1.64,0-2.46,0-4.1l.69,0c.61,0,1,1.12,1,2.3Zm-1.26-7.53c.57,0,.93.79.93,2s-.34,2-.9,2H30c0-1.6,0-2.4,0-4h.47Z" fill="#000000"/><path d="M37.27,46.43c.33.63.5,1,.84,1.57,0-1.11,0-1.66.06-2.78h-4.6c.27.5.42.76.69,1.27q0,4.65-.07,9.28c-.27.52-.41.77-.68,1.28,1.77,0,2.65,0,4.41-.18,0-1.11,0-1.67.06-2.79-.35.66-.53,1-.89,1.63-.64,0-1,.06-1.6.07,0-1.77,0-2.66.06-4.43l1.12,0,.66,1.23c0-1.5,0-2.23.07-3.73-.29.51-.43.77-.71,1.29H35.55l.05-3.69h1.67Z" fill="#000000"/><path d="M43.57,48.14c.08-2-1.22-2.93-2.4-2.92H38.64c.26.5.4.74.67,1.23-.08,3-.15,6.06-.23,9.09l-.7,1.29c1.06-.09,1.6-.15,2.65-.28l-.64-1.14c0-1.58.07-2.37.12-3.94l.45,0c.5,2,.76,3,1.25,5l1.84-.3h0c1.64-.3,2.52-.48,4.21-.9.06-.95.1-1.44.15-2.39-.38.61-.56.92-.94,1.55-.6.12-.9.19-1.51.3.14-2.77.3-5.55.43-8.32.3-.46.45-.69.77-1.14l-2.77,0c.26.47.38.69.65,1.15q-.2,4.23-.4,8.49c-.27.46-.42.73-.65,1.16-.22-.35-.34-.57-.57-1-.47-1.6-.7-2.43-1.17-4.1a3.57,3.57,0,0,0,1.32-2.78ZM41,50.26l-.47,0c.05-1.55.07-2.33.11-3.89h.48c.57,0,1,.82.94,1.81s-.49,2-1.07,2.06Z" fill="#000000"/><path d="M48.58,55.1c1.08-.27,1.6-.42,2.68-.75l-.6-.8q.29-3.69.55-7.4c.3-.41.47-.6.77-1l-2.76,0,.62,1q-.26,3.82-.52,7.67c-.3.48-.45.73-.74,1.22Z" fill="#000000"/><path d="M51.72,54.23c.83-.25,1.26-.39,2.1-.68-.25-.27-.37-.4-.61-.69.19-2.15.29-3.24.48-5.39a41.77,41.77,0,0,0,3.07,5.85c.28-2.48.58-5,.87-7.43.32-.33.48-.49.79-.79l-2.15,0c.24.34.36.49.6.81-.16,1.5-.24,2.24-.41,3.74a47.29,47.29,0,0,1-2.2-4.53l-1.82,0c.25.39.38.57.62.94-.19,2.33-.4,4.66-.59,7l-.76,1.15Z" fill="#000000"/><path d="M38,6.23l2.6,9.82,2.07-4.38s-1,15.24-1.21,15.94S47.3,15.35,47.3,15.35,42.64,35.5,42.46,36s8.47-19.46,8.47-20c0-6.67-13-9.82-13-9.82Z" fill="#000000"/><path d="M63.83,21.46c0,6.06-3.26,11.73-9.18,15.94a34.76,34.76,0,0,1-13.8,5.65H60.48c-.42,3.2-.85,6.37-1.28,9.56-17.59,7.5-34.46,7.5-52,0L6,43.05H25.42a34.76,34.76,0,0,1-13.8-5.65c-5-3.59-8.14-8.22-9-13.25l-.15-1.21c0-.49-.08-1-.08-1.48,0-5.71,2.91-11.06,8.2-15.2H0l6.34,47,.48.21a66.17,66.17,0,0,0,26.36,5.7,66.51,66.51,0,0,0,26.39-5.69l.49-.21,6.26-47H55.63c5.3,4.13,8.2,9.48,8.2,15.2Z" fill="#000000"/><path d="M13.47,47.23c-.07-.84-.1-1.25-.16-2.1l-5-.05.2,1.7c.3-.34.46-.53.77-.92.36,0,.54,0,.9,0,.24,2.45.37,3.67.6,6.12-.23.24-.35.35-.59.57,1.08.42,1.62.6,2.69,1-.3-.45-.46-.67-.77-1.11-.24-2.59-.36-3.9-.58-6.49l.91,0c.39.48.58.72,1,1.23Z" fill="#000000"/><path d="M16.68,44.89c-1.79,0-2.81,2.27-2.63,4.7s1.52,5.09,3.25,5.57,2.75-1.93,2.62-4.77-1.45-5.5-3.24-5.5Zm.56,9.27c-1.15-.29-1.5-2.58-1.62-4.33s-.06-4,1.12-3.94,1.51,2.42,1.61,4.31,0,4.24-1.12,4Z" fill="#000000"/><path d="M27.75,56.79c-.28-.53-.43-.78-.7-1.29-.06-3-.11-6-.17-9,.28-.49.41-.73.68-1.22h-2c-.6,2-.89,2.93-1.47,4.82-.68-2-1-2.95-1.72-4.84H20.15l.75,1.14q.17,4.19.34,8.36c-.24.41-.37.6-.62,1,.83.18,1.25.26,2.08.42-.28-.52-.44-.77-.72-1.28q-.15-3.62-.27-7.21c.85,2.34,1.26,3.55,2.1,6,.69-2.28,1-3.45,1.75-5.86l.17,7.6c-.25.46-.38.68-.64,1.12,1.06.16,1.6.22,2.65.32Z" fill="#000000"/><path d="M14.66,15.87c0,.53,8.64,20.51,8.46,20s-4.84-20.69-4.84-20.69,6,13,5.87,12.27-1.21-15.95-1.21-15.95L25,15.87l2.59-9.81S14.66,9.2,14.66,15.87Z" fill="#000000"/><path d="M11.87,20.16c.66-.54,1-.8,1.65-1.3-.28-3.11.26-5.71,1.6-7.4,2.44-3.06,5.89-4.16,9-5.21a27.13,27.13,0,0,1,4.55-.9Q29.6,19,30.5,32.63c.15,2.35,0,3.85-.4,4.5s-1.52,1.21-3.24,2.06c.08.4.12.59.19,1a19.23,19.23,0,0,1,11.77,0l.2-1a10.29,10.29,0,0,1-3.16-1.9c-.48-.59-.66-1.91-.52-4q.91-14,1.84-27.94a29.3,29.3,0,0,1,4.55.9c3.16,1,6.73,2.14,9.08,5.25,1.18,1.56,1.72,4.17,1.55,7.35.67.5,1,.75,1.66,1.3q1.56-4.11,3.09-8.26C41.57.16,24.32.16,8.78,11.89c1,2.77,2,5.52,3.08,8.27Zm24-14.85L33,35.51,30,5.47a7.75,7.75,0,0,1,5.87-.16Z" fill="#000000"/><path d="M6.82,11.29c-.23.32-.45.62-.66.94A17.84,17.84,0,0,0,5,14.17,16.08,16.08,0,0,0,5,28.75a18.7,18.7,0,0,0,1.13,1.93c.21.31.43.62.66.94a22.1,22.1,0,0,0,2.36,2.67,27,27,0,0,0,2.93,2.41q.84.6,1.74,1.14a29.63,29.63,0,0,0,3.75,1.95c.65.28,1.3.54,2,.79h0a39.23,39.23,0,0,0,13.57,2.35A39.87,39.87,0,0,0,44.51,41.3l.11,0c.61-.19,1.22-.39,1.82-.6l.3-.1c.57-.21,1.14-.44,1.69-.68.74-.32,1.47-.65,2.18-1a30.21,30.21,0,0,0,3.56-2.17,24.45,24.45,0,0,0,4.57-4.17c.25-.3.49-.61.72-.91a18.92,18.92,0,0,0,2.24-3.87,16,16,0,0,0,0-12.59,19.09,19.09,0,0,0-1-2,18.73,18.73,0,0,0-1.25-1.89c-.22-.32-.47-.62-.72-.92a24.45,24.45,0,0,0-4.57-4.17,28.78,28.78,0,0,0-3.36-2.06c-.39-.21-.78-.41-1.19-.6A38.55,38.55,0,0,0,33.14,0h0A40.65,40.65,0,0,0,27.3.41c-1,.13-1.9.3-2.82.5s-1.83.43-2.72.69a34.07,34.07,0,0,0-6.3,2.55c-.78.41-1.54.86-2.27,1.34-.36.23-.72.48-1.07.72A27.08,27.08,0,0,0,9.19,8.63a22.19,22.19,0,0,0-2.37,2.66Zm6.7-5.21A33.28,33.28,0,0,1,23.1,1.94l1.35-.32A39.59,39.59,0,0,1,33.13.68C49.24.68,62.3,10,62.3,21.46c0,5.31-2.8,10.16-7.42,13.83l-.3.24c-5.33,4.12-13,6.7-21.45,6.7a39.59,39.59,0,0,1-8.68-.94L23.1,41a32.89,32.89,0,0,1-9.58-4.14c-.34-.22-.68-.46-1-.69-.51-.36-1-.74-1.47-1.13a22.65,22.65,0,0,1-2.1-1.94,21,21,0,0,1-2.1-2.61,16.06,16.06,0,0,1-2.87-9,15,15,0,0,1,.3-3c0-.12.05-.26.09-.39A16.36,16.36,0,0,1,6,13.87a18.73,18.73,0,0,1,1.52-2.34c.45-.59.94-1.16,1.45-1.71a25.18,25.18,0,0,1,2.6-2.35,24,24,0,0,1,2-1.41Z" fill="#000000"/></svg>