<?xml version="1.0" encoding="UTF-8"?>
<svg id="Capa_1" data-name="Capa 1" xmlns="http://www.w3.org/2000/svg" viewBox="0 0 1079.45 232.83">
  <defs>
    <style>
      .cls-1 {
        fill: #e40126;
        stroke: #9e0d29;
        stroke-miterlimit: 10;
        stroke-width: 5.77px;
      }

      .cls-2 {
        stroke-width: 0px;
      }
    </style>
  </defs>
  <ellipse class="cls-1" cx="885.01" cy="98.76" rx="32.48" ry="27.84"/>
  <path class="cls-2" d="M43.22,168.87H0l5.09-20.91h115.97l-5.09,20.91h-43.22l-15.57,63.61h-29.54l15.57-63.61Z"/>
  <path class="cls-2" d="M127.77,147.81h83.74c2.45-.17,5.95-.29,10.14-.02,4.42.28,6.62.42,8.89,1.17,8.4,2.79,12.28,10.98,12.63,11.75,2.73,5.98,1.97,11.41,1.64,13.63-.28,1.86-1.36,8.37-6.55,13.63-5.08,5.15-11.19,6.15-19.65,7.52-4.41.72-10.94,1.34-18.94.47,11.07,12.22,22.14,24.43,33.21,36.65-11.54.06-23.08.13-34.62.19-3.58-4.18-7.32-8.4-11.22-12.64-8.19-8.92-16.34-17.13-24.32-24.67-6.78-.16-13.56-.31-20.35-.47-3.07,12.52-6.13,25.03-9.2,37.55-8.7.08-17.39.16-26.09.24l20.68-84.99ZM197.32,179.62c.5.03,3.23-.04,8.69-.19,1.88-.05,4.78-.15,7.88-1.47,1.07-.45,1.83-.9,2.51-1.52,1.68-1.54,2.29-3.37,2.53-4.17.44-1.46,1.13-3.71-.05-5.95-1.16-2.21-3.38-2.97-3.69-3.07-.81-.26-1.47-.25-1.86-.29-1.68-.2-3.6-.2-8.86-.2h-52.82c-1.58,5.51-3.17,11.02-4.75,16.53,26.95-.1,44.55,0,50.42.33Z"/>
  <path class="cls-2" d="M311.39,147.64c15.66.24,31.32.49,46.98.73,14.44,28.14,28.88,56.28,43.31,84.42h-33.77c-2.81-5.38-5.63-10.77-8.44-16.15-24.72-.12-49.43-.24-74.15-.37-3.95,5.35-7.91,10.69-11.86,16.04-11.71.04-23.41.07-35.12.11,24.35-28.26,48.7-56.53,73.05-84.79ZM348.83,195.36c-5.63-10.64-11.26-21.29-16.88-31.93-9.42,10.77-18.84,21.53-28.26,32.3,15.05-.12,30.1-.24,45.15-.37Z"/>
  <path class="cls-2" d="M532.43,147.74h29.73c-2.18,10.33-4.36,20.67-6.54,31,3.98.09,7.97.19,11.95.28,13.99-10.47,27.97-20.93,41.96-31.4,13.43.19,26.86.37,40.29.56-19.06,13.89-38.12,27.78-57.19,41.66l50.98,42.99h-43.07l-36.18-32.66c-4.3-.11-8.6-.21-12.9-.32-3.36,10.99-6.73,21.98-10.09,32.97h-29.73l20.8-85.09Z"/>
  <path class="cls-2" d="M525.52,149.01c-1.31,6.44-2.63,12.88-3.94,19.33-5.19-.03-11.39-.06-17.18-.09-24.88-.12-23.17-.06-25.25-.12-7.81-.2-15.63.21-23.43-.19,0,0-2.91-.15-6.94.42-4.27.6-5.75,1.45-6.47,1.95-1.85,1.26-2.89,2.92-3.55,4.34-8.13,17.55-10.57,31.74-5.29,35.63,1,.74,2.51,1.28,4.9,1.05h69.81l-.39,20.9-84.8.39s-22.88-8.28-18.14-31.95c0,0,4.34-53.25,32.34-52.85,29.45.39,58.9.79,88.35,1.18Z"/>
  <path class="cls-2" d="M676.65,170.3c.72-.49,2.2-1.35,6.47-1.95,4.04-.57,6.94-.42,6.94-.42,7.8.39,15.62-.02,23.43.19,2.09.05.37,0,25.25.12,5.79.03,11.99.06,17.18.09,1.31-6.44,2.63-12.88,3.94-19.33-29.45-.39-58.9-.79-88.35-1.18-28-.39-32.34,52.85-32.34,52.85-4.73,23.66,18.14,31.95,18.14,31.95l84.8-.39.39-20.9h-69.81c-2.39.23-3.9-.31-4.9-1.05-2.7-1.99-3.37-6.69-2.3-13.14l83.12-1.22.42-15.97h-78.27c.71-1.73,1.47-3.49,2.31-5.3.66-1.42,1.7-3.08,3.55-4.34Z"/>
  <g>
    <path class="cls-2" d="M893.36,232.51v-17.11h-7.13v-3.48h19.09v3.48h-7.11v17.11h-4.85Z"/>
    <path class="cls-2" d="M908.39,232.51v-20.6h7.26l4.36,14.05,4.31-14.05h7.28v20.6h-4.51v-16.21l-4.77,16.21h-4.67l-4.75-16.21v16.21h-4.51Z"/>
  </g>
  <path class="cls-2" d="M933.96,70.51c11.81,4.46,20.18,16.07,20.33,28.72.17,13.62-8.32,24.54-20.43,29.97-4.84,2.17-6,9.21-3.52,13.44,2.91,4.98,8.58,5.7,13.44,3.52,18.51-8.3,31.09-27.96,30.11-48.37-1.03-21.4-14.98-38.77-34.71-46.22-4.96-1.88-10.77,2.08-12.08,6.86-1.52,5.52,1.88,10.2,6.86,12.08h0Z"/>
  <path class="cls-2" d="M962.34,46.44c19.89,9.41,33.81,28.62,34.58,50.91.77,22.58-11.75,43.09-31.47,53.73-8.35,4.5-.92,17.22,7.43,12.72,24.08-12.99,39.69-38.93,38.77-66.45-.91-27.17-17.32-52.02-41.87-63.63-8.52-4.03-16.01,8.66-7.43,12.72h0Z"/>
  <path class="cls-2" d="M993.64,25.16c14.03,8.13,26.05,20.39,33.82,34.6,13.22,24.18,11.92,53.67-1.43,77.5-7.91,14.11-19.43,25.67-33.18,34.13-5.37,3.31-.45,11.8,4.96,8.48,26.21-16.13,44.85-42.93,48.33-73.78,3.15-28-8.13-55.29-28.21-74.64-5.82-5.61-12.32-10.72-19.33-14.77-5.48-3.17-10.43,5.31-4.96,8.48h0Z"/>
  <path class="cls-2" d="M1024.51,4.67c21.75,14.97,38.67,38.55,45.94,63.85,10.69,37.19-.06,76.08-24.83,105.1-5.84,6.84-12.52,13.68-19.74,18.86-2.55,1.82-.1,6.09,2.48,4.24,19.71-14.12,35.39-35.77,43.93-58.27,14.69-38.69,6.12-81.91-19.59-113.8-7.38-9.15-16.01-17.55-25.71-24.22-2.61-1.8-5.07,2.46-2.48,4.24h0Z"/>
  <path class="cls-2" d="M776.14,147.81h83.74c2.45-.17,5.95-.29,10.14-.02,4.42.28,6.62.42,8.89,1.17,8.4,2.79,12.28,10.98,12.63,11.75,2.73,5.98,1.97,11.41,1.64,13.63-.28,1.86-1.36,8.37-6.55,13.63-5.08,5.15-11.19,6.15-19.65,7.52-4.41.72-10.94,1.34-18.94.47,11.07,12.22,22.14,24.43,33.21,36.65-11.54.06-23.08.13-34.62.19-3.58-4.18-7.32-8.4-11.22-12.64-8.19-8.92-16.34-17.13-24.32-24.67-6.78-.16-13.56-.31-20.35-.47-3.07,12.52-6.13,25.03-9.2,37.55-8.7.08-17.39.16-26.09.24l20.68-84.99ZM845.7,179.62c.5.03,3.23-.04,8.69-.19,1.88-.05,4.78-.15,7.88-1.47,1.07-.45,1.83-.9,2.51-1.52,1.68-1.54,2.29-3.37,2.53-4.17.44-1.46,1.13-3.71-.05-5.95-1.16-2.21-3.38-2.97-3.69-3.07-.81-.26-1.47-.25-1.86-.29-1.68-.2-3.6-.2-8.86-.2h-52.82c-1.58,5.51-3.17,11.02-4.75,16.53,26.95-.1,44.55,0,50.42.33Z"/>
</svg>