<?xml version="1.0" encoding="UTF-8"?><svg id="car-rental" xmlns="http://www.w3.org/2000/svg" viewBox="0 0 32 32"><path d="M5.64,26.36c1.24,1.21,2.66,2.2,4.22,2.92,3.73,1.75,8.16,1.81,11.94.18,1.33-.57,2.56-1.31,3.67-2.23,1.03-.86,1.96-1.83,2.73-2.93,3.05-4.3,3.31-9.8,1.11-14.54-.1-.21-.04-.43.16-.52s.39.01.49.22c.94,2,1.47,4.18,1.52,6.4.08,4.03-1.38,7.8-4.19,10.68-1.12,1.15-2.38,2.12-3.78,2.9-4.37,2.41-9.7,2.57-14.19.39-3.03-1.47-5.53-3.86-7.13-6.82-.67-1.24-1.14-2.55-1.41-3.93-.18-.91-.25-1.81-.26-2.74-.03-3.15.9-6.24,2.67-8.85,1.31-1.93,3.03-3.57,5.04-4.76S12.5.86,14.83.68c2.14-.16,4.24.09,6.26.79,2.39.84,4.3,2.16,6.06,4v-1.93c0-.19.15-.33.32-.34.15-.01.37.11.37.3v2.89c0,.22-.2.33-.39.33h-2.94c-.21,0-.39-.11-.41-.31s.13-.39.35-.39h2.14s.06,0,.06,0c.01,0-.02-.05-.02-.05l-1.13-1.08c-3.36-2.94-7.76-4.08-12.16-3.28-2.93.53-5.49,1.88-7.6,3.96C2.42,8.83.82,13.36,1.35,17.99c.18,1.55.65,3.03,1.35,4.42.75,1.47,1.75,2.79,2.94,3.96Z"/><path d="M21.94,22h-11.86s0,.76,0,.76c0,.5-.4.96-.92.96h-2.35c-.62,0-1.19-.54-1.19-1.17l-.02-6.16c0-.52.21-.97.55-1.34l.92-.97h-1.14c-.56-.02-.99-.5-.92-1.06-.06-.6.41-1.09,1-1.1h1.2c.4.02.74.26,1,.58l1.41-2.98c.23-.5.8-.87,1.36-.87h10.06c.57,0,1.13.38,1.37.89l1.41,2.97c.28-.33.63-.57,1.06-.58h1.12c.59-.02,1.07.47,1.01,1.07.08.54-.32,1.07-.88,1.08h-1.18s.93.99.93.99c.33.35.54.8.54,1.3v6.14c-.01.65-.51,1.22-1.17,1.23h-2.35c-.55.01-.96-.45-.97-.98v-.74ZM23.49,13.4l-1.59-3.38c-.14-.38-.44-.65-.84-.71h-10.09c-.39.05-.67.29-.83.63l-1.07,2.32-.54,1.14h14.95ZM7.87,13.2c-.16-.34-.43-.64-.8-.64h-1.14c-.23.01-.28.26-.28.44,0,.16.04.4.26.4h1.87s.1-.2.1-.2ZM26.13,13.41c.14-.03.24-.13.24-.27v-.27c0-.17-.15-.31-.32-.31h-1.03c-.42,0-.66.26-.86.63l.11.21h1.85ZM22.11,21.35c.3.04.48.25.48.53v.88c0,.19.17.32.35.32h2.19c.38,0,.64-.26.64-.64v-5.97c.02-.36-.09-.67-.33-.93l-1.39-1.47H7.98s-.37.39-.37.39l-.99,1.03c-.26.27-.38.59-.38.97l.02,5.98c0,.32.21.64.55.64h2.32c.17,0,.29-.16.3-.31v-.94c.01-.27.27-.48.54-.48h12.14Z"/><path d="M11.9,17.83c0,.41-.34.73-.75.73h-3.18c-.39,0-.78-.29-.78-.69v-1.22c0-.58.53-.89,1.07-.8l2.9.47c.42.07.74.45.74.85v.67ZM11.11,17.92c.08,0,.15-.07.15-.13v-.53c0-.17-.13-.29-.3-.32l-2.9-.45c-.12-.02-.2.05-.23.17v1.13c0,.08.08.14.16.14h3.13Z"/><path d="M20.82,18.56c-.38-.06-.69-.33-.7-.7v-.62c-.01-.44.32-.87.78-.94l3.03-.47c.47-.07.9.35.9.8v1.21c0,.39-.35.71-.74.72h-3.27ZM20.93,17.92h3.1c.09,0,.16-.07.16-.16v-1.09c0-.13-.12-.2-.23-.19l-2.93.46c-.13.02-.27.15-.27.28v.53c0,.1.06.16.17.16Z"/><path d="M18.82,18.18h-5.59c-.2,0-.34-.16-.34-.33,0-.2.15-.34.36-.34h5.6c.18,0,.29.2.29.34,0,.16-.13.33-.32.33Z"/></svg>