<?xml version="1.0" encoding="UTF-8"?><svg id="construction" xmlns="http://www.w3.org/2000/svg" viewBox="0 0 32 32"><path d="M16.66,8.33l-2.7,3.1-2.3,2.63-1.57,1.79c-.23.26-.37.56-.35.93l.26,4.45c1.04.19,1.78.99,1.81,2.05v3.35s.96,0,.96,0c.5,0,.92.45.92.96v2.47c0,.54-.46.93-.98.93H1.8c-.48,0-.9-.42-.91-.89v-2.47c0-.56.44-.99.99-1h.27s0-4.58,0-4.58c0-.48.4-.83.86-.84l.04-.89.2-5.15c.04-.92.29-1.91.96-2.58l5.9-5.9,2.52-2.51,2.5-2.46c.78-.77,2-.91,2.98-.5.68.28,1.15.77,1.54,1.37l4.03,6.17,2.16,3.31c1.35.54,1.88,2.14,1.13,3.38l1.18,2.86c.4,0,.74.06,1.06.24,1.33,1.35,2.17,2.95,1.79,4.89-.24,1.21-.83,2.3-1.69,3.18l-.8.72-2.29,1.75c-.16.12-.33.16-.53.16h-8.53c-.16,0-.28-.1-.33-.22s-.06-.31.06-.42l3.97-3.57c.34-.31.6-.65.78-1.07s.33-.88.33-1.37v-3.92c.01-.25.23-.37.45-.37h2s-.69-1.56-.69-1.56l-.37-.89c-.25-.26-.44-.54-.56-.9l-5.77-7.1-.41.48ZM12.35,12.07l2.03-2.33,2.33-2.69c.11-.12.23-.2.38-.19.13.01.25.09.34.2l5.37,6.61c.24-.95,1.03-1.64,2.01-1.73l-2.52-3.83-2.11-3.22-1.38-2.11c-.31-.48-.79-.82-1.35-.94-.61-.13-1.32,0-1.77.44l-1.78,1.74-5.59,5.57-3.42,3.42c-.61.61-.84,1.41-.87,2.26l-.24,5.94h5.43s-.28-4.49-.28-4.49c.02-.45.12-.84.39-1.2l3.02-3.46ZM26.55,14.22c0-.83-.68-1.51-1.51-1.51s-1.51.68-1.51,1.51.68,1.51,1.51,1.51,1.51-.68,1.51-1.51ZM27.32,18.29l-.92-2.23c-.55.42-1.22.51-1.9.39l.81,1.85h2.01ZM28.19,26.61c1.11-.9,1.87-2.13,2.09-3.53.17-1.1-.19-2.2-.83-3.08-.21-.28-.4-.56-.66-.79-.11-.1-.37-.13-.54-.13h-5.46s0,3.48,0,3.48c0,.74-.23,1.43-.57,2.07-.24.39-.5.71-.84,1.02l-3.15,2.84h7.4c.09-.01.19-.02.25-.07l2.32-1.8ZM11.04,26.64v-3.32c0-.7-.54-1.27-1.23-1.33H3.06c-.07,0-.14.06-.14.13v4.52s8.12,0,8.12,0ZM1.66,27.41v2.82h11.26v-2.82H1.66Z"/><path d="M18.66,4.54c0,.89-.72,1.61-1.61,1.61s-1.61-.72-1.61-1.61.72-1.61,1.61-1.61,1.61.72,1.61,1.61ZM17.89,4.54c0-.46-.37-.83-.83-.83s-.83.37-.83.83.37.83.83.83.83-.37.83-.83Z"/></svg>