<?xml version="1.0" encoding="UTF-8"?><svg id="devices" xmlns="http://www.w3.org/2000/svg" viewBox="0 0 32 32"><path d="M31.1,22.3c0,.97-.72,1.74-1.67,1.83h-5.25s-.02,1.06-.02,1.06c-.1,1.11-1.09,2.06-2.24,2.06H3.57c-1.45-.08-2.6-1.22-2.67-2.67V7.62c-.04-1.52,1.15-2.8,2.67-2.87h18.14c.96,0,1.85.46,2.25,1.36.11.24.2.52.2.8v.95s5.12,0,5.12,0c1,0,1.81.82,1.81,1.83v12.61ZM21.99,26.55c.82-.09,1.48-.75,1.48-1.58V6.97c0-.82-.69-1.43-1.47-1.53H3.59c-1.01.01-1.97.92-1.97,1.94v16.9c-.1,1.19.81,2.21,1.99,2.26h18.38ZM30.4,15.14v-5.5c-.05-.65-.53-1.08-1.17-1.08h-5.05s0,14.89,0,14.89h5.01c.73,0,1.22-.49,1.22-1.21v-7.09Z"/></svg>