<?xml version="1.0" encoding="UTF-8"?><svg id="education" xmlns="http://www.w3.org/2000/svg" viewBox="0 0 32 32"><path d="M23.18,26.66h-14.36s0,2.64,0,2.64c0,.77-.57,1.47-1.37,1.47h-2.43c-.72,0-1.37-.61-1.37-1.33v-2.78s-.52,0-.52,0c-.61-.04-1.07-.53-1.1-1.13v-.84c0-.47.3-.88.75-1.06v-5.27c.05-.98.56-1.85,1.46-2.25v-7.58s-1.78,0-1.78,0c-.29,0-.5.22-.51.5v.41s.48,0,.48,0c.41,0,.83.36.83.81v3.78c0,.46-.39.84-.83.84H.84c-.44,0-.82-.4-.82-.85v-3.71c0-.47.39-.87.85-.87h.48s.02-.62.02-.62c.11-.53.56-.88,1.1-.88h1.76s0-2.78,0-2.78c.06-2.09,1.74-3.8,3.82-3.94h15.82c.94,0,1.85.46,2.53,1.08.82.75,1.28,1.8,1.28,2.91v2.73s1.88,0,1.88,0c.57,0,1.02.43,1.07,1v.5s.48,0,.48,0c.41,0,.84.37.84.82v3.74c0,.44-.35.86-.79.86h-1.49c-.48.02-.94-.32-.94-.84v-3.72c0-.47.41-.86.86-.87h.46s0-.45,0-.45c-.01-.24-.2-.47-.46-.47h-1.91s0,7.52,0,7.52c.9.34,1.53,1.2,1.53,2.19v5.38c.43.17.74.57.74,1.03v.81c.01.62-.43,1.12-1.05,1.18h-.53s-.03.07-.03.07v2.66c0,.74-.61,1.38-1.35,1.39h-2.44c-.73-.03-1.37-.59-1.38-1.35v-2.76ZM28.64,23.53v-5.33c-.01-.77-.54-1.42-1.24-1.65-.14-.02-.29-.1-.29-.26V5.02c-.11-1.77-1.57-3.17-3.33-3.23h-15.59c-1.01,0-1.96.55-2.58,1.31-.54.65-.79,1.42-.79,2.26v10.93c0,.16-.09.23-.23.28-.7.27-1.21.96-1.21,1.75v5.21s25.27,0,25.27,0ZM2.41,14.3c.16,0,.26-.16.26-.29v-3.58c0-.13-.01-.23-.1-.31-.07-.07-.18-.1-.3-.1H.95c-.18,0-.35.12-.35.33v3.61c0,.19.1.35.31.35h1.5ZM29.63,14.3h1.45c.21,0,.31-.16.32-.35v-3.55c0-.17-.1-.37-.29-.38h-1.41c-.24,0-.37.14-.37.38v1.96s0,1.63,0,1.63c0,.17.11.32.31.32ZM28.79,26.08c.3,0,.58-.22.59-.51v-.81c.02-.38-.24-.65-.62-.65H3.18c-.34,0-.57.31-.57.61v.81c.01.32.31.54.63.54h25.55ZM7.45,30.19c.41-.05.78-.37.78-.79v-2.75s-4,0-4,0v2.75c0,.44.4.77.82.79h2.4ZM27.01,30.19c.42-.07.75-.38.75-.82v-2.72s-4,0-4,0v2.72c0,.44.36.77.78.82h2.48Z"/><path d="M11.25,16.34l-3.96.03c-1.02,0-1.77-.84-1.77-1.8v-5.96c0-.96.78-1.82,1.76-1.82l9.07-.04,8.23.03c.98,0,1.79.83,1.79,1.81v5.96c-.02,1.07-.89,1.88-1.96,1.81h-13.16ZM7.33,15.79l3.77-.03h4.58s0-8.44,0-8.44h-6.09s-2.19.03-2.19.03c-.74,0-1.3.58-1.29,1.31v5.93c0,.63.53,1.23,1.22,1.2ZM25.8,8.59c-.03-.76-.64-1.29-1.38-1.25l-2.44-.03h-5.72s0,8.44,0,8.44h8.19c.68.01,1.33-.43,1.33-1.17l.02-5.99Z"/><path d="M22.77,5.19c0,.39-.33.75-.74.75h-12c-.42,0-.8-.29-.8-.72v-1.93c0-.4.38-.68.77-.68h12.06c.43,0,.71.4.71.79v1.8ZM22.2,3.18h-12.38s0,2.19,0,2.19h12.38s0-2.19,0-2.19Z"/><path d="M21.2,21.98h-10.51c-.17,0-.26-.19-.25-.3.01-.16.13-.27.3-.27h10.45c.16,0,.26.14.27.26s-.07.31-.26.31Z"/><path d="M21.24,20h-10.53c-.18,0-.27-.16-.27-.3,0-.15.12-.28.3-.28h10.46c.16,0,.24.14.26.25.01.1-.04.32-.22.32Z"/><path d="M8.7,20.46c0,1.03-.83,1.86-1.86,1.86s-1.86-.83-1.86-1.86.83-1.86,1.86-1.86,1.86.83,1.86,1.86ZM8.12,20.46c0-.71-.57-1.28-1.28-1.28s-1.28.57-1.28,1.28.57,1.28,1.28,1.28,1.28-.57,1.28-1.28Z"/><path d="M26.84,20.46c0,1.03-.83,1.86-1.86,1.86s-1.86-.83-1.86-1.86.83-1.86,1.86-1.86,1.86.83,1.86,1.86ZM26.26,20.46c0-.71-.57-1.28-1.28-1.28s-1.28.57-1.28,1.28.57,1.28,1.28,1.28,1.28-.57,1.28-1.28Z"/></svg>