<?xml version="1.0" encoding="UTF-8"?><svg id="Layer_10" xmlns="http://www.w3.org/2000/svg" viewBox="0 0 32 32"><path d="M23.01,28.37h-14s-.02,1.57-.02,1.57c0,.83-.68,1.48-1.51,1.48h-3.04c-.83,0-1.51-.66-1.52-1.49l-.02-1.57c-.81.04-1.56-.11-1.93-.82-.15-.3-.19-.61-.19-.96v-7.94c0-.41.03-.78.1-1.16.12-.66.56-1.17,1.2-1.38.38-.12.74-.15,1.15-.17l.5-1.74,1.25-4.48c.33-1.18,1.24-2.05,2.5-2.05h4.79s0-1.99,0-1.99c0-.69.56-1.21,1.25-1.23h5.03c.66.04,1.21.54,1.21,1.21v1.98s4.93,0,4.93,0c.63,0,1.18.33,1.6.76.34.35.56.75.69,1.21l1.23,4.28.59,2.05c.35.02.67.03.99.12,1.08.28,1.41,1.16,1.41,2.22v8.32c0,.22-.02.4-.07.6-.13.57-.57,1-1.15,1.12-.29.06-.58.06-.89.06l-.02,1.57c0,.8-.67,1.47-1.48,1.48h-2.98c-.89.01-1.61-.64-1.62-1.54v-1.51ZM19.08,7.63v-1.96c-.02-.33-.28-.57-.62-.54h-4.93c-.32.01-.56.25-.56.57v1.94s6.11,0,6.11,0ZM23.69,27.7v2.19c.02.48.41.85.88.85h2.98c.46,0,.85-.37.85-.84l.02-2.21,1.24-.02c.5,0,.84-.37.87-.88v-8.49c0-.75-.15-1.45-.92-1.61-.35-.08-.72-.09-1.08-.09-.19,0-.28-.11-.33-.28l-.9-3.12-.94-3.29c-.12-.43-.29-.81-.62-1.11-.29-.28-.66-.5-1.09-.5h-9.11s-2.77.02-2.77.02l-5.45.02c-.44,0-.83.24-1.12.53-.31.31-.47.67-.58,1.09l-1.82,6.45c-.05.16-.25.21-.38.21-.81,0-1.7.08-1.87.96-.06.28-.09.56-.09.86v8.35c0,.43.27.76.66.84.2.04.39.04.59.05h.86s.01,2.17.01,2.17c0,.51.4.88.9.88h2.95c.46,0,.85-.36.85-.84v-2.21s14.61,0,14.61,0c.28,0,.51-.03.78.01Z"/><path d="M16.73,2.91c0,.24-.21.38-.41.37s-.38-.16-.38-.39V1c0-.23.14-.4.37-.42.18-.02.42.12.42.34v1.99Z"/><path d="M21.3,4.09c-.15.16-.41.1-.53-.01s-.2-.38-.05-.53l1.37-1.39c.15-.15.39-.15.54-.03.16.13.21.4.06.56l-1.38,1.4Z"/><path d="M11.48,3.46c.17.17.07.45-.07.56-.19.14-.4.1-.56-.06l-1.25-1.26c-.16-.16-.21-.36-.08-.55.1-.15.39-.27.56-.1l1.41,1.42Z"/><path d="M27.28,16.69c.04.15-.11.33-.26.33H5c-.1,0-.2-.08-.23-.14-.05-.08-.04-.18-.01-.29l1.56-5.51c.19-.65.74-1.11,1.4-1.19h16.54c.65,0,1.23.56,1.4,1.15l.85,2.93.77,2.71ZM26.11,14.56l-.92-3.22c-.14-.48-.52-.91-1-.91H7.79c-.45,0-.76.4-.93.75l-.27.97-1.22,4.32h21.26s-.54-1.91-.54-1.91Z"/><path d="M17.01,26.47h-2.05c-.34-.02-.67-.29-.67-.65v-1.63s-1.62,0-1.62,0c-.37,0-.63-.32-.65-.67v-2.15c.03-.34.28-.67.65-.67h1.61s0-1.54,0-1.54c0-.42.32-.74.74-.74h2.03c.35.03.66.31.66.68v1.58s1.57,0,1.57,0c.38,0,.68.32.69.69v2.16c-.04.35-.3.65-.66.65h-1.59s0,1.62,0,1.62c0,.38-.33.65-.71.66ZM17.17,25.75v-1.79c0-.19.13-.31.31-.31h1.75c.09,0,.2-.06.2-.16v-2.06c0-.11-.11-.17-.2-.17h-1.78c-.17,0-.28-.14-.28-.3v-.98s0-.77,0-.77c0-.07-.06-.2-.15-.2h-1.99c-.1,0-.19.07-.19.18v1.78c0,.13-.1.3-.25.3h-1.84c-.08,0-.18.07-.18.17v2.05c0,.1.08.18.18.18h1.81c.17,0,.28.15.28.31v1.78c0,.1.08.19.18.19h1.96c.09,0,.18-.07.18-.17Z"/><path d="M27.93,24.39h-4.68c-.31,0-.57-.13-.73-.35-.18-.24-.25-.59-.11-.87l.7-1.38c.32-.62.93-1.07,1.65-1.07h3.21c.57,0,.92.49.92,1.01v1.77c-.02.49-.44.89-.96.89ZM27.96,23.84c.22,0,.37-.2.37-.39v-1.86c0-.23-.21-.35-.42-.35h-3.13c-.45,0-.9.28-1.11.67l-.76,1.43c-.05.09-.03.24.01.32.03.07.14.17.26.17h4.77Z"/><path d="M9.58,23.88c-.16.36-.49.51-.88.51h-4.59c-.59,0-1-.44-1-1.02v-1.72c0-.52.42-.94.94-.94h3.15c.76,0,1.38.48,1.72,1.12l.58,1.1c.16.29.22.62.08.93ZM8.75,23.85c.15,0,.26-.06.31-.15.04-.07.08-.24.04-.32l-.79-1.48c-.19-.36-.62-.63-1.04-.64h-3.19c-.22-.01-.42.14-.42.37v1.84c0,.25.22.38.45.38h4.64Z"/></svg>