<?xml version="1.0" encoding="UTF-8"?><svg id="Layer_11" xmlns="http://www.w3.org/2000/svg" viewBox="0 0 32 32"><path d="M27.08,22.94c-.17,1.67-1.59,2.92-3.25,2.93s-3.08-1.25-3.26-2.93h-9.74c-.07.73-.38,1.4-.89,1.92-.75.77-1.8,1.13-2.9.96-1.44-.23-2.59-1.45-2.72-2.9H1.2c-.58,0-.95-.52-.95-1.06v-1.16c.01-.43.31-.78.72-.91v-11.7c0-1.09.93-1.97,1.94-1.97h17.44c1.11,0,2.09.63,2.68,1.54l2.93,4.53.97,1.5.96.45,1.62.78c1.03.5,1.73,1.46,1.76,2.62v2.34c.29.2.48.48.48.84v1.22c0,.55-.42.99-.98.99h-3.68ZM30.8,22.34c.21,0,.35-.2.35-.37v-1.3c0-.22-.25-.34-.46-.34l-.02-.36h-1.68c-.49-.01-.92-.43-.92-.91v-.92c0-.56.45-.98,1.01-.98h1.53c-.17-.69-.57-1.28-1.19-1.58l-1.69-.83-1.24-.6-4.14-6.31c-.43-.66-1.28-1.07-2.07-1.07H2.94c-.74,0-1.33.62-1.33,1.35v12.18c-.08.04-.16.06-.25.05-.2-.02-.47.09-.48.33v1.3c.01.22.18.35.4.35h3.03c.12-1.26.94-2.32,2.11-2.76.63-.24,1.31-.25,1.97-.11,1.33.36,2.33,1.51,2.44,2.89h9.73c.14-1.63,1.45-2.91,3.08-2.98,1.77-.12,3.29,1.22,3.44,2.98h3.71ZM30.67,19.37v-1.63s-1.57,0-1.57,0c-.25-.01-.44.17-.44.41v.81c0,.2.14.36.34.41h1.68ZM10.24,22.61c0-1.47-1.19-2.66-2.66-2.66s-2.66,1.19-2.66,2.66,1.19,2.66,2.66,2.66,2.66-1.19,2.66-2.66ZM26.49,22.61c0-1.47-1.19-2.66-2.66-2.66s-2.66,1.19-2.66,2.66,1.19,2.66,2.66,2.66,2.66-1.19,2.66-2.66Z"/><path d="M13.61,10.91c.37.81.38,1.76.04,2.57-.65,1.57-2.38,2.39-4.02,1.92l-3.86,3.49c-.67.47-1.59.33-2.1-.3-.27-.33-.38-.75-.33-1.17.04-.36.21-.62.46-.87l3.54-3.43c-.26-.87-.16-1.78.25-2.56.81-1.52,2.63-2.16,4.2-1.47.08.06.14.14.15.22.01.11-.04.21-.12.29l-1.72,1.73c.02.3.09.59.21.89.03.08.12.17.2.2.28.11.54.17.86.21l1.76-1.76c.11-.11.38-.14.47.05ZM12.62,14c.59-.65.8-1.53.61-2.37l-1.46,1.46c-.14.14-.37.15-.55.14-.61-.14-1.24-.2-1.47-.81-.14-.38-.39-1.22-.17-1.44l1.51-1.51c-.23-.07-.45-.08-.68-.07-.87.03-1.62.46-2.11,1.17s-.66,1.66-.35,2.51c.05.13.03.25-.08.35l-3.75,3.66c-.31.3-.24.81,0,1.11.37.47.99.48,1.41.1l3.74-3.4c.14-.13.26-.15.45-.1,1.05.32,2.16.03,2.9-.8Z"/><path d="M24.94,13.34c.15.23.21.47.08.74-.08.18-.3.4-.56.4h-6.38c-.46,0-.87-.45-.87-.9v-4.71c0-.47.38-.86.85-.86h2.37c.62-.01,1.14.22,1.48.74l1.83,2.78,1.2,1.82ZM24.43,13.87c.07-.09.03-.14-.02-.21l-3.1-4.71c-.14-.21-.41-.35-.66-.36h-2.54c-.17,0-.3.1-.3.28v4.7c0,.2.21.31.38.29h6.24Z"/><path d="M19.96,16.62h-1.74c-.16,0-.27-.17-.26-.3s.13-.29.29-.29h1.62c.16,0,.29.08.32.23.03.13-.04.36-.23.36Z"/><path d="M9.05,22.62c0,.82-.67,1.49-1.49,1.49s-1.49-.67-1.49-1.49.67-1.49,1.49-1.49,1.49.67,1.49,1.49ZM8.45,22.62c0-.49-.4-.89-.89-.89s-.89.4-.89.89.4.89.89.89.89-.4.89-.89Z"/><path d="M25.31,22.62c0,.82-.67,1.49-1.49,1.49s-1.49-.67-1.49-1.49.67-1.49,1.49-1.49,1.49.67,1.49,1.49ZM24.71,22.62c0-.49-.4-.89-.89-.89s-.89.4-.89.89.4.89.89.89.89-.4.89-.89Z"/></svg>