<?xml version="1.0" encoding="UTF-8"?><svg id="fleet-management" xmlns="http://www.w3.org/2000/svg" viewBox="0 0 32 32"><path d="M28.55,16.42h-3.34c-.08.37-.39.67-.78.67h-.79c.45.47.81,1.05.81,1.71v5.85c0,.43-.4.8-.81.8h-1.38c-.42,0-.75-.39-.78-.8v-.83s-11.03,0-11.03,0v.75c0,.46-.36.88-.84.88h-1.3c-.44,0-.82-.4-.82-.86v-5.63c0-.72.3-1.36.81-1.86h-.74c-.41,0-.75-.29-.82-.68h-3.28s-.01.47-.01.47c0,.41-.33.83-.76.83h-1.01c-.45,0-.83-.37-.83-.84v-4.5c0-.59.28-1.1.68-1.52h-.29c-.46-.01-.82-.39-.81-.86,0-.44.34-.83.78-.83h1.2s.46-1.55.46-1.55c.18-.62.8-1.07,1.45-1.07h6.69c.7,0,1.27.56,1.46,1.19l.41,1.41h1.16c.48,0,.84.42.81.89,0,.39-.27.68-.64.79l-.43.02c.25.28.45.56.55.9h3.32c.11-.34.29-.63.56-.9h-.31c-.46-.04-.81-.42-.78-.88.01-.49.4-.82.88-.82h1.1s.42-1.46.42-1.46c.19-.67.81-1.15,1.52-1.15h6.67c.64,0,1.22.5,1.41,1.08l.45,1.53h1.22c.45.01.78.41.77.84.02.43-.29.8-.72.85h-.39c.51.49.7,1.12.7,1.8v4.27c-.02.43-.39.8-.8.8h-.98c-.45,0-.8-.36-.83-.79v-.5ZM12.66,10.16l-.69-2.35c-.15-.52-.66-.81-1.19-.77h-6.43c-.56.02-.94.4-1.08.92l-.63,2.2h10.03ZM29.36,10.16l-.67-2.33c-.18-.51-.64-.83-1.18-.79h-6.5c-.46.06-.85.33-.98.78l-.68,2.34h10.02ZM2.08,10.36l.19-.71h-1.09c-.18.05-.27.2-.27.38s.13.33.32.33h.84ZM14.36,9.98c-.01-.19-.14-.33-.32-.34h-1.02s.2.72.2.72h.79c.22,0,.37-.14.35-.38ZM18.79,10.36l.19-.71h-1.06c-.18.03-.3.19-.28.38,0,.18.13.33.31.33h.84ZM31.08,10.02c0-.21-.13-.37-.33-.37h-1.02s.19.71.19.71h.89c.17-.01.26-.19.26-.35ZM4.02,15.93l.05-.87c.03-.42.43-.71.85-.71h4.58s.31-1.16.31-1.16c.22-.81.9-1.38,1.75-1.42h2.24c-.1-.24-.23-.43-.41-.59l-.59-.53H2.49s-.19.18-.19.18c-.2.19-.43.36-.6.58-.29.36-.37.78-.37,1.23v4.19c0,.24.15.42.39.42h.86c.21,0,.38-.14.38-.36v-.53c0-.22.17-.41.4-.41h.68ZM28.65,15.94c.23,0,.39.2.39.41v.56c0,.16.16.33.33.33h.91c.24,0,.4-.17.4-.41v-4.42c0-.49-.25-.93-.6-1.24l-.56-.51h-10.3s-.47.41-.47.41c-.23.19-.41.4-.54.7h2.23c.85.09,1.48.71,1.7,1.52l.28,1.07h4.71c.38,0,.74.28.8.65l.06.94h.67ZM22.42,16.29l-.83-3.07c-.2-.6-.74-.97-1.37-.96h-8.63c-.56.04-1.08.38-1.24.94l-.85,3.1h12.92ZM7.62,15.28h1.63s.12-.44.12-.44h-4.49c-.16.02-.31.14-.32.31l-.05.79h2.23c.1-.41.45-.66.88-.65ZM27.48,15.93l-.04-.78c0-.13-.13-.31-.3-.31h-4.6s.12.45.12.45h1.7c.39,0,.72.27.82.65h2.29ZM8.85,16.61s.08-.01.08-.03v-.1s.19-.71.19-.71h-1.56c-.23,0-.35.22-.35.42,0,.21.12.42.36.42h1.29ZM24.73,16.2c0-.2-.11-.43-.33-.43h-1.59s.21.83.21.83h1.38c.22,0,.33-.2.34-.41ZM19.72,21.49c.42,0,.83.3.86.7l.08,1.14h.87c.24,0,.42.2.43.42v.85c0,.2.19.37.39.37h1.24c.2,0,.38-.16.38-.37v-5.58c0-.53-.17-1-.53-1.39l-.69-.62s-.08-.09-.09-.1l.2-.17-.39.06h-13.11s-.08.03-.08.06v.08s-.52.46-.52.46c-.41.35-.77.86-.77,1.43v5.79c-.01.2.17.37.36.37h1.22c.2,0,.38-.17.38-.37v-.84c.03-.25.24-.42.49-.42h.84s.09-1.14.09-1.14c.03-.38.41-.7.82-.7h7.55ZM20.1,22.35c-.01-.21-.17-.35-.37-.36h-7.48c-.21,0-.4.12-.42.33l-.07,1.02h8.38s-.06-.99-.06-.99Z"/><path d="M19.85,20.78c-.31,0-.53-.31-.45-.57l.23-.77c.09-.3.35-.47.65-.52l2.42-.39c.32-.05.58.17.58.49v1.16c0,.3-.21.6-.55.6h-2.88ZM22.7,20.29c.06-.03.09-.08.09-.12v-1.16s-2.46.4-2.46.4c-.11.02-.2.1-.23.2l-.21.68h2.81Z"/><path d="M12.53,20.2c.09.27-.15.58-.44.58h-2.85c-.29,0-.57-.24-.58-.53l-.03-1.24c0-.29.25-.53.55-.48l2.47.4c.27.04.52.21.61.48l.25.79ZM12.04,20.29l-.2-.68c-.05-.1-.12-.17-.23-.2l-2.47-.39v1.16c.01.05.06.11.12.12h2.79Z"/><path d="M27.13,13.92c-.26-.05-.45-.29-.36-.53l.26-.7c.06-.16.24-.31.42-.34l2.18-.35c.22-.04.47.16.47.38v1.06c0,.25-.21.47-.47.47h-2.49ZM27.28,13.43h2.33s0-.93,0-.93l-1.96.31c-.1.01-.17.08-.2.17l-.16.45Z"/><path d="M5.23,13.43c.06.23-.14.49-.39.49h-2.45c-.3,0-.49-.27-.49-.55v-.87c0-.29.19-.5.49-.5l2.08.34c.2.03.41.16.49.35.11.24.19.48.27.74ZM4.56,12.96c-.03-.09-.14-.15-.23-.15l-1.93-.31v.93s2.33,0,2.33,0l-.17-.47Z"/></svg>