<?xml version="1.0" encoding="UTF-8"?><svg id="car-rental" xmlns="http://www.w3.org/2000/svg" viewBox="0 0 32 32"><path d="M28.11,25.24c-.94,1.67-3.1,2.19-4.69,1.09-.41-.28-.75-.65-1-1.09h-12.51c-.81,1.39-2.34,1.97-3.86,1.51-.77-.26-1.41-.79-1.82-1.51H1.62c-.2,0-.39-.07-.55-.15-.3-.16-.44-.43-.47-.76-.06-.56-.09-1.09-.09-1.66V7.87c0-.54-.01-1.05.02-1.58.03-.66.61-1.2,1.28-1.2h18.36c.65.03,1.24.54,1.24,1.2v2.74s5.11.01,5.11.01c.48,0,.95.31,1.21.71l3.33,4.86c.25.36.43.76.44,1.22v6.94s-.05,1.49-.05,1.49c-.04.53-.47.98-1.03.98h-2.31ZM8.7,20.68c.72.44,1.25,1.1,1.5,1.9h10.49s0-16.24,0-16.24c0-.31-.3-.53-.59-.53H1.8c-.36.02-.59.29-.57.66v16.11s2.72,0,2.72,0c.34-1.07,1.17-1.89,2.22-2.21.87-.25,1.74-.15,2.53.32ZM30.83,22.57v-6.7c-.02-.29-.08-.54-.24-.77l-1.18-1.72-2.22-3.26c-.2-.24-.44-.43-.76-.43h-5.01s0,12.87,0,12.87h.73c.32-.99,1.04-1.76,2.01-2.14.79-.3,1.65-.27,2.42.08.87.4,1.53,1.14,1.82,2.06h2.44ZM9.72,23.57c0-1.46-1.18-2.64-2.64-2.64s-2.64,1.18-2.64,2.64,1.18,2.64,2.64,2.64,2.64-1.18,2.64-2.64ZM27.91,23.57c0-1.46-1.18-2.64-2.64-2.64s-2.64,1.18-2.64,2.64,1.18,2.64,2.64,2.64,2.64-1.18,2.64-2.64ZM3.94,24.58c-.14-.47-.18-.9-.13-1.35H1.17s.1.99.1.99c.02.22.16.36.39.36h2.29ZM22.12,24.58c-.13-.46-.17-.89-.13-1.35h-11.66c.05.47,0,.91-.13,1.35h11.92ZM30.78,24.14l.05-.91h-2.29c.03.45,0,.9-.14,1.35h1.99c.23,0,.38-.23.39-.45Z"/><path d="M14.72,18.95h-7.74c-.48,0-.85-.44-.85-.88v-.72s.01-6.4.01-6.4c0-.48.4-.88.88-.88h7.77c.48,0,.87.41.87.88v7.05c0,.54-.4.94-.95.94ZM14.72,10.77h-2.17s0,1.98,0,1.98c0,.36-.31.62-.66.59h-2.01c-.31-.03-.57-.27-.57-.59v-1.98s-2.22,0-2.22,0c-.16,0-.25.15-.24.3v5.66s-.02,1.27-.02,1.27c0,.15.1.28.27.28h7.62c.16,0,.27-.13.27-.28v-6.99c0-.14-.11-.25-.25-.25ZM9.99,10.76v1.92s1.89,0,1.89,0v-1.92s-1.89,0-1.89,0Z"/><path d="M28.93,16.27h-5.86c-.33,0-.59-.31-.59-.62v-3.96c0-.31.26-.61.59-.61h2.95c.22,0,.49.07.63.27l2.74,3.95c.13.19.16.42.06.63-.08.16-.26.34-.51.34ZM28.79,15.61l-2.67-3.88h-2.96s0,3.89,0,3.89h5.63Z"/><path d="M24.81,18.28h-2.01c-.18,0-.3-.16-.31-.31,0-.17.11-.34.31-.34h2.03c.17,0,.28.17.28.31s-.1.33-.3.33Z"/><path d="M26.83,23.57c0,.86-.7,1.56-1.56,1.56s-1.56-.7-1.56-1.56.7-1.56,1.56-1.56,1.56.7,1.56,1.56ZM26.16,23.57c0-.49-.4-.9-.9-.9s-.9.4-.9.9.4.9.9.9.9-.4.9-.9Z"/><path d="M8.63,23.57c0,.86-.7,1.56-1.56,1.56s-1.56-.7-1.56-1.56.7-1.56,1.56-1.56,1.56.7,1.56,1.56ZM7.97,23.57c0-.5-.4-.9-.9-.9s-.9.4-.9.9.4.9.9.9.9-.4.9-.9Z"/></svg>