<?xml version="1.0" encoding="UTF-8"?><svg id="car-rental" xmlns="http://www.w3.org/2000/svg" viewBox="0 0 32 32"><path d="M30.35,23.25h-2.15c-.03.59-.21,1.12-.51,1.61-.76,1.22-2.23,1.8-3.62,1.43s-2.37-1.59-2.46-3.03h-11.89c-.12,1.89-1.71,3.27-3.54,3.13-1.66-.13-2.97-1.47-3.05-3.13h-1.28c-.71-.01-1.35-.6-1.35-1.35V7.21c0-.8.81-1.61,1.66-1.61h15.51c.82.07,1.47.72,1.54,1.54v1.23s3.29.01,3.29.01c.54,0,1,.31,1.36.69.83.87,1.59,1.76,2.36,2.69l2.25,2.74c.08.1.2.16.31.22l1.7.93c.61.34,1.03.96,1.03,1.67v4.79c0,.63-.52,1.14-1.15,1.14ZM8.15,20.22c.86.54,1.43,1.43,1.56,2.42h8.89s0-15.43,0-15.43c0-.53-.5-.99-1.01-.99H2.16c-.52.07-1.01.45-1.01,1v14.68c.02.39.31.72.7.72h1.3c.15-1.05.77-1.96,1.68-2.48,1.04-.59,2.29-.57,3.31.07ZM28.01,19.14v-1.07c.03-.44.41-.83.86-.83h2.02c-.06-.55-.41-.92-.86-1.16l-1.47-.8c-.23-.13-.44-.25-.61-.46l-2.4-2.92c-.7-.85-1.42-1.66-2.17-2.46-.28-.28-.61-.46-1.02-.46h-3.15s0,13.67,0,13.67h2.42c.21-1.57,1.45-2.76,3-2.91.97-.08,1.9.28,2.59.97.52.53.87,1.2.96,1.94h2.12c.33-.02.58-.26.59-.59v-1.9s-1.82-.01-1.82-.01c-.55,0-.98-.46-1.06-1ZM29.18,19.58h1.71s0-1.78,0-1.78h-1.95c-.18,0-.33.12-.37.3v.86c-.01.34.24.61.6.62ZM9.17,23.07c0-1.51-1.22-2.73-2.73-2.73s-2.73,1.22-2.73,2.73,1.22,2.73,2.73,2.73,2.73-1.22,2.73-2.73ZM27.65,23.07c0-1.51-1.22-2.73-2.73-2.73s-2.73,1.22-2.73,2.73,1.22,2.73,2.73,2.73,2.73-1.22,2.73-2.73Z"/><path d="M14.85,18.78H5.35c-.2,0-.39-.18-.39-.37v-.72c-.02-.26.14-.45.41-.46h.19s0-.53,0-.53c0-.23.15-.44.39-.45h.26s0-3.39,0-3.39c-.19,0-.37-.13-.37-.33v-.72c-.3.02-.54-.17-.59-.44-.07-.31.1-.57.38-.72l3.26-1.7,1.01-.52c.15-.08.32-.07.48.01l4.31,2.28c.32.17.34.64.15.88-.13.17-.28.22-.49.22v.66c0,.23-.17.39-.4.38v3.38s.25,0,.25,0c.22,0,.41.18.41.4v.58s.17,0,.17,0c.23,0,.45.16.45.41v.72c0,.19-.14.42-.37.42ZM11.24,9.54l-1.13-.57-4.34,2.28h8.65s-3.19-1.7-3.19-1.7ZM10.97,12.29c.16,0,.27.17.26.28,0,.15-.1.26-.28.28v3.39s1.23,0,1.23,0v-3.39c-.17-.02-.28-.14-.29-.28,0-.13.11-.28.27-.28h1.61s0-.47,0-.47h-7.36s0,.47,0,.47h1.64c.16,0,.26.19.24.31-.02.14-.13.26-.32.26v3.39s1.27,0,1.27,0v-3.38c-.17-.03-.28-.15-.27-.31s.13-.26.3-.26h1.71ZM7.4,12.85h-.62s0,3.39,0,3.39h.62s0-3.39,0-3.39ZM12.76,12.85v3.4s.62,0,.62,0v-3.4s-.62,0-.62,0ZM10.39,12.86h-.59s0,3.39,0,3.39h.59s0-3.39,0-3.39ZM6.12,16.8v.44s7.92,0,7.92,0v-.44s-7.92,0-7.92,0ZM5.51,17.79v.42s9.16,0,9.16,0v-.42s-9.16,0-9.16,0Z"/><path d="M26.46,14.4c.16.18.2.38.12.61-.06.13-.23.34-.45.34h-5.29c-.35,0-.57-.3-.57-.62v-3.64c0-.33.31-.56.61-.56h1.98c.26,0,.54.13.71.34l2.88,3.53ZM23.24,11.39c-.12-.15-.23-.24-.41-.28h-1.96s0,3.67,0,3.67h5.14s-2.77-3.39-2.77-3.39Z"/><path d="M21.75,17.39h-1.06c-.18,0-.33-.07-.35-.26-.02-.14.09-.32.27-.32h1.17c.18,0,.3.15.3.3,0,.18-.14.29-.33.29Z"/><path d="M7.91,23.07c0,.82-.66,1.48-1.48,1.48s-1.48-.66-1.48-1.48.66-1.48,1.48-1.48,1.48.66,1.48,1.48ZM7.34,23.07c0-.5-.41-.91-.91-.91s-.91.41-.91.91.41.91.91.91.91-.41.91-.91Z"/><path d="M26.4,23.07c0,.82-.67,1.49-1.49,1.49s-1.49-.67-1.49-1.49.67-1.49,1.49-1.49,1.49.67,1.49,1.49ZM25.82,23.07c0-.5-.41-.91-.91-.91s-.91.41-.91.91.41.91.91.91.91-.41.91-.91Z"/></svg>