<?xml version="1.0" encoding="UTF-8"?><svg id="car-rental" xmlns="http://www.w3.org/2000/svg" viewBox="0 0 32 32"><path d="M26.89,20.34h-3.22c-.08.59-.51,1.07-1.04,1.25-.62.2-1.25.03-1.68-.44-.35-.39-.48-.91-.36-1.45.1-.44.42-.84.87-1.07h-1.38s-.02,1.18-.02,1.18c0,.24-.28.45-.54.45h-10.9c-.04.42-.22.77-.54,1.04-.45.39-1.09.49-1.66.24-.49-.22-.87-.68-.93-1.27h-.36c-.09.82-.77,1.41-1.57,1.41s-1.48-.6-1.56-1.41h-.68c-.42-.01-.84-.37-.84-.82v-8.25c0-.48.43-.86.9-.86h21.89c.58,0,.94.42.94.99v6.73s.52,0,.52,0v-5.73c.01-.25.33-.45.56-.45h2.97c.21,0,.44.04.59.19l1.38,1.4,1.08,1.11c.13.14.17.34.16.53v4.65c0,.34-.32.6-.63.6h-.88c-.12.78-.78,1.33-1.54,1.33s-1.44-.55-1.56-1.33ZM7.24,18.5c.66.07,1.18.55,1.36,1.18h10.91s0-1.06,0-1.06c0-.31.22-.54.53-.57h3.59s0-6.76,0-6.76c0-.21-.1-.38-.33-.38H1.38c-.15,0-.29.16-.29.31v8.19c.02.15.13.27.28.27h.68c.21-.77.93-1.28,1.71-1.18.65.08,1.16.56,1.33,1.18h.45c.21-.75.89-1.27,1.69-1.18ZM30.8,19.78c.06,0,.11-.05.11-.11v-4.59c0-.09-.04-.16-.09-.22l-.27-.28-2.03-2.07c-.07-.06-.15-.09-.25-.09h-2.95s0,5.69,0,5.69c0,.3-.28.51-.56.51h-1.99c.47.27.78.64.88,1.15h3.23c.16-.75.79-1.31,1.57-1.29s1.37.56,1.53,1.29h.81ZM4.59,20.08c0-.56-.45-1.01-1.01-1.01s-1.01.45-1.01,1.01.45,1.01,1.01,1.01,1.01-.45,1.01-1.01ZM8.09,20.08c0-.56-.45-1.01-1.01-1.01s-1.01.45-1.01,1.01.45,1.01,1.01,1.01,1.01-.45,1.01-1.01ZM23.14,20.08c0-.56-.45-1.01-1.01-1.01s-1.01.45-1.01,1.01.45,1.01,1.01,1.01,1.01-.45,1.01-1.01ZM29.46,20.08c0-.56-.45-1.01-1.01-1.01s-1.01.45-1.01,1.01.45,1.01,1.01,1.01,1.01-.45,1.01-1.01Z"/></svg>