<?xml version="1.0" encoding="UTF-8"?><svg id="car-rental" xmlns="http://www.w3.org/2000/svg" viewBox="0 0 32 32"><path d="M22.24,28.01h-12.47s0,2.67,0,2.67c0,.69-.56,1.22-1.23,1.26h-3.09c-.64-.08-1.16-.57-1.16-1.23v-2.76c-.63-.19-1.12-.75-1.12-1.43v-12.65s-1.46-.01-1.46-.01c-.67,0-1.16-.59-1.19-1.25v-4.44c.01-.67.52-1.24,1.19-1.28h1.46s0-3.01,0-3.01c0-1.1.37-2.16,1.18-2.91C4.9.43,5.67.05,6.48.05h19.08c.8,0,1.55.39,2.12.92.74.7,1.17,1.67,1.17,2.69v3.21s1.46.01,1.46.01c.68,0,1.18.61,1.19,1.28v4.44c-.03.67-.54,1.25-1.22,1.25h-1.43s0,12.68,0,12.68c0,.68-.5,1.23-1.1,1.41v2.76c-.02.67-.58,1.18-1.23,1.23h-3.04c-.66-.04-1.17-.54-1.24-1.2v-2.74ZM28.12,26.49V3.7c0-.84-.35-1.64-.94-2.21-.46-.43-1.05-.72-1.69-.72H6.54c-.7,0-1.36.34-1.83.82-.52.54-.79,1.24-.84,1.99v22.93c0,.48.41.77.86.77h22.66c.42,0,.71-.38.73-.8ZM1.76,13.15h1.39s0-5.55,0-5.55h-1.36c-.29,0-.53.21-.57.51v4.47c0,.31.22.58.54.58ZM30.78,12.63v-4.52c-.03-.25-.23-.5-.5-.5h-1.43s0,5.55,0,5.55h1.42c.28,0,.48-.24.51-.53ZM8.48,31.22c.32-.01.56-.26.56-.57v-2.64s-4.06,0-4.06,0v2.67c0,.3.25.52.52.55h2.97ZM26.46,31.22c.32-.02.55-.26.55-.57v-2.64s-4.05,0-4.05,0v2.7c0,.31.32.52.61.51h2.9Z"/><path d="M27.07,16.45v1.55c-.09,1.03-.97,1.78-2.01,1.71H6.94c-1.06.07-1.94-.71-2.01-1.77V7.66c0-1.04.85-1.88,1.89-1.88h18.46c.91,0,1.71.8,1.77,1.67l.02,2.03v1.69s0,5.28,0,5.28ZM25.22,19c.56,0,1.12-.45,1.12-1.03V7.56c0-.63-.58-1.07-1.17-1.07H6.74c-.58,0-1.09.52-1.09,1.1v10.4c.07.6.58,1.03,1.19,1.01h18.37Z"/><path d="M20.85,4.7h-9.66c-.52,0-.94-.4-.94-.92v-1.04c0-.56.49-.9,1.03-.9h9.46c.54,0,1,.37.99.93v1.05c0,.45-.39.88-.89.88ZM21.02,2.57h-10.04v1.43h10.04v-1.43Z"/><path d="M9.98,25.61h-3.39c-.63,0-1.17-.49-1.17-1.12v-1.34c-.02-.63.46-1.21,1.12-1.21h3.31c.6,0,1.14.46,1.16,1.06v1.57c0,.54-.48.96-1.02,1.04ZM9.85,24.89c.28,0,.45-.25.45-.48v-1.35c0-.2-.2-.42-.41-.42h-3.32c-.24,0-.41.19-.44.42v1.35c0,.26.16.45.42.49h3.31Z"/><path d="M25.3,25.61h-.66s-2.63-.02-2.63-.02c-.55,0-1.02-.55-1.02-1.08v-1.51c0-.56.53-1.05,1.11-1.06h3.33c.71,0,1.16.6,1.16,1.27v1.22c0,.7-.58,1.22-1.29,1.18ZM25.45,24.89c.24,0,.42-.22.42-.42v-1.44c0-.23-.25-.39-.46-.39h-3.18c-.32,0-.53.19-.53.51v1.28c0,.25.21.46.46.46h3.29Z"/></svg>