<?xml version="1.0" encoding="UTF-8"?><svg id="paa" xmlns="http://www.w3.org/2000/svg" viewBox="0 0 32 32"><path d="M19.16,17.62c-.29,0-.52-.13-.66-.33-.16-.22-.17-.5-.08-.75l.33-.91h-1.02s-1.35,3.68-1.35,3.68l-.44,1.19h.97s.51-1.38.51-1.38c.13-.36.45-.7.88-.7h12.18c.28,0,.49.09.65.28s.23.46.16.72l-1.23,4.05c-.13.44-.58.63-1.01.63h-12.32c-.51-.01-.92-.58-.76-1.04l.68-1.88h-.97s-.44,1.19-.44,1.19l-.56,1.53c-.18.49-.59.91-1.16.91H1.85c-.36,0-.68-.1-.9-.37-.19-.23-.35-.62-.2-.93l1.43-3.02,2.21-4.69,3.75-7.9c.22-.47.71-.72,1.23-.72h9.87c.27,0,.52.11.71.27.37.3.47.76.31,1.2l-.47,1.31h1.01s.3-.75.3-.75c.16-.4.54-.59.96-.59l5.47-.04c.23,0,.43.13.54.27.15.18.2.44.13.66l-.65,2.22c-.12.4-.44.75-.89.75l-5.74.03c-.26,0-.48-.07-.64-.26-.14-.17-.23-.43-.14-.66l.37-.95h-.98s-1.57,4.29-1.57,4.29h1.01s.41-1.12.41-1.12c.13-.35.48-.56.86-.56l8.66-.05c.25,0,.47.05.62.22.14.16.25.41.19.64l-.77,2.74c-.12.42-.44.8-.91.8h-8.9ZM14.01,23.71l1.9-5.19,1.17-3.17,2.06-5.62.5-1.4c.06-.18-.11-.44-.34-.44h-10.01c-.26,0-.47.19-.56.41l-5.79,12.25-1.52,3.2c-.09.19.15.39.32.39h11.76c.27,0,.43-.2.51-.43ZM20.82,11.82l5.74-.03c.19,0,.28-.1.33-.26l.67-2.26h-1.17s-3.12.03-3.12.03h-1.3c-.13.03-.21.13-.25.25l-.9,2.27ZM19.19,16.92h8.78c.18-.01.27-.11.31-.26l.79-2.76-4,.02-4.78.03c-.15,0-.26.11-.3.24l-.93,2.62v.09s.06.02.12.02ZM29.43,23.14l.95-3.11.23-.79c.02-.05-.02-.13-.1-.13h-12.1c-.11,0-.25.05-.29.16l-1.47,3.93s0,.13.02.15c.02.02.09.06.14.06h12.35c.16,0,.24-.11.28-.26Z"/></svg>