<?xml version="1.0" encoding="UTF-8"?><svg id="white-label" xmlns="http://www.w3.org/2000/svg" viewBox="0 0 32 32"><path d="M19.17,24.22v4.42c0,.49-.43.94-.93.94h-4.45c-.51,0-.95-.44-.95-.94v-4.42c.04-.53.46-.91.98-.94h1.85s0-2.92,0-2.92H4.32s0,2.92,0,2.92h1.84c.56.02,1,.46,1.01,1.03v4.35c-.02.51-.47.94-.97.94H1.77c-.51,0-.95-.44-.95-.95v-4.37c.02-.54.42-.99.96-.99h1.86s0-3.15,0-3.15c0-.25.21-.42.45-.43h11.56s0-3.51,0-3.51h-5.47c-.59-.04-1.04-.51-1.04-1.11V3.44c0-.53.48-1.02,1.01-1.02h11.53c.66-.01,1.15.47,1.15,1.13v11.39c0,.29-.03.56-.2.78-.2.27-.47.43-.81.47h-5.5s0,3.51,0,3.51h11.52c.27,0,.49.18.49.46v3.05s.03.06.04.07h1.84c.5.02.93.46.93.97v4.37c0,.55-.46.98-1.01.98h-4.31c-.63,0-1.02-.5-1.02-1.1v-4.25c.03-.53.46-.96,1-.97h1.85s0-2.87,0-2.87l-.04-.05h-9.99s-1.31,0-1.31,0v2.91s1.88.01,1.88.01c.51,0,.9.43.94.94ZM21.74,15.53c.25-.04.44-.21.44-.46V3.53c0-.26-.23-.46-.48-.46h-11.41c-.28,0-.46.24-.46.5v11.47c0,.25.2.48.46.48h11.45ZM6.5,28.54v-4.21c0-.21-.21-.4-.42-.4H1.97c-.26,0-.48.15-.48.43v4.19c0,.26.25.4.48.4h4.14c.2,0,.4-.21.4-.41ZM18.5,28.48v-4.13c0-.24-.19-.43-.43-.43h-4.14c-.21,0-.43.18-.43.4v4.2c0,.27.24.42.49.42h4.11c.25,0,.41-.22.41-.46ZM30.52,28.49v-4.13c0-.24-.19-.43-.43-.43h-4.08c-.29,0-.49.17-.49.46v4.08c0,.22.12.47.39.47h4.21c.25,0,.41-.21.41-.46Z"/></svg>