<?xml version="1.0" encoding="UTF-8"?><svg id="ubi" xmlns="http://www.w3.org/2000/svg" viewBox="0 0 32 32"><path d="M15.42,31.38c-.65-.24-1.25-.49-1.84-.81l-1.68-.91-1.74-1.13c-.95-.67-1.84-1.38-2.67-2.18-.12.03-.24.06-.37.05h-2.31c-.64-.01-1.17-.55-1.17-1.2v-6.88c-.01-.51.11-.98.4-1.39l.44-.54c.07-.09.14-.17.19-.27l-1.01-.13c-.57-.08-.98-.54-.97-1.12l.02-.59c.02-.6.51-1.06,1.12-1.1v-7.04c.03-.63.42-1.15,1.03-1.3,3.85-.33,7.53-1.71,10.57-4.1.3-.23.69-.34,1.01-.09,1.33,1.02,2.77,1.9,4.32,2.56,2.04.87,4.2,1.39,6.4,1.62.61.15,1.01.69,1.02,1.32v1.44s0,5.6,0,5.6c.84.08,1.18.75,1.11,1.58.08.6-.34,1.14-.94,1.22l-1.05.15.42.52c.37.45.65.97.65,1.58v6.94c0,.68-.54,1.23-1.21,1.24h-2.22c-.15.01-.28-.02-.43-.05-.78.76-1.61,1.45-2.49,2.09-1.07.78-2.19,1.46-3.37,2.05-.69.35-1.37.66-2.09.92-.39.14-.76.12-1.15-.02ZM20.97,8.63c.4,0,.74.1,1.07.28.46.25.78.61,1.02,1.06l1.23,2.23.89,1.6.21-.25c.18-.22.45-.37.75-.37h1.32s-.01-7.01-.01-7.01c0-.3-.2-.57-.5-.62l-1.98-.3c-1.97-.37-3.87-.99-5.66-1.9-1.16-.6-2.26-1.28-3.3-2.09-1.95,1.52-4.11,2.68-6.46,3.41-1.46.46-2.95.77-4.47.9-.28.07-.49.3-.49.62v7s1.27,0,1.27,0c.23,0,.43.09.61.2l.38.44,1.06-1.93,1.15-2.06c.38-.67,1.1-1.17,1.89-1.18l4.67-.02h2.82s2.55,0,2.55,0ZM18.83,14.73h1.79s1.77,0,1.77,0l1.73-.02c.23,0,.44-.12.56-.33l-1.17-2.16-1.16-2.08c-.25-.45-.78-.79-1.31-.79h-9.81c-.76-.01-1.34.36-1.7,1.02l-2.18,4.01c.1.19.31.32.53.33.66.04,1.32.02,1.99.02h1.32s1.83,0,1.83,0h2.25s1.66,0,1.66,0h1.9ZM27.15,25.72c.3,0,.53-.27.53-.56v-6.97c0-.43-.22-.79-.49-1.1l-.9-1.04c-.07-.08-.05-.27.01-.36.05-.07.15-.17.26-.19l1.66-.19c.2-.02.4-.2.39-.39v-.6c-.05-.29-.28-.47-.56-.47h-1.8c-.17,0-.3.09-.4.22-.22.28-.38.58-.63.84-.3.32-.77.49-1.23.49h-15.88c-.59,0-1.16-.16-1.49-.63l-.5-.71c-.08-.12-.22-.21-.38-.21h-1.85c-.29,0-.54.25-.54.53v.54c0,.19.19.37.39.39l1.68.2c.12.01.24.14.28.23.04.1.04.26-.04.35l-.93,1.07c-.31.35-.44.74-.44,1.21v6.8c0,.34.28.57.6.57h2.14c.28,0,.5-.2.5-.48v-.95c.02-.41.34-.75.77-.76h3.65s11.69,0,11.69,0c.44,0,.76.37.76.76v.96c.02.25.22.48.49.48h2.23ZM16.36,30.71l1.54-.66c1.43-.69,2.77-1.5,4.04-2.46.7-.53,1.37-1.08,1.99-1.71-.1-.2-.17-.41-.17-.64v-.87c0-.09-.06-.17-.18-.17h-15.17c-.1,0-.16.06-.18.14v.87c0,.24-.06.46-.17.66.41.42.83.78,1.28,1.14,1.27,1,2.6,1.88,4.04,2.63.73.38,1.46.74,2.23,1.03.25.09.49.13.74.02Z"/><path d="M21.83,21.27c-.21,0-.39-.08-.5-.22s-.19-.35-.13-.54l.21-.63c.14-.42.47-.67.88-.83,1.03-.39,2.05-.8,3.1-1.14.29-.09.58-.08.82.11.21.16.28.43.25.69-.04.48-.18.92-.27,1.4-.12.63-.6,1.12-1.27,1.12l-3.09.03ZM24.85,20.57c.26,0,.55-.16.6-.41l.33-1.47s0-.1-.03-.12c-.02-.02-.1-.03-.13-.02l-3.11,1.16c-.21.08-.39.2-.47.42l-.16.48,2.96-.04Z"/><path d="M10.16,21.27l-3.1-.04c-.55,0-1.02-.38-1.17-.89-.14-.46-.22-.91-.32-1.38s0-.92.45-1.06c.23-.07.46-.05.69.03,1.04.35,2.05.73,3.07,1.14.36.14.65.38.78.75l.24.69c.06.18,0,.4-.12.54s-.29.22-.51.22ZM10.11,20.6l-.16-.5c-.09-.18-.23-.3-.42-.38l-3.18-1.18s-.09.01-.1.03l-.04.11.33,1.49c.11.23.33.39.59.39l2.96.03Z"/></svg>