<?xml version="1.0" encoding="UTF-8"?><svg id="car-rental" xmlns="http://www.w3.org/2000/svg" viewBox="0 0 32 32"><path d="M31.03,20.16l.02,2.58c.26.08.45.3.45.57v.92c-.02.41-.34.64-.73.64h-3.38c-.08,1-.62,1.89-1.45,2.44-.9.56-2.01.66-2.99.25-1.17-.5-1.91-1.6-1.95-2.86h-11c-.04,1.09-.61,2.1-1.55,2.66-.85.51-1.88.58-2.8.24-1.21-.48-2.02-1.6-2.05-2.9H1.37c-.48,0-.83-.39-.87-.85v-5.95c.05-.49.43-.87.93-.87h1.45s0-2.36,0-2.36c.04-.54.51-.91,1.07-.8l2.4-3c-.28-.62-.16-1.3.29-1.78s1.14-.65,1.77-.4l8.02-2.65,1.96-.64v-.49c0-.37.27-.75.68-.75h5.22c.4,0,.7.35.69.73v.49c-.01.28-.19.51-.44.62v3.27c0,.52-.46.97-.99.97h-3.5c-.55.03-1.07-.37-1.11-.94v-1.32s-3.35,1.32-3.35,1.32l-6.05,2.39-1.69,2.18c.41.09.68.42.69.83v2.33s8.29,0,8.29,0v-4.36c.02-.5.45-.86.93-.9h5.6c.37,0,.69.12,1.01.28.52.26.89.68,1.2,1.17l2.54,4.05c.08.13.16.27.29.34l1.31.65c.73.37,1.31,1.02,1.34,1.88ZM23.5,9.68c.25,0,.45-.22.45-.45v-3.24c0-.49.44-.44.44-.65v-.46c0-.07-.08-.13-.16-.13h-5.11c-.07,0-.14.07-.14.12v.43c0,.08.07.17.15.19.23.04.39.22.39.47v3.24c0,.23.18.48.43.48h3.55ZM9.34,11.16l1.68-.67,4.91-1.94,3.01-1.18v-1.33s-.23-.11-.23-.11l-9.7,3.21c.59.66.53,1.64-.08,2.23s-1.59.61-2.21.01l-1.98,2.48h2.35s1.99-2.53,1.99-2.53c.08-.08.16-.13.27-.18ZM8.84,10.21c0-.57-.46-1.03-1.03-1.03s-1.03.46-1.03,1.03.46,1.03,1.03,1.03,1.03-.46,1.03-1.03ZM29.58,23.31c-.33,0-.64-.24-.64-.58v-1c0-.42.36-.77.78-.77h.74s0-.75,0-.75c-.04-.5-.28-1.01-.73-1.24l-1.45-.74c-.23-.12-.44-.25-.58-.48l-2.83-4.49c-.37-.48-.86-.81-1.46-.88h-5.61c-.22,0-.36.19-.38.39v11.37s3.62,0,3.62,0c.19-1.23,1.03-2.22,2.2-2.6.66-.2,1.33-.19,1.98,0,1.2.41,2.06,1.48,2.17,2.75h3.38c.09,0,.14-.06.15-.14v-.75s-.06-.11-.11-.11h-1.22ZM7.94,17.05v-2.35c-.03-.15-.13-.24-.29-.24h-3.92c-.16.02-.27.13-.27.3v2.3s4.47,0,4.47,0ZM7.43,21.45c1.34.25,2.35,1.35,2.55,2.69h6.84s0-6.51,0-6.51H1.47c-.2,0-.38.15-.38.36v5.79c0,.22.16.35.37.35h2.18c.28-1.83,1.97-3.02,3.79-2.69ZM29.65,22.73h.81s0-1.2,0-1.2h-.62c-.18,0-.32.11-.32.3v.77c0,.07.05.13.13.13ZM9.43,24.61c0-1.45-1.17-2.62-2.62-2.62s-2.62,1.17-2.62,2.62,1.17,2.62,2.62,2.62,2.62-1.17,2.62-2.62ZM26.83,24.61c0-1.45-1.17-2.62-2.62-2.62s-2.62,1.17-2.62,2.62,1.17,2.62,2.62,2.62,2.62-1.17,2.62-2.62Z"/><path d="M25.81,16.8c.33.53.75,1.19.43,1.67-.11.17-.32.31-.57.31h-6.16c-.34,0-.67-.32-.67-.66v-4.1c0-.38.35-.71.72-.71h3.43c.44,0,.81.31,1.03.67l1.78,2.82ZM25.54,17.47l-2.05-3.26c-.11-.17-.3-.33-.51-.33h-3.38c-.09,0-.17.09-.17.18v4c0,.08.08.13.15.13h6.07c.26,0,.08-.44-.1-.73Z"/><path d="M20.68,20.35h-1.39c-.16,0-.26-.17-.26-.3,0-.14.12-.28.28-.28h1.39c.18,0,.28.16.28.31s-.14.27-.31.27Z"/><path d="M8.19,24.63c0,.76-.62,1.38-1.38,1.38s-1.38-.62-1.38-1.38.62-1.38,1.38-1.38,1.38.62,1.38,1.38ZM7.6,24.62c0-.44-.35-.79-.79-.79s-.79.35-.79.79.35.79.79.79.79-.35.79-.79Z"/><path d="M25.58,24.63c0,.76-.62,1.38-1.38,1.38s-1.38-.62-1.38-1.38.62-1.38,1.38-1.38,1.38.62,1.38,1.38ZM25,24.62c0-.44-.35-.79-.79-.79s-.79.35-.79.79.35.79.79.79.79-.35.79-.79Z"/></svg>