<?xml version="1.0" encoding="UTF-8"?><svg id="white-label" xmlns="http://www.w3.org/2000/svg" viewBox="0 0 32 32"><path d="M31.47,26.15c0,1.76-1.47,2.94-3.14,2.93l-21.07-.03c-1.55,0-2.79-1.36-2.83-2.87v-2.1s-.98,0-.98,0c-1.53,0-2.93-1.27-2.93-2.87V5.85c0-1.6,1.38-2.88,2.93-2.89h3.87s17.15-.05,17.15-.05c.74,0,1.41.19,1.98.65.69.56,1.13,1.37,1.13,2.28v1.9s1.19.02,1.19.02c1.47.11,2.7,1.4,2.7,2.91v15.48ZM5.4,8.53c.59-.54,1.3-.76,2.08-.76l19.11-.02v-1.84c0-1.12-.9-2-2.02-2h-7.4s-13.76.06-13.76.06c-1,0-1.89.89-1.89,1.89l-.02,15.12c0,1.08.71,2.03,1.84,2.11h1.07s0-12.42,0-12.42c0-.82.39-1.59.97-2.14ZM30.48,22.18v-3.71s0-2.67,0-2.67v-1.62s0-1.46,0-1.46v-1.91c.01-1.02-.77-2.05-1.86-2.05H7.29c-.97.01-1.85.91-1.85,1.88v15.51c0,1.1.95,1.93,2.01,1.93h20.98c1.08,0,2.03-.78,2.04-1.9v-1.86s.01-2.13.01-2.13Z"/></svg>