<?xml version="1.0" encoding="UTF-8"?>
<svg id="Capa_1" data-name="Capa 1" xmlns="http://www.w3.org/2000/svg" viewBox="0 0 882.31 267.52">
  <defs>
    <style>
      .cls-1 {
        font-family: Verdana, Verdana;
        font-size: 16.06px;
      }

      .cls-2 {
        fill: none;
        stroke: #000;
        stroke-miterlimit: 10;
        stroke-width: 1.56px;
      }

      .cls-3, .cls-4 {
        stroke-width: 0px;
      }

      .cls-4 {
        fill: #be1622;
      }
    </style>
  </defs>
  <path class="cls-3" d="M82.3,174.35h-17.74c-1.07,0-2.24-.88-3.51-2.65-1.27-1.76-2.6-4.01-3.97-6.74-1.38-2.73-2.8-5.75-4.28-9.06-1.48-3.31-2.99-6.49-4.53-9.55-1.54-3.06-3.1-5.79-4.68-8.19-1.58-2.4-3.15-4.08-4.71-5.02h-3.94c-1.48,0-2.92,0-4.31-.03-1.4-.02-2.66-.04-3.79-.06-1.13-.02-1.94-.05-2.43-.09v33.08l12.01,1.54v6.78H0v-6.78l10.35-1.6v-76.94l-9.61-1.66v-6.78h16.76c1.68,0,3.3-.05,4.84-.15s3.08-.2,4.62-.31c1.54-.1,3.09-.2,4.65-.31,1.56-.1,3.2-.15,4.93-.15,6.2,0,11.45.52,15.74,1.57,4.29,1.05,7.76,2.6,10.41,4.65s4.57,4.62,5.76,7.7c1.19,3.08,1.79,6.65,1.79,10.72,0,2.83-.41,5.62-1.23,8.35-.82,2.73-2,5.28-3.54,7.64-1.54,2.36-3.44,4.43-5.7,6.22-2.26,1.79-4.81,3.15-7.64,4.1,1.68,1.03,3.32,2.59,4.9,4.68,1.58,2.09,3.13,4.4,4.65,6.93,1.52,2.53,2.98,5.12,4.37,7.79,1.4,2.67,2.75,5.14,4.07,7.42s2.57,4.19,3.76,5.73c1.19,1.54,2.34,2.46,3.45,2.74l4.99,1.66v6.78ZM24.4,125.68c.57.08,1.48.13,2.71.15,1.23.02,2.55.02,3.94,0,1.4-.02,2.74-.04,4.03-.06,1.29-.02,2.31-.03,3.05-.03,5.3,0,9.47-1.67,12.51-5.02,3.04-3.35,4.56-8.45,4.56-15.31,0-2.55-.31-4.95-.92-7.21-.62-2.26-1.69-4.22-3.23-5.88-1.54-1.66-3.63-2.98-6.25-3.94-2.63-.97-5.96-1.45-9.98-1.45-1.6,0-2.97.03-4.1.09-1.13.06-2.08.13-2.86.22-.78.08-1.44.16-1.97.25-.53.08-1.03.15-1.48.18v38.01Z"/>
  <path class="cls-3" d="M96.23,173.89v-6.78l10.35-1.66v-76.88l-10.1-1.66v-6.78h63.51l1.66,19.1h-7.89l-4-11.21-29.02-.74v34.87l19.96-.43,1.91-10.04h8.38v28.34h-8.38l-1.85-10.17-20.02-.37v36.53l33.64-1.36,7.08-15.09,7.89,2.34-3.76,21.99h-69.37Z"/>
  <path class="cls-3" d="M182.94,173.85v-6.78l10.35-1.66v-76.88l-9.61-1.66v-6.78h16.63c3.65,0,7.25-.15,10.78-.46,3.53-.31,7.31-.46,11.33-.46,8.13,0,15.1,1.06,20.91,3.17,5.81,2.11,10.57,5.13,14.29,9.05,3.72,3.92,6.45,8.65,8.19,14.17,1.75,5.52,2.62,11.69,2.62,18.51,0,7.72-1.17,14.73-3.51,21.04-2.34,6.3-5.62,11.69-9.83,16.17-4.21,4.48-9.24,7.9-15.09,10.26-5.85,2.36-12.29,3.46-19.31,3.3-1.52-.04-3.13-.11-4.84-.22s-3.43-.22-5.17-.34c-1.75-.12-3.48-.23-5.21-.31-1.72-.08-3.39-.12-4.99-.12h-17.56ZM207.46,87.23v79.04c2.22.66,4.53,1.03,6.93,1.11,2.4.08,5,.08,7.79,0,4.48-.12,8.62-1.06,12.44-2.8,3.82-1.74,7.12-4.3,9.89-7.67,2.77-3.37,4.95-7.56,6.53-12.57s2.37-10.84,2.37-17.5c0-26.9-11.73-40.35-35.18-40.35-2.75,0-5,.09-6.75.28-1.75.18-3.09.34-4.03.46Z"/>
  <path class="cls-3" d="M303.17,173.89v-6.78l15.83-1.72v-77.87l-20.33.62-4.56,24.95h-8.93l2.03-32.96h78.11l1.54,32.96h-8.93l-4.13-24.95-20.27-.62v77.87l17.06,1.72v6.78h-47.43Z"/>
  <path class="cls-3" d="M374.31,174.29l-.06-6.78,7.95-1.72,31.23-86.06h13.98l30.43,86.12,7.89,1.66v6.78h-33.39v-6.78l10.04-1.72-5.79-17.93h-36.72l-5.79,17.93,10.41,1.72v6.78h-30.19ZM415.64,99.25l-13.18,40.78h31.54l-13.12-40.78-2.59-9.98-2.65,9.98Z"/>
  <path class="cls-3" d="M479.74,173.89v-6.78l11.15-1.66v-76.88l-11.15-1.66v-6.78h36.35v6.78l-11.03,1.66v76.88l11.03,1.91v6.53h-36.35Z"/>
  <path class="cls-3" d="M536.83,173.89v-6.78l10.35-1.72v-76.82l-10.1-1.66v-6.78h36.04v6.78l-11.83,1.66v76.82l31.42-1.17,7.52-19.59,8.19,1.6-4.19,27.66h-67.4Z"/>
  <path class="cls-3" d="M31.5,205.08h-13.15v32.46h-4.89v-32.46H.3v-4.35h31.2v4.35Z"/>
  <path class="cls-3" d="M80.97,237.62h-24.35v-36.96h24.35v4.37h-19.43v10.13h19.43v4.37h-19.43v13.73h19.43v4.37Z"/>
  <path class="cls-3" d="M133.05,237.62h-23.38v-36.96h4.91v32.59h18.47v4.37Z"/>
  <path class="cls-3" d="M243.69,237.67h-4.93v-31.95l-10.31,21.74h-2.94l-10.23-21.74v31.95h-4.61v-37.08h6.72l9.88,20.64,9.56-20.64h6.85v37.08Z"/>
  <path class="cls-3" d="M302.78,237.72h-5.27l-3.64-10.36h-16.08l-3.64,10.36h-5.02l13.53-37.17h6.59l13.53,37.17ZM292.34,223.12l-6.51-18.25-6.54,18.25h13.06Z"/>
  <path class="cls-3" d="M352.02,204.94h-13.29v32.8h-4.95v-32.8h-13.29v-4.4h31.52v4.4Z"/>
  <path class="cls-3" d="M390.56,237.85h-14.78v-3.82h4.9v-29.79h-4.9v-3.82h14.78v3.82h-4.9v29.79h4.9v3.82Z"/>
  <path class="cls-3" d="M447.27,234.5c-.89.39-1.69.75-2.4,1.09s-1.65.69-2.81,1.06c-.98.31-2.05.57-3.2.79-1.15.22-2.42.33-3.8.33-2.61,0-4.98-.37-7.11-1.1s-3.99-1.88-5.57-3.44c-1.55-1.53-2.75-3.47-3.62-5.83-.87-2.36-1.3-5.1-1.3-8.22,0-2.96.42-5.61,1.25-7.94.84-2.33,2.04-4.31,3.62-5.92,1.53-1.56,3.38-2.75,5.54-3.57,2.16-.82,4.57-1.23,7.21-1.23,1.93,0,3.86.23,5.78.7,1.92.47,4.06,1.29,6.41,2.46v5.67h-.36c-1.98-1.66-3.94-2.87-5.89-3.62-1.95-.76-4.03-1.13-6.25-1.13-1.82,0-3.46.29-4.91.88-1.46.59-2.76,1.5-3.9,2.74-1.11,1.21-1.98,2.73-2.6,4.57-.62,1.84-.93,3.97-.93,6.39s.34,4.7,1.03,6.52c.68,1.82,1.56,3.3,2.64,4.44,1.13,1.19,2.44,2.07,3.95,2.64,1.5.57,3.09.86,4.77.86,2.3,0,4.46-.39,6.47-1.18s3.9-1.97,5.65-3.55h.34v5.6Z"/>
  <path class="cls-3" d="M501.12,227.07c0,1.44-.34,2.86-1.01,4.27-.67,1.41-1.61,2.6-2.82,3.57-1.32,1.06-2.87,1.89-4.63,2.48s-3.89.89-6.37.89c-2.66,0-5.06-.25-7.19-.75s-4.29-1.23-6.49-2.21v-6.16h.35c1.87,1.56,4.03,2.76,6.48,3.6,2.45.84,4.75,1.27,6.9,1.27,3.04,0,5.41-.57,7.11-1.71,1.7-1.14,2.54-2.67,2.54-4.57,0-1.64-.4-2.85-1.2-3.62-.8-.78-2.02-1.38-3.66-1.81-1.24-.33-2.59-.6-4.03-.82s-2.98-.49-4.6-.82c-3.28-.69-5.71-1.88-7.29-3.56-1.58-1.68-2.37-3.87-2.37-6.57,0-3.09,1.31-5.63,3.92-7.61,2.61-1.98,5.93-2.97,9.95-2.97,2.6,0,4.98.25,7.15.74s4.09,1.11,5.76,1.84v5.81h-.35c-1.41-1.19-3.26-2.18-5.55-2.97-2.29-.79-4.64-1.18-7.04-1.18-2.63,0-4.75.55-6.34,1.64-1.6,1.09-2.4,2.5-2.4,4.22,0,1.54.4,2.75,1.19,3.62.79.88,2.19,1.55,4.19,2.01,1.06.23,2.57.51,4.52.84,1.95.33,3.61.67,4.96,1.02,2.75.73,4.82,1.83,6.21,3.3,1.39,1.47,2.09,3.53,2.09,6.18Z"/>
  <path class="cls-3" d="M182.36,237.62h-24.35v-36.96h24.35v4.37h-19.43v10.13h19.43v4.37h-19.43v13.73h19.43v4.37Z"/>
  <text class="cls-1" transform="translate(519.25 216.02) scale(1.08 1)"><tspan x="0" y="0">R</tspan></text>
  <ellipse class="cls-2" cx="525.16" cy="210.82" rx="10.15" ry="10.05"/>
  <path class="cls-3" d="M568.7,265.74c-2.45-2.03-4.65-3.52-6.42-5.41-3.13-3.33-3.38-7.3-.45-10.78,1.97-2.34,4.51-4.25,6.98-6.1,1.21-.91,1.98-1.56,1.88-3.27-.18-3.17,1.22-5.47,4.09-7.25,9.99-6.23,20.99-10.02,31.94-14.04,13.93-5.11,27.91-10.14,41.48-16.1,6.44-2.83,12.2-7.42,17.87-11.73,9.5-7.21,10.85-17.01,7.23-27.66-1.47-4.34-4.12-8.27-6.4-12.72,53.57-43.66,107.59-87.69,162.11-132.12-1.19,6.26-2.24,11.89-3.33,17.51-1.63,8.4-3.35,16.78-4.89,25.19-.29,1.56-.97,2.47-2.22,3.27-11.62,7.53-23.22,15.1-34.82,22.67-.71.46-1.41.96-1.94,1.8,11.74-5.04,23.49-10.09,35.6-15.29-2.01,9.55-4.03,18.64-5.77,27.78-.47,2.46-1.61,3.65-3.81,4.62-10.53,4.63-20.98,9.43-31.46,14.18-.77.35-1.52.73-2.1,1.59,11.03-3.38,22.06-6.77,33.41-10.25-.17.93-.22,1.52-.39,2.07-1.93,6.32-3.82,12.65-5.89,18.92-.33.99-1.38,2.05-2.35,2.46-9.51,4.05-19.08,7.96-28.63,11.92-.78.32-1.54.67-2.17,1.49,9.89-2.63,19.78-5.26,30.24-8.04-1.71,3.6-3.2,6.77-4.72,9.94-1.98,4.14-4.06,8.23-5.92,12.42-.79,1.78-1.92,2.52-3.78,2.85-9.4,1.67-18.78,3.47-28.13,5.58,9.18-.62,18.36-1.24,27.94-1.89-.42.83-.67,1.41-1,1.95-3.2,5.25-6.47,10.45-9.56,15.76-.9,1.54-2,2.15-3.66,2.35-9.04,1.09-18.06,2.24-27.09,3.37-.21.03-.42.13-.63.2,0,.22,0,.45,0,.67h25.7c.11.3.21.6.32.89-4.81,5.59-9.46,11.33-14.46,16.76-20.68,22.45-46.03,38.02-74.44,48.33-16.77,6.09-34.3,6.71-51.97,2.66-13.8-3.16-27.84-5.2-42.04-5.52-3.86-.09-7.8.19-11.59.87-5.06.91-5.9,2.49-4.76,8.06ZM588.98,238.99l-.38-.62c-3.98.75-7.65,2.3-11.01,4.55-.59.4-1.22,1.59-1.02,2.09.27.68,1.36,1.5,2.04,1.45,1.46-.11,3.19-.35,4.24-1.22,2.24-1.85,4.11-4.14,6.14-6.26Z"/>
  <path class="cls-3" d="M794.69.2c-.53,5.65-1.05,11.29-1.59,16.94-.89,9.29-1.75,18.59-2.73,27.88-.1.94-.7,2.07-1.43,2.67-41.27,33.76-82.58,67.46-123.89,101.18-.72.59-1.43,1.19-1.8,1.5,2.46,4.65,5.3,8.95,7.12,13.65,3.17,8.22,1.68,15.87-4.35,22.51-8.16,8.98-18.59,14.07-30.35,17.97,4.47-3.16,8.71-5.75,12.47-8.93,3.23-2.72,6.35-5.79,8.73-9.26,6.63-9.65,3.38-21.39-2.2-28.5-1.81-2.3-4-4.31-6.09-6.53,48.5-50.39,97.06-100.84,145.61-151.29.17.07.34.13.51.2Z"/>
  <path class="cls-4" d="M699.72,258.22c6.83-6.09,14.76-10.11,23.61-12.01,5.06-1.08,10.32-1.25,15.46-1.99,3.22-.47,6.42-1.16,9.59-1.91,2.78-.66,4.57-2.99,4.54-5.51-.03-2.64-1.9-4.77-4.84-5.46-4.34-1.01-8.63-.7-12.94.43,4.02-3.07,8.53-5.13,13.29-6.66,11.09-3.56,22.18-2.71,33.4-.39,13.56,2.81,27.28,4.87,41.15,5.07,12.99.18,25.96-.43,39.38-3.21-1.2.72-1.92,1.15-2.63,1.58-10.3,6.29-21.68,8.7-33.54,9.43-3.02.19-6.06.47-9.04,1-1.13.2-3.01,1.21-2.99,1.83.02,1.24.8,3.12,1.8,3.58,4.34,2.02,8.74,4.42,13.37,5.2,8.56,1.43,17.27,2.26,25.95,2.51,8.37.25,16.78-.55,25.16-.88.58-.02,1.16,0,1.73,0,.05.21.1.42.15.63-4.81,1.38-9.56,3.05-14.45,4.08-19.29,4.05-38.63,4.96-57.62-1.25-7.48-2.45-14.46-6.4-21.76-9.46-3.47-1.46-7.08-2.99-10.75-3.48-5.37-.71-8.11,3.01-6.74,8.24,1.47,5.62,5.86,8.17,10.79,10.06,7.79,2.98,15.92,4.14,24.23,4.19,1.63,0,3.26,0,4.9,0,.05.23.11.46.16.69-3.6.84-7.16,1.89-10.8,2.47-11.56,1.87-22.31-1.52-32.99-5.34-7.08-2.54-14.1-5.51-21.4-7.09-14.75-3.21-29.39-1.56-43.73,2.94-.8.25-1.61.48-2.42.72Z"/>
</svg>