<?xml version="1.0" encoding="UTF-8"?>
<svg id="Layer_1" xmlns="http://www.w3.org/2000/svg" version="1.1" viewBox="0 0 1258 1298">
  <!-- Generator: Adobe Illustrator 30.4.0, SVG Export Plug-In . SVG Version: 2.1.4 Build 226)  -->
  <defs>
    <style>
      .st0 {
        fill: #54cdf7;
      }

      .st1 {
        fill: #009aff;
      }

      .st2 {
        fill: #fff;
      }

      .st3 {
        fill: #0047de;
      }
    </style>
  </defs>
  <path class="st3" d="M472,881.1v-3.1c18.8-20.1,55.7-60.4,55.7-89.9s-7.3-23.5-22-23.5c-6.8.2-13.4,2.5-18.8,6.7,5.4,1.1,9.2,5.3,9.2,10.9s-4,10-9.8,10c-5.7,0-10.4-4.7-10.3-10.4,0-.1,0-.2,0-.3,0-16.6,20.7-22.8,34-22.8s33.8,9.4,33.8,28.9c0,28.1-38.8,62.5-57.4,81.1h49.7l8-15.3h1.8v27.7h-74Z"/>
  <path class="st3" d="M593,883.6c-32.1,0-43-35.4-43-62s10-62.9,43-62.9,42.7,36.5,42.7,62.9-10.3,62-42.7,62ZM593,764.2c-25.2,0-26.8,39.8-26.8,57.4s1.5,56.4,26.8,56.4,26.4-38.8,26.4-56.4c0-17.4-1.3-57.4-26.4-57.4Z"/>
  <path class="st3" d="M633,881.1v-3.1c18.7-20.1,55.7-60.4,55.7-89.9s-7.3-23.5-22-23.5c-6.8.2-13.4,2.5-18.7,6.7,5.3,1.1,9.2,5.3,9.2,10.9s-4,10-9.8,10-10.3-4.8-10.3-10.7c0-16.6,20.7-22.8,34-22.8s33.9,9.4,33.9,28.9c0,28.1-38.8,62.5-57.4,81.1h49.7l8-15.3h1.8v27.7h-74Z"/>
  <path class="st3" d="M750.7,883.6c-31.8,0-39.6-32.1-39.6-58s14.5-67,48.4-67,27.2,5.5,27.2,19.1-3.8,11.5-10.3,11.5-9.8-4.2-9.8-10c0-4.7,3.1-8.9,7.7-10.1-4.1-2.9-9-4.4-14-4.2-29.1,0-33.3,38.3-33.3,59.7,8-7.3,20.3-15.3,31.4-15.3,20.1,0,28.7,15.5,28.7,33.9,0,21.5-13.5,40.4-36.3,40.4ZM751,818c-8.6,0-17.4,5.7-24.1,10.7.4,15.3,2.1,49.5,23.7,49.5s20.8-19.1,20.8-32.1c0-13.8-4-28.1-20.5-28.1Z"/>
  <path class="st3" d="M145,695.2l12.3-6.2v-55.7h-45.1v55.7l12.3,6.2v2.2h-61v-2.2l12.3-6.2v-116.7l-12.3-6.2v-2.2h61v2.2l-12.3,6.2v52.9h45.1v-52.9l-12.4-6.2v-2.2h61v2.2l-12.3,6.2v116.7l12.3,6.2v2.2h-61v-2.2Z"/>
  <path class="st3" d="M273.1,700v-10.7c-6.4,5.4-16.5,10.7-26.8,10.7-21.9,0-28.6-10.9-28.6-34.8v-49.3l-10.5-6.4v-2l44.9-8.6v70.2c0,12.1.8,18.3,8.1,18.3s10.1-3,12.7-4.8v-66.8l-9.9-6.4v-2l44.3-8.5v86.7l11.5,5.8v2.4l-45.7,6.2Z"/>
  <path class="st3" d="M378.2,697.4v-2.2l7.8-5.8v-59.6c0-10.1-.2-17.9-8-17.9s-9.3,2.2-12.9,4.8v72.8l7.8,5.8v2.2h-53v-2.2l10.9-6.2v-73.2l-10.5-6.4v-2l44.9-8.5v11.1c9-7.5,18.3-10.7,28.6-10.7,18.5,0,26.6,10.3,26.6,33.2v56.5l10.9,6.2v2.2h-53.1Z"/>
  <path class="st3" d="M490,700v-10.1c-5.2,6.8-12.7,10.1-21.7,10.1-23.7,0-37-15.7-37-46.7s16.7-53.9,46.9-53.9c3.6,0,7.2.5,10.8,1.4v-24.6l-10.5-6.4v-2l44.9-8.5v126.4l11.5,5.8v2.4l-44.9,6.2ZM489,611.7c-1.8-2.6-4.4-5.8-8.8-5.8-9.9,0-12.3,23.5-12.3,45.7s2.4,37.4,10.5,37.4,7.5-2,10.5-5.6v-71.8Z"/>
  <path class="st3" d="M535.9,697.4v-2.2l10.9-6.2v-73.2l-10.5-6.4v-2l44.9-8.5v17.9c7-11.1,13.5-17.5,23.7-17.5s17.3,7,17.3,16.7-6.2,16.7-16.9,16.7-14.5-5.8-16.9-13.5l-7.2,4.4v65.4l12.3,6.2v2.2h-57.7Z"/>
  <path class="st3" d="M708,685.7c-11.2,9.3-25.2,14.3-39.7,14.3-27.2,0-47.1-18.7-47.1-48.9s18.1-51.7,47.1-51.7,41.5,19.9,41.5,51.1h-52.7c0,16.5,2,36.2,25,36.2,8.4-.2,16.7-1.6,24.7-4.4l1.2,3.4ZM666.1,605.6c-8.2,0-9,16.5-9,38.2l16.5-2c0-22.8-.7-36.2-7.5-36.2h0Z"/>
  <path class="st3" d="M773,700v-10.1c-5.1,6.8-12.7,10.1-21.6,10.1-23.7,0-37-15.7-37-46.7s16.7-53.9,46.9-53.9c3.6,0,7.2.5,10.7,1.4v-24.6l-10.5-6.4v-2l44.9-8.5v126.4l11.6,5.8v2.4l-45,6.2ZM772,611.7c-1.8-2.6-4.4-5.8-8.7-5.8-9.9,0-12.3,23.5-12.3,45.7s2.4,37.4,10.5,37.4,7.5-2,10.5-5.6v-71.8Z"/>
  <path class="st3" d="M951.9,594.8c-10.9-23.8-15.9-24.8-41.3-26.1v120.9l18.9,6v1.8h-53.3v-1.8l18.5-6v-120.9c-24.8,1.4-29.8,2.6-40.8,25.7h-3.2v-30.4h104v30.8h-2.8Z"/>
  <path class="st3" d="M1012.8,648.7h-56.9c0,20.7,8,42.5,32.2,42.5,7.8-.1,15.6-1.3,23.1-3.6l1.2,2.6c-10.3,6-20.7,9.7-32.8,9.7-28.4,0-39.8-25.2-39.8-50.3s11.5-50.3,38.2-50.3,34.8,24.5,34.8,46.5v2.8ZM977.4,604.8c-18.3,0-21.5,27-21.5,40.5l41.2-2c0-12.7-2.4-38.5-19.7-38.5Z"/>
  <path class="st3" d="M1060.5,700c-27.6,0-39.8-24.1-39.8-48.7s16.1-51.9,44.7-51.9,27.4,4.8,27.4,18.9c0,5.5-4.3,10.1-9.9,10.1,0,0,0,0,0,0-5.4,0-10.3-4.2-10.3-9.7s2.8-8.5,7.8-9.7c-4.4-2.6-9.1-3.4-14.3-3.4-22.7,0-29.2,23.7-29.2,42.3s7.6,43.3,32.2,43.3c8.2,0,16.3-1.2,24.1-3.6l1.2,2.6c-10.7,6.2-21.3,9.7-33.8,9.7Z"/>
  <path class="st3" d="M1151.1,697.4v-1.8l13.9-5.4v-57.3c0-12.1-1.4-22.9-16.3-22.9s-17.1,4.2-24.1,8v72.2l13.9,5.4v1.8h-43.3v-1.8l14.9-5.4v-115.5l-14.9-7.2v-1.8l29.4-6.6v55.5c8.8-6.8,21.5-15.3,33-15.3,20.3,0,21.9,18.9,21.9,34.4v56.5l14.9,5.4v1.8h-43.3Z"/>
  <path class="st2" d="M302.6,469.3c-2.1-10.2-8.1-13.9-14.1-13.9h-.2v27.6c0,24.4.2,25.4,1.4,26.8,1,1,2.6,1.5,5.4,1.6v1.7h-29.3v-1.7c2.8,0,4.3-.5,5.4-1.6,1.3-1.4,1.5-2.4,1.5-26.8v-27.6h-.2c-6,0-12,3.7-14.1,13.9h-1.7v-16.7h47.7v16.7h-1.7Z"/>
  <path class="st2" d="M339.1,513.2v-1.7c2.6,0,3.5-.6,4.2-1.4,1.4-1.5,1.6-2.8,1.6-25.8h-16.7c0,23,.2,24.4,1.6,25.8.7.7,1.6,1.3,4.2,1.4v1.7h-27.2v-1.7c2.6,0,3.5-.6,4.2-1.4,1.4-1.5,1.6-2.9,1.6-27.3s-.2-25.7-1.6-27.2-1.6-1.3-4.2-1.4v-1.7h27.2v1.7c-2.6,0-3.5.6-4.2,1.4-1.4,1.4-1.6,2.6-1.6,24.7h16.8c0-22-.2-23.3-1.6-24.7-.7-.7-1.6-1.3-4.2-1.4v-1.7h27.2v1.7c-2.6,0-3.4.6-4.2,1.4-1.4,1.4-1.6,2.8-1.6,27.2s.2,25.8,1.6,27.3c.7.7,1.6,1.3,4.2,1.4v1.7h-27.2Z"/>
  <path class="st2" d="M413.5,513.2h-44v-1.7c2.6,0,3.5-.6,4.2-1.4,1.4-1.5,1.6-2.9,1.6-27.3s-.2-25.7-1.6-27.2-1.6-1.3-4.2-1.4v-1.7h43.2l.2,16.7h-1.7c-1.8-8.2-5.4-13.5-13.8-13.5h-6.6v24.5h3.1c7.1,0,10.5-1.8,11.5-8.5h1.7v21.5h-1.7c-1-6.6-4.4-9.1-11.5-9.1h-3.1s0,13,0,15.2c0,7.2,1.3,10.3,8.4,10.3s11.5-5.1,13.4-13.9h1.7l-1,17.1Z"/>
  <path class="st2" d="M451.4,514c-5.9,0-11.1-2.1-13.5-2.1-1.3,0-2.5.5-3.5,1.3h-1.4v-17.2h1.7c1.2,9.3,6.6,14.8,15.7,14.8s9.9-4.7,9.9-8.9c0-14-27.6-12.8-27.6-31.6s5.5-18.4,19.2-18.4,10.1,1.8,12.2,1.8c1.1.1,2.2-.2,3-1h1.4v16.7h-1.7c-1.7-6.5-5.7-14.3-15-14.3s-8.8,3.5-8.8,7.2c0,12.4,29.4,11.6,29.4,32.8s-8.8,18.9-21,18.9"/>
  <path class="st2" d="M523.1,463.4v25.7c0,14.7-5.3,24.8-21.9,24.8s-22.3-9-22.3-18.8v-21.7c0-12.3-.5-16.7-1.6-17.7-.7-.7-1.6-1.3-4.2-1.4v-1.7h27.2v1.7c-2.6,0-3.4.6-4.2,1.4-1.1,1.1-1.6,5.4-1.6,18.3v23.6c0,7.8,4.1,11.5,11,11.5s13-6.4,13-19.6v-26.1c0-6.4-.7-8.2-6.3-9.1v-1.7h17.2v1.7c-5.7.8-6.3,2.6-6.3,9.1"/>
  <path class="st2" d="M581.3,463.4v49.8h-8.4l-31.2-43v32.3c0,6.4.7,8.2,6.3,9v1.7h-17.2v-1.7c5.7-.8,6.3-2.6,6.3-9v-19.6c0-24.4-.2-25.7-1.6-27.2-.7-.7-1.6-1.3-4.2-1.4v-1.7h19.9l25.5,35.7v-25c0-6.4-.6-8.2-6.3-9.1v-1.7h17.2v1.7c-5.7.8-6.3,2.6-6.3,9.1"/>
  <path class="st2" d="M619.1,513.2h-28.3v-1.7c2.6,0,3.5-.6,4.2-1.4,1.4-1.5,1.6-2.9,1.6-27.3s-.2-25.7-1.6-27.2c-.7-.7-1.6-1.3-4.2-1.4v-1.7h26.9c18.8,0,29.2,11.1,29.2,30.3s-6.1,30.2-27.8,30.2M615.8,455.9h-3.5v44.4c0,6,1,9.6,7.9,9.6s10.5-10.2,10.5-27.2-3.6-26.9-14.9-26.9"/>
  <path class="st2" d="M672.1,513.2v-1.7c4.9-.5,7.4-1.6,7.4-4.4s-.8-4.1-4-13.4h-15.5c-2.4,7.5-3.5,11.8-3.5,12.7,0,3.2,2,5,5.6,5v1.8h-19.5v-1.7c6-1.2,7.1-2.2,10.3-11.8l15.6-47h10.5l17.3,50.2c2,5.8,3.2,8.2,7.5,8.6v1.7h-31.7ZM667.4,470.2l-6.2,19.5h13l-6.8-19.5Z"/>
  <path class="st2" d="M739.8,464.2l-10.4,22c0,21.2.2,22.6,1.6,24,.7.7,1.8,1.3,5.2,1.4v1.7h-29.2v-1.7c3.5,0,4.5-.6,5.2-1.4,1.4-1.4,1.6-2.7,1.6-24l-10.9-21c-5.2-10.1-5.6-10.4-10.2-10.8v-1.7h28.6v1.7c-3.6.1-5,1-5,3.2s.4,2.1,2.9,7.1l8.1,16.3,6.8-14.4c2.2-4.6,3.4-7.3,3.4-8.9s-1-3.1-4.5-3.3v-1.7h16.5v1.7c-4.8.6-5.5,1.5-9.5,9.9"/>
  <path class="st2" d="M807.5,469.3c-2.1-10.2-8.1-13.9-14.1-13.9h-.2v27.6c0,24.4.2,25.4,1.4,26.8,1,1,2.6,1.5,5.4,1.6v1.7h-29.3v-1.7c2.8,0,4.3-.5,5.4-1.6,1.3-1.4,1.5-2.4,1.5-26.8v-27.6h-.2c-6,0-12,3.7-14.1,13.9h-1.7v-16.7h47.7v16.7h-1.7Z"/>
  <path class="st2" d="M811.6,513.2v-1.7c2.6,0,3.5-.6,4.2-1.4,1.4-1.5,1.6-2.9,1.6-27.3s-.2-25.7-1.6-27.2c-.7-.7-1.6-1.3-4.2-1.4v-1.7h27.2v1.7c-2.6,0-3.5.6-4.2,1.4-1.4,1.4-1.6,2.8-1.6,27.2s.2,25.8,1.6,27.3c.7.7,1.6,1.3,4.2,1.4v1.7h-27.2Z"/>
  <path class="st2" d="M883.1,513.2v-1.7c2.6,0,3.4-.6,4.2-1.4,1.4-1.5,1.6-2.9,1.6-27.3v-16.3l-15.9,46.6h-5l-16.3-46.6v35.8c0,6.4.6,8.2,6.3,9v1.7h-16v-1.7c5-.7,5.8-2.6,5.8-9v-19.6c0-24.4-.2-25.7-1.6-27.2-.7-.7-1.6-1.3-4.2-1.4v-1.7h22.5l12.3,36.8,12.8-36.8h20.7v1.7c-2.5,0-3.4.6-4.2,1.4-1.4,1.4-1.6,2.8-1.6,27.2s.2,25.8,1.6,27.3c.7.7,1.6,1.3,4.2,1.4v1.7h-27.2Z"/>
  <path class="st2" d="M957.5,513.2h-44v-1.7c2.5,0,3.4-.6,4.2-1.4,1.5-1.5,1.6-2.9,1.6-27.3s-.2-25.7-1.6-27.2c-.7-.7-1.6-1.3-4.2-1.4v-1.7h43.2l.2,16.7h-1.7c-1.8-8.2-5.4-13.5-13.8-13.5h-6.6v24.5h3.1c7,0,10.5-1.8,11.5-8.5h1.7v21.5h-1.7c-1-6.6-4.4-9.1-11.5-9.1h-3.1s0,13,0,15.2c0,7.2,1.3,10.3,8.4,10.3s11.5-5.1,13.4-13.9h1.7l-1,17.1Z"/>
  <path class="st2" d="M980.4,514c-5.9,0-11.1-2.1-13.5-2.1-1.3,0-2.5.5-3.5,1.3h-1.4l1-17.1h1.7c.6,9.1,5.7,14.8,14.7,14.8s10-4.7,10-8.9c0-14-27.7-12.8-27.7-31.6s5.5-18.4,19.2-18.4,10.1,1.8,12.2,1.8c1.1.1,2.2-.2,3-1h1.4v16.7h-1.7c-1.7-6.5-5.7-14.3-15-14.3s-8.8,3.5-8.8,7.2c0,12.4,29.4,11.6,29.4,32.8s-8.7,18.9-21,18.9"/>
  <path class="st0" d="M684.6,322.1c0,13.3-.9,43.6,26.7,63.6,8.2,5.9,18.4,13.6,29.1,21.8h45.2c-17.8-10.9-35.3-21.4-48.9-29.3-18.5-10.7-33.6-17.1-33.2-59,.4-37.2,0-82.9-.2-103h7.6l-17-24.6-17,24.6h7.7v105.9Z"/>
  <path class="st0" d="M517.7,407.5c10.7-8.1,20.9-15.8,29.1-21.8,27.6-20,26.7-50.3,26.7-63.6v-105.9h7.7l-17-24.6-17,24.6h7.6c-.1,20.1-.6,65.8-.2,103,.4,41.8-14.7,48.2-33.2,59-13.6,7.9-31.1,18.4-48.9,29.3h45.2Z"/>
  <path class="st1" d="M564.8,390.2c-5.4,6.1-10.7,11.9-15.9,17.3h37.1c2.7-5.4,5.4-11.2,8.2-17.3,10.7-23.6,11.6-46.7,11.6-57.4v-174h7.2l-17-24.6-17,24.6h7.7c0,30,.4,123.5,0,166.4-.4,48.1-14.1,56.3-21.8,65"/>
  <path class="st3" d="M608.8,400c-.7,2.6-1.4,5.1-2.1,7.5h39.3c-1.5-6.5-2.7-11.6-3.3-13.7-2.2-8.5-4.5-24-4.5-57s1.9-193,2.2-227.4h6.8l-17-24.6-17,24.6h6.8c-.1,34.7-.9,200.4-.9,217.6s0,36.5-10.2,73"/>
  <path class="st1" d="M652.3,332.8c0,10.7.9,33.8,11.6,57.4,2.8,6.1,5.5,11.9,8.2,17.3h37.1c-5.2-5.4-10.5-11.2-15.9-17.3-7.7-8.7-21.4-16.9-21.8-65-.4-42.9,0-136.4,0-166.4h7.7l-17-24.6-17,24.6h7.2v174Z"/>
  <path class="st2" d="M260.5,1052.1h-26.7v-.8l7.6-2.7v-54l-7.6-2.7v-.8h20.9c9.7,0,23.9,2.4,23.9,14.8s-7.9,13.3-15.3,14.2c8.9.7,18.4,5,18.4,15.4s-11.2,16.7-21.3,16.7ZM248.7,993.2v26.3c8.7-.3,22.2-1.2,22.2-13.1s-12.7-12.8-22.2-13.2h0ZM248.7,1021.7v28.2c3.3,0,6.6,0,9.9-.3,8-.4,15.4-4.7,15.4-13.6,0-14.4-14.7-14.3-25.3-14.4h0Z"/>
  <path class="st2" d="M308.3,1016.5c-2,0-3.8-1.3-4.5-3.3l-8.1,5.1v30.5l7.5,2.5v.8h-20.9v-.8l6.8-2.5v-34.7l-6.8-3.3v-.8l13.5-3v9.7c2.9-3.3,7.7-9.5,12.5-9.5,2.6,0,4.7,2.2,4.6,4.8,0,2.4-1.9,4.5-4.4,4.5,0,0-.1,0-.2,0Z"/>
  <path class="st2" d="M312.4,1052.1v-.8l6.8-2.5v-34.7l-6.8-3.3v-.9l13.5-3v41.8l6.8,2.5v.8h-20.3ZM322.6,998.9c-2.5,0-4.6-2-4.6-4.5,0,0,0,0,0,0,0-2.6,2.1-4.6,4.6-4.6,2.6,0,4.6,2.1,4.6,4.6,0,2.5-2.1,4.6-4.6,4.6,0,0,0,0,0,0h0Z"/>
  <path class="st2" d="M346.6,1053.2c-7.1,0-8-6.6-8-12.1v-29.7h-7.3v-1.1l8.5-4.3,4.2-9.4h1.3v11.7h11.8v3.1h-11.8v29.7c0,4,.4,7.8,5.5,7.8,2.4,0,4.7-.3,7-.8l.5,1.1c-3.5,2-7.4,4-11.6,4Z"/>
  <path class="st2" d="M386.4,1052.9c-2.7.2-5.1-1.8-5.4-4.6-3.4,2.6-7.5,4.9-11.8,4.9-6.4,0-10.8-3.7-10.8-10.3,0-10.7,14.3-14.2,22.6-15.3v-5.2c0-6.6-.7-12.5-8.9-12.5s-5.7.7-7.7,2.5c2.1.4,3.7,2.3,3.6,4.5,0,2.3-1.9,4.2-4.2,4.2,0,0,0,0,0,0-2.4,0-4.3-1.8-4.4-4.2,0,0,0-.2,0-.3,0-7,9.5-9.6,15.1-9.6,11,0,13.2,5.8,13.2,15.6v21c0,2.5,0,5,3.3,5,1.3,0,2.7-.2,4-.4l.5,1.1c-2.5,2.1-5.6,3.3-8.9,3.5ZM380.9,1029.3c-6.2,1.5-15.6,5.1-15.6,12.7s2.5,7.2,7,7.2c3,0,5.9-.8,8.6-2.2v-17.7Z"/>
  <path class="st2" d="M394.4,1052.1v-.8l6.8-2.5v-34.7l-6.8-3.3v-.9l13.5-3v41.8l6.8,2.5v.8h-20.3ZM404.6,998.9c-2.5,0-4.6-2-4.6-4.5,0,0,0,0,0,0,.1-2.6,2.3-4.5,4.9-4.4,2.4.1,4.3,2,4.4,4.4,0,2.5-2.1,4.6-4.6,4.6,0,0,0,0,0,0h0Z"/>
  <path class="st2" d="M439.9,1052.1v-.8l6.4-2.5v-26.5c0-5.5-.6-10.4-7.4-10.4s-8,1.9-11.2,3.6v33.2l6.4,2.5v.8h-19.8v-.8l6.8-2.5v-35.6l-6.8-3.3v-.8l13.5-2.1v7c4-3.1,10-7,15.3-7,9.2,0,9.9,8.7,9.9,15.8v26l6.8,2.5v.8h-19.8Z"/>
  <path class="st2" d="M461.3,1008.3l-1-1c2.2-2.4,3.7-5.4,4.4-8.6-2.4,0-4.5-1.9-4.5-4.3,0,0,0-.1,0-.2,0-2.5,2.1-4.5,4.5-4.5,2.9,0,4.5,2.4,4.5,5.1,0,5.4-3.7,10.3-7.8,13.4Z"/>
  <path class="st2" d="M484.5,1053.2c-4,0-8-.4-11.9-1.4v-11.1h1.1c2.5,4.2,5.8,10.2,11.5,10.2s8.2-2.2,8.2-6.7c0-10.5-20.8-11.5-20.8-25.4s6.2-11.5,13.5-11.5c3.6-.1,7.2.3,10.7,1.2v11h-1.1c-2.4-4.4-4.7-9.8-10.6-9.8s-7.5,1.9-7.5,6.4c0,11,21.2,12.2,21.2,25.1,0,8.1-7,12.2-14.4,12.2Z"/>
  <path class="st2" d="M541.6,1000.3c-2.4,0-4.4-1.7-4.5-4.1,0,0,0,0,0,0,0-1.9,1.2-3.6,3.1-4.1-1.2-.6-2.5-.9-3.8-.8-8.9,0-7.7,11.2-7.7,17.2h10.6v3.1h-10.6v37.3l7.5,2.5v.8h-20.9v-.8l6.8-2.5v-37.3h-7.7v-1.4l7.7-1.7v-4c0-9.2,5-15.6,14.6-15.6s9.2,2.2,9.2,7.2c0,2.3-1.9,4.2-4.2,4.3Z"/>
  <path class="st2" d="M569,1052.9c-2.7.2-5.1-1.8-5.4-4.6-3.4,2.6-7.5,4.9-11.8,4.9-6.4,0-10.8-3.7-10.8-10.3,0-10.7,14.3-14.2,22.6-15.3v-5.2c0-6.6-.7-12.5-8.9-12.5s-5.7.7-7.7,2.5c2.1.4,3.7,2.4,3.6,4.5,0,2.3-1.9,4.2-4.2,4.2,0,0,0,0,0,0-2.4,0-4.3-1.8-4.4-4.2,0,0,0-.2,0-.3,0-7,9.5-9.6,15.1-9.6,11,0,13.2,5.8,13.2,15.6v21c0,2.5,0,5,3.3,5,1.3,0,2.7-.2,4-.4l.5,1.1c-2.5,2.1-5.7,3.3-8.9,3.5ZM563.5,1029.3c-6.2,1.5-15.6,5.1-15.6,12.7s2.5,7.2,7,7.2c3,0,5.9-.8,8.6-2.2v-17.7Z"/>
  <path class="st2" d="M591.4,1053.2c-4,0-8-.4-11.9-1.4v-11.1h1.1c2.5,4.2,5.8,10.2,11.5,10.2s8.2-2.2,8.2-6.7c0-10.5-20.8-11.5-20.8-25.4s6.2-11.5,13.5-11.5c3.6-.1,7.2.3,10.7,1.2v11h-1.1c-2.4-4.4-4.7-9.8-10.6-9.8s-7.5,1.9-7.5,6.4c0,11,21.2,12.2,21.2,25.1,0,8.1-7,12.2-14.4,12.2Z"/>
  <path class="st2" d="M622,1053.2c-7.1,0-8-6.6-8-12.1v-29.7h-7.3v-1.1l8.5-4.3,4.2-9.4h1.3v11.7h11.8v3.1h-11.9v29.7c0,4,.4,7.8,5.5,7.8,2.4,0,4.7-.3,7-.8l.5,1.1c-3.5,2-7.4,4-11.5,4Z"/>
  <path class="st2" d="M666.9,1029.8h-26c0,9.5,3.6,19.5,14.8,19.5,3.6,0,7.1-.6,10.5-1.6l.5,1.2c-4.7,2.7-9.5,4.5-15,4.5-13,0-18.2-11.6-18.2-23s5.3-23,17.5-23,15.9,11.2,15.9,21.3v1.2ZM650.7,1009.7c-8.4,0-9.8,12.4-9.8,18.6l18.8-.9c0-5.8-1.1-17.7-9-17.7h0Z"/>
  <path class="st2" d="M682.6,1053.2c-4,0-8-.4-11.9-1.4v-11.1h1.1c2.5,4.2,5.8,10.2,11.5,10.2s8.2-2.2,8.2-6.7c0-10.5-20.8-11.5-20.8-25.4s6.2-11.5,13.5-11.5c3.6-.1,7.2.3,10.7,1.2v11h-1.1c-2.4-4.4-4.7-9.8-10.6-9.8s-7.5,1.9-7.5,6.4c0,11,21.2,12.2,21.2,25.1,0,8.1-7,12.2-14.4,12.2Z"/>
  <path class="st2" d="M713.2,1053.2c-7.1,0-8-6.6-8-12.1v-29.7h-7.3v-1.1l8.5-4.3,4.2-9.4h1.3v11.7h11.8v3.1h-11.8v29.7c0,4,.4,7.8,5.5,7.8,2.4,0,4.7-.3,7-.8l.5,1.1c-3.5,2-7.4,4-11.6,4Z"/>
  <path class="st2" d="M725.7,1031.7v-3.9h24.8v3.9h-24.8Z"/>
  <path class="st2" d="M780.2,1009.8c4,2.8,6.4,7.5,6.3,12.4,0,9.2-6.7,14.9-15.7,14.9-2.4,0-4.8-.4-7-1.3l-2.5,6c-.2,5.6,10.5,3.6,14.4,3.6,7.3,0,15.3,1.1,15.3,10.3s-12.3,13.1-20.2,13.1-19-1.3-19-9.1,4.5-7.2,8.1-8.9c-2.4-1-4.1-3.3-4.3-5.9,0-4,4.1-7.4,6.9-9.7-4.8-2.6-7.3-7.6-7.3-13,0-9.1,6.6-15,15.6-15,2.8,0,5.6.6,8.1,1.9,2.1-1.9,5.7-5.7,8.7-5.7,1.7-.1,3.3,1.1,3.4,2.9,0,0,0,.2,0,.3,0,4.6-8.2,3.3-10.9,3.3ZM761.1,1051.3c-1.9,1.9-2.9,4.4-2.9,7.1,0,6.6,6.7,8.2,12.1,8.2s15.8-1.7,15.8-9c0-9.5-19-4.5-24.9-6.3h0ZM770.8,1009.3c-6.8,0-8.7,7.4-8.7,12.9s1.9,12.6,8.7,12.6,8.8-6.9,8.8-12.7-1.8-13-8.8-13h0Z"/>
  <path class="st2" d="M816.7,1016.5c-2,0-3.8-1.3-4.5-3.3l-8.1,5.1v30.5l7.5,2.5v.8h-20.9v-.8l6.8-2.5v-34.7l-6.8-3.3v-.8l13.5-3v9.7c2.9-3.3,7.7-9.5,12.5-9.5,2.6,0,4.7,2.2,4.6,4.8,0,2.4-1.9,4.5-4.4,4.5,0,0-.1,0-.2,0Z"/>
  <path class="st2" d="M839.9,1053.2c-12.8,0-18.7-11.7-18.7-23s5.8-23,18.7-23,18.7,11.5,18.7,23-5.7,23-18.7,23ZM839.9,1009.8c-9.8,0-11.3,13-11.3,20.4s1.5,20.4,11.3,20.4,11.3-12.9,11.3-20.4-1.4-20.4-11.3-20.4Z"/>
  <path class="st2" d="M915.8,1011.8l-13.1,40.9h-1.4l-11-30.5-10.4,30.5h-1.4l-14.5-41.1-6-2.4v-.8h20.5v.8l-7.5,2.5,10.5,29.5,9.3-31.5h1.7l11.6,31.2,8-29.1v.2c0,0-5.5-2.7-5.5-2.7v-.8h14.1v.8l-5.1,2.6Z"/>
  <path class="st2" d="M920.9,1052.1v-.8l6.8-2.5v-34.7l-6.8-3.3v-.9l13.5-3v41.8l6.8,2.5v.8h-20.3ZM931.1,998.9c-2.5,0-4.6-2-4.6-4.5,0,0,0,0,0,0,0-2.6,2.1-4.6,4.6-4.6s4.6,2.1,4.6,4.6h0c0,2.5-2.1,4.6-4.6,4.6,0,0,0,0,0,0h0Z"/>
  <path class="st2" d="M966.4,1052.1v-.8l6.4-2.5v-26.5c0-5.5-.6-10.4-7.4-10.4s-8,1.9-11.2,3.6v33.2l6.4,2.5v.8h-19.8v-.8l6.8-2.5v-35.6l-6.8-3.3v-.8l13.5-2.1v7c4-3.1,10-7,15.3-7,9.2,0,9.9,8.7,9.9,15.8v26l6.8,2.5v.8h-19.8Z"/>
  <path class="st2" d="M1014.2,1009.8c4,2.8,6.4,7.5,6.3,12.4,0,9.2-6.7,14.9-15.7,14.9-2.4,0-4.8-.4-7-1.3l-2.5,6c-.2,5.6,10.5,3.6,14.4,3.6,7.3,0,15.3,1.1,15.3,10.3s-12.3,13.1-20.2,13.1-19-1.3-19-9.1,4.5-7.2,8.1-8.9c-2.4-1-4.1-3.3-4.3-5.9,0-4,4.1-7.4,6.9-9.7-4.8-2.6-7.3-7.6-7.3-13,0-9.1,6.6-15,15.6-15,2.8,0,5.6.6,8.1,1.9,2.1-1.9,5.7-5.7,8.7-5.7,1.8-.1,3.3,1.2,3.4,2.9,0,0,0,.2,0,.3,0,4.6-8.2,3.3-10.9,3.3ZM995,1051.3c-1.9,1.9-2.9,4.4-2.9,7.1,0,6.6,6.7,8.2,12.1,8.2s15.7-1.7,15.7-9c0-9.5-18.9-4.5-24.9-6.3ZM1004.7,1009.3c-6.8,0-8.7,7.4-8.7,12.9s1.9,12.6,8.7,12.6,8.8-6.9,8.8-12.7-1.8-13-8.8-13h0Z"/>
  <path class="st2" d="M275.3,1147.8c-2.5,0-5.1-.4-7.6-1v12.7l7.5,2.4v.8h-20.9v-.8l6.8-2.4v-50.3l-6.8-3.3v-.9l13.5-3v6.8c2.9-3.6,6.9-6.6,11.8-6.6,11.8,0,15.2,13,15.2,22.7s-6.3,23-19.5,23ZM277.1,1106.5c-3.9,0-6.5,1.8-9.3,4.3v30.7c2.2,2.6,4.7,4.3,8.3,4.3,9.6,0,11.5-13,11.5-20.3s-1.7-18.9-10.5-18.9h0Z"/>
  <path class="st2" d="M321.3,1111.5c-2,0-3.8-1.3-4.5-3.3l-8.1,5.1v30.5l7.5,2.5v.8h-20.9v-.8l6.8-2.5v-34.7l-6.8-3.3v-.8l13.5-3v9.7c2.9-3.3,7.7-9.6,12.5-9.6,2.6,0,4.7,2.2,4.6,4.8,0,2.4-1.9,4.5-4.4,4.5,0,0-.1,0-.2,0Z"/>
  <path class="st2" d="M325.4,1147.1v-.8l6.8-2.5v-34.7l-6.8-3.3v-.8l13.5-3v41.8l6.8,2.5v.8h-20.3ZM335.6,1093.9c-2.5,0-4.6-2-4.6-4.5,0,0,0,0,0,0,0-2.6,2.1-4.6,4.6-4.6,2.6,0,4.6,2.1,4.6,4.6,0,2.5-2.1,4.6-4.6,4.6,0,0,0,0,0,0h0Z"/>
  <path class="st2" d="M382.4,1106.9l-14.7,40.8h-1.2l-16-41-6.2-2.5v-.8h20.8v.8l-7.5,2.5,11.5,29.9,9.6-29.7-5.2-2.7v-.8h14.1v.8l-5.3,2.7Z"/>
  <path class="st2" d="M416.4,1147.9c-2.7.2-5.1-1.8-5.4-4.6-3.4,2.6-7.5,4.9-11.8,4.9-6.4,0-10.8-3.7-10.8-10.3,0-10.7,14.3-14.2,22.6-15.3v-5.2c0-6.6-.7-12.5-8.9-12.5s-5.7.7-7.7,2.6c2.1.4,3.7,2.3,3.6,4.5,0,2.3-1.9,4.2-4.2,4.2,0,0,0,0,0,0-2.4,0-4.3-1.8-4.4-4.2,0,0,0-.2,0-.3,0-7,9.5-9.6,15.1-9.6,11,0,13.2,5.8,13.2,15.6v21c0,2.5,0,5,3.3,5,1.3,0,2.7-.2,4-.4l.5,1.1c-2.5,2.1-5.6,3.3-8.9,3.5ZM410.9,1124.3c-6.2,1.5-15.6,5.1-15.6,12.7s2.5,7.2,7,7.2c3,0,5.9-.8,8.5-2.2v-17.7Z"/>
  <path class="st2" d="M438.8,1148.2c-7.1,0-8-6.6-8-12.1v-29.7h-7.3v-1.1l8.5-4.3,4.2-9.4h1.3v11.7h11.8v3.1h-11.8v29.7c0,4,.4,7.8,5.5,7.8,2.4,0,4.7-.3,7-.8l.5,1.1c-3.5,2-7.3,4-11.6,4Z"/>
  <path class="st2" d="M483.7,1124.8h-26c0,9.5,3.6,19.5,14.7,19.5,3.6,0,7.1-.6,10.6-1.6l.5,1.2c-4.7,2.7-9.5,4.5-15,4.5-13,0-18.2-11.6-18.2-23s5.3-23,17.5-23,15.9,11.2,15.9,21.3v1.2ZM467.5,1104.7c-8.4,0-9.8,12.4-9.8,18.6l18.8-.9c0-5.8-1.1-17.7-9-17.7Z"/>
  <path class="st2" d="M514,1148.2c-7.1,0-8-6.6-8-12.1v-29.7h-7.3v-1.1l8.5-4.3,4.2-9.4h1.3v11.7h11.8v3.1h-11.8v29.7c0,4,.4,7.8,5.5,7.8,2.4,0,4.7-.3,7-.8l.5,1.1c-3.6,2-7.4,4-11.6,4Z"/>
  <path class="st2" d="M559,1124.8h-26c0,9.5,3.6,19.5,14.7,19.5,3.6,0,7.1-.6,10.6-1.6l.5,1.2c-4.7,2.7-9.5,4.5-15,4.5-13,0-18.2-11.6-18.2-23s5.3-23,17.5-23,15.9,11.2,15.9,21.3v1.2ZM542.8,1104.7c-8.4,0-9.8,12.4-9.8,18.6l18.8-.9c0-5.8-1.1-17.7-9-17.7h0Z"/>
  <path class="st2" d="M579,1148.2c-12.7,0-18.2-11-18.2-22.3s7.4-23.8,20.5-23.8,12.6,2.2,12.6,8.6c0,2.5-2,4.6-4.5,4.6,0,0,0,0,0,0-2.5,0-4.6-1.9-4.7-4.5-.1-2.2,1.4-4.1,3.5-4.5-2-1.1-4.3-1.6-6.5-1.5-10.4,0-13.4,10.8-13.4,19.4s3.5,19.8,14.7,19.8c3.7,0,7.4-.6,11-1.6l.5,1.2c-4.6,2.9-10,4.4-15.5,4.5Z"/>
  <path class="st2" d="M620.5,1147.1v-.8l6.4-2.5v-26.2c0-5.6-.6-10.5-7.5-10.5s-7.8,1.9-11,3.6v33l6.4,2.5v.8h-19.8v-.8l6.8-2.5v-52.9l-6.8-3.3v-.8l13.5-3v25.4c4-3.1,9.8-7,15.1-7,9.3,0,10,8.6,10,15.7v25.8l6.8,2.5v.8h-19.8Z"/>
  <path class="st2" d="M673.1,1148.2c-12.7,0-18.2-11-18.2-22.3s7.4-23.8,20.5-23.8,12.6,2.2,12.6,8.6c0,2.5-2,4.6-4.5,4.6,0,0,0,0,0,0-2.5,0-4.6-1.9-4.7-4.5-.1-2.2,1.4-4.1,3.5-4.5-2-1.1-4.3-1.6-6.5-1.5-10.4,0-13.4,10.8-13.4,19.4s3.5,19.8,14.7,19.8c3.7,0,7.4-.6,11-1.6l.5,1.2c-4.6,2.9-10,4.4-15.5,4.5Z"/>
  <path class="st2" d="M708.1,1148.2c-12.8,0-18.7-11.7-18.7-23s5.8-23,18.7-23,18.7,11.6,18.7,23-5.7,23-18.7,23ZM708.1,1104.8c-9.8,0-11.3,13-11.3,20.4s1.5,20.4,11.3,20.4,11.3-12.9,11.3-20.4-1.4-20.4-11.3-20.4Z"/>
  <path class="st2" d="M776,1147.1v-.8l6.4-2.5v-26.1c0-5.4-.5-10.6-7.2-10.6s-8,2-10.8,3.5c.4,2.4.5,4.9.5,7.4v25.8l6.4,2.5v.8h-19.4v-.8l6.4-2.5v-25.9c0-4.9-.5-10.7-6.7-10.7s-7.7,2-10.7,3.6v33l6.4,2.5v.8h-19.8v-.8l6.8-2.5v-34.7l-6.8-3.3v-.8l13.5-3v7.2c3.8-3,9.4-7,14.4-7,4.2,0,8,2.9,8.9,7,3.9-3,9.7-7,14.8-7,9.4,0,10.2,8.5,10.2,15.7v25.8l6.8,2.5v.8h-19.8Z"/>
  <path class="st2" d="M816.4,1147.8c-2.5,0-5.1-.4-7.5-1v12.7l7.5,2.4v.8h-20.9v-.8l6.8-2.4v-50.3l-6.8-3.3v-.9l13.5-3v6.8c2.9-3.6,6.9-6.6,11.8-6.6,11.8,0,15.2,13,15.2,22.7s-6.3,23-19.5,23ZM818.1,1106.5c-3.9,0-6.5,1.8-9.3,4.3v30.7c2.2,2.6,4.7,4.3,8.3,4.3,9.7,0,11.5-13,11.5-20.3,0-6.6-1.7-18.9-10.5-18.9h0Z"/>
  <path class="st2" d="M865,1147.9c-2.7.2-5.1-1.8-5.4-4.6-3.4,2.6-7.5,4.9-11.8,4.9-6.4,0-10.8-3.7-10.8-10.3,0-10.7,14.3-14.2,22.6-15.3v-5.2c0-6.6-.7-12.5-8.9-12.5s-5.7.7-7.7,2.6c2.1.4,3.7,2.3,3.6,4.5,0,2.3-1.9,4.2-4.2,4.2,0,0,0,0,0,0-2.4,0-4.3-1.8-4.4-4.2,0,0,0-.2,0-.3,0-7,9.5-9.6,15.1-9.6,11,0,13.2,5.8,13.2,15.6v21c0,2.5,0,5,3.3,5,1.3,0,2.7-.2,4-.4l.5,1.1c-2.5,2.1-5.6,3.3-8.9,3.5ZM859.5,1124.3c-6.2,1.5-15.6,5.1-15.6,12.7s2.5,7.2,7,7.2c3,0,5.9-.8,8.5-2.2v-17.7Z"/>
  <path class="st2" d="M898.7,1147.1v-.8l6.4-2.5v-26.5c0-5.5-.6-10.4-7.4-10.4s-8,1.9-11.2,3.6v33.2l6.4,2.5v.8h-19.8v-.8l6.8-2.5v-35.6l-6.8-3.3v-.8l13.5-2.1v7c4-3.1,10-7,15.3-7,9.2,0,9.9,8.7,9.9,15.8v26l6.8,2.5v.8h-19.8Z"/>
  <path class="st2" d="M918.1,1147.1v-.8l6.8-2.5v-34.7l-6.8-3.3v-.8l13.5-3v41.8l6.8,2.5v.8h-20.3ZM928.2,1093.9c-2.5,0-4.6-2-4.6-4.5,0,0,0,0,0,0,0-2.6,2.1-4.6,4.6-4.6s4.6,2.1,4.6,4.6c0,2.5-2.1,4.6-4.6,4.6,0,0,0,0,0,0h0Z"/>
  <path class="st2" d="M971.8,1124.8h-26c0,9.5,3.6,19.5,14.7,19.5,3.6,0,7.1-.6,10.6-1.6l.5,1.2c-4.7,2.7-9.5,4.5-15,4.5-13,0-18.2-11.6-18.2-23s5.3-23,17.5-23,15.9,11.2,15.9,21.3v1.2ZM955.5,1104.7c-8.4,0-9.8,12.4-9.8,18.6l18.8-.9c0-5.8-1.1-17.7-9-17.7Z"/>
  <path class="st2" d="M987.5,1148.2c-4,0-8-.4-11.9-1.4v-11.1h1.1c2.5,4.2,5.8,10.2,11.5,10.2s8.2-2.2,8.2-6.7c0-10.5-20.8-11.5-20.8-25.4s6.2-11.6,13.5-11.6c3.6-.1,7.2.3,10.7,1.2v11h-1.1c-2.4-4.4-4.7-9.8-10.5-9.8s-7.5,1.9-7.5,6.4c0,11,21.2,12.2,21.2,25.1,0,8.1-7,12.2-14.4,12.2Z"/>
</svg>